<?xml version="1.0" encoding="utf-8"?>
<!-- Generator: Adobe Illustrator 18.1.1, SVG Export Plug-In . SVG Version: 6.00 Build 0)  -->
<svg version="1.1" id="Слой_1" xmlns="http://www.w3.org/2000/svg" xmlns:xlink="http://www.w3.org/1999/xlink" x="0px" y="0px"
	 viewBox="161.7 0 526.9 170.1" enable-background="new 161.7 0 526.9 170.1" xml:space="preserve">
<path fill="#818181" d="M528.7,23.1v124.7h124.7V23.1H528.7z M620.4,108c-1.5,3.3-4.3,5-8,5.1c-2.7,0-4.9-1.2-6.7-3.1
	c-3.4-3.4-6.9-6.9-10.3-10.3c-3.3-3.2-3.4-3.2-6.7,0.1c-3.1,3.1-6.2,6.2-9.2,9.2c-4.8,4.8-10,5.3-13.8,1.5
	c-3.9-3.8-3.4-9.1,1.3-13.8c3.2-3.2,6.4-6.4,9.7-9.7c2.9-2.9,2.9-3.2,0.1-6.1c-3.5-3.5-7-7-10.5-10.5c-4-4.1-4.2-9.4-0.6-13
	c3.5-3.5,8.6-3.5,12.8,0.4c3.8,3.6,7.6,7.3,11.2,11.1c1.9,2,3.4,2,5.3,0c3.5-3.7,7.1-7.2,10.7-10.7c2.4-2.4,5.3-3.8,8.8-3.1
	c6.5,1.2,9.2,8.9,4.7,14.2c-3.5,4.1-7.5,7.7-11.2,11.5c-3,3.1-3,3.3,0,6.3c3.7,3.7,7.5,7.4,11.1,11.3
	C621.2,101.1,622,104.5,620.4,108z"/>
<path fill="#3693AC" d="M198.7,23.1v124.7h124.7V23.1H198.7z M290.4,108c-1.5,3.3-4.3,5-8,5.1c-2.7,0-4.9-1.2-6.7-3.1
	c-3.4-3.4-6.9-6.9-10.3-10.3c-3.3-3.2-3.4-3.2-6.7,0.1c-3.1,3.1-6.2,6.2-9.2,9.2c-4.8,4.8-10,5.3-13.8,1.5
	c-3.9-3.8-3.4-9.1,1.3-13.8c3.2-3.2,6.4-6.4,9.7-9.7c2.9-2.9,2.9-3.2,0.1-6.1c-3.5-3.5-7-7-10.5-10.5c-4-4.1-4.2-9.4-0.6-13
	c3.5-3.5,8.6-3.5,12.8,0.4c3.8,3.6,7.6,7.3,11.2,11.1c1.9,2,3.4,2,5.3,0c3.5-3.7,7.1-7.2,10.7-10.7c2.4-2.4,5.3-3.8,8.8-3.1
	c6.5,1.2,9.2,8.9,4.7,14.2c-3.5,4.1-7.5,7.7-11.2,11.5c-3,3.1-3,3.3,0,6.3c3.7,3.7,7.5,7.4,11.1,11.3
	C291.2,101.1,292,104.5,290.4,108z"/>
</svg>
