<?xml version="1.0" encoding="utf-8"?>
<!-- Generator: Adobe Illustrator 18.1.1, SVG Export Plug-In . SVG Version: 6.00 Build 0)  -->
<svg version="1.1" id="Слой_1" xmlns="http://www.w3.org/2000/svg" xmlns:xlink="http://www.w3.org/1999/xlink" x="0px" y="0px"
	 viewBox="340.2 0 170.1 170.1" enable-background="new 340.2 0 170.1 170.1" xml:space="preserve">
<g id="Panel_x5F_passive">
	<g>
		<circle fill="#454444" cx="424.7" cy="85.1" r="70"/>
		<path opacity="0.5" enable-background="new    " d="M491.5,106.1l-29.3-34.6v5.7l-6.2,0l1,30.3l9.4,4.1h-83.6l37.8,43.5
			c1.4,0.1,2.7,0.1,4.1,0.1C461.6,155.2,483.3,130.3,491.5,106.1z"/>
		<rect x="385.7" y="71.6" fill="#818181" width="2.2" height="5.7"/>
		<rect x="460.1" y="71.6" fill="#818181" width="2.2" height="5.7"/>
		<rect x="382.7" y="105" fill="#818181" width="83.3" height="6.5"/>
		<rect x="449.1" y="69.3" fill="#818181" width="8.8" height="34.2"/>
		<rect x="437.4" y="69.3" fill="#818181" width="8.8" height="34.2"/>
		<rect x="425.6" y="69.3" fill="#818181" width="8.8" height="34.2"/>
		<rect x="413.8" y="69.3" fill="#818181" width="8.8" height="34.2"/>
		<rect x="402.1" y="69.3" fill="#818181" width="8.8" height="34.2"/>
		<rect x="390.3" y="69.3" fill="#818181" width="8.8" height="34.2"/>
	</g>
	<rect x="339.6" y="0.1" fill="none" width="170.1" height="170.1"/>
</g>
</svg>
