<?xml version="1.0" encoding="utf-8"?>
<!-- Generator: Adobe Illustrator 18.1.1, SVG Export Plug-In . SVG Version: 6.00 Build 0)  -->
<svg version="1.1" id="Слой_1" xmlns="http://www.w3.org/2000/svg" xmlns:xlink="http://www.w3.org/1999/xlink" x="0px" y="0px"
	 viewBox="0 0 300 100" enable-background="new 0 0 300 100" xml:space="preserve">
<g>
	<path fill="#444444" d="M46.6,28.4c9.3,0,17.3,7.2,18.3,16.4c0.5,4.1-0.4,7.8-2.4,11.3c-0.4,0.7-0.4,1.1,0.2,1.7
		c2.5,2.5,5,5,7.6,7.5c1,1,1.7,2.1,1.4,3.5c-0.2,1.5-1.1,2.5-2.5,3c-1.5,0.5-2.8,0.1-3.8-1c-2.6-2.5-5.1-5-7.6-7.6
		c-0.8-0.8-1.3-0.8-2.3-0.3c-11.3,6.1-25-0.6-27.1-13.3c-1.7-10.1,5.7-19.9,15.9-21.1C45.1,28.5,45.9,28.4,46.6,28.4z M46.7,33.1
		c-7.7,0-13.8,6-13.8,13.7c0,7.7,6.1,13.8,13.8,13.8c7.7,0,13.8-6.1,13.8-13.7C60.5,39.2,54.4,33.1,46.7,33.1z"/>
</g>
<g>
	<path fill="#3693AC" d="M246.6,28.4c9.3,0,17.3,7.2,18.3,16.4c0.5,4.1-0.4,7.8-2.4,11.3c-0.4,0.7-0.4,1.1,0.2,1.7
		c2.5,2.5,5,5,7.6,7.5c1,1,1.7,2.1,1.4,3.5c-0.2,1.5-1.1,2.5-2.5,3c-1.5,0.5-2.8,0.1-3.8-1c-2.6-2.5-5.1-5-7.6-7.6
		c-0.8-0.8-1.3-0.8-2.3-0.3c-11.3,6.1-25-0.6-27.1-13.3c-1.7-10.1,5.7-19.9,15.9-21.1C245.1,28.5,245.9,28.4,246.6,28.4z
		 M246.7,33.1c-7.7,0-13.8,6-13.8,13.7c0,7.7,6.1,13.8,13.8,13.8c7.7,0,13.8-6.1,13.8-13.7C260.5,39.2,254.4,33.1,246.7,33.1z"/>
</g>
</svg>
