<?xml version="1.0" encoding="utf-8"?>
<!-- Generator: Adobe Illustrator 18.1.1, SVG Export Plug-In . SVG Version: 6.00 Build 0)  -->
<svg version="1.1" id="Слой_1" xmlns="http://www.w3.org/2000/svg" xmlns:xlink="http://www.w3.org/1999/xlink" x="0px" y="0px"
	 viewBox="340.2 0 170 170.1" enable-background="new 340.2 0 170 170.1" xml:space="preserve">
<g id="Tile_x5F_passive">
	<g>
		<circle fill="#454444" cx="424.7" cy="85.1" r="70"/>
		<path opacity="0.5" enable-background="new    " d="M490.9,108.1l-36.7-38.7l0.1,6.4l0.1,2.7l-0.2,29.7l12.2,3.4h-83.6l37.8,43.5
			c1.4,0.1,2.7,0.1,4.1,0.1C461.6,155.2,483.7,128.9,490.9,108.1z"/>
		<rect x="382.7" y="105" fill="#818181" width="83.3" height="6.5"/>
		<rect x="445.7" y="69.3" fill="#818181" width="8.8" height="6.4"/>
		<rect x="435" y="69.3" fill="#818181" width="8.8" height="6.4"/>
		<rect x="424.2" y="69.3" fill="#818181" width="8.8" height="6.4"/>
		<rect x="413.5" y="69.3" fill="#818181" width="8.8" height="6.4"/>
		<rect x="402.7" y="69.3" fill="#818181" width="8.8" height="6.4"/>
		<rect x="392" y="69.3" fill="#818181" width="8.8" height="6.4"/>
		<rect x="445.7" y="77.9" fill="#818181" width="8.8" height="6.4"/>
		<rect x="435" y="77.9" fill="#818181" width="8.8" height="6.4"/>
		<rect x="424.2" y="77.9" fill="#818181" width="8.8" height="6.4"/>
		<rect x="413.5" y="77.9" fill="#818181" width="8.8" height="6.4"/>
		<rect x="402.7" y="77.9" fill="#818181" width="8.8" height="6.4"/>
		<rect x="392" y="77.9" fill="#818181" width="8.8" height="6.4"/>
		<rect x="445.7" y="86.5" fill="#818181" width="8.8" height="6.4"/>
		<rect x="435" y="86.5" fill="#818181" width="8.8" height="6.4"/>
		<rect x="424.2" y="86.5" fill="#818181" width="8.8" height="6.4"/>
		<rect x="413.5" y="86.5" fill="#818181" width="8.8" height="6.4"/>
		<rect x="402.7" y="86.5" fill="#818181" width="8.8" height="6.4"/>
		<rect x="392" y="86.5" fill="#818181" width="8.8" height="6.4"/>
		<rect x="445.7" y="95.1" fill="#818181" width="8.8" height="6.4"/>
		<rect x="435" y="95.1" fill="#818181" width="8.8" height="6.4"/>
		<rect x="424.2" y="95.1" fill="#818181" width="8.8" height="6.4"/>
		<rect x="413.5" y="95.1" fill="#818181" width="8.8" height="6.4"/>
		<rect x="402.7" y="95.1" fill="#818181" width="8.8" height="6.4"/>
		<rect x="392" y="95.1" fill="#818181" width="8.8" height="6.4"/>
	</g>
	<rect x="339.6" y="0.1" fill="none" width="170.1" height="170.1"/>
</g>
</svg>
