<?xml version="1.0" encoding="utf-8"?>
<!-- Generator: Adobe Illustrator 18.1.1, SVG Export Plug-In . SVG Version: 6.00 Build 0)  -->
<svg version="1.1" id="Слой_1" xmlns="http://www.w3.org/2000/svg" xmlns:xlink="http://www.w3.org/1999/xlink" x="0px" y="0px"
	 viewBox="198.4 0 453.5 170.1" enable-background="new 198.4 0 453.5 170.1" xml:space="preserve">
<g id="Слой_2">
	<rect x="199.1" y="0.4" fill="none" width="170.1" height="170.1"/>
	<path fill="#3693A6" d="M215.7,16.1v139.8h139.8V16.1H215.7z M304.7,55.4c-2.7-0.6-5.2-1-7.7-1c-2.4,0-4.2,0.6-5.2,1.7
		c-1.1,1.1-1.6,3.3-1.6,6.5v4.5h12.5v13.2h-12.5v50.2h-16.8V80.3h-9.3V67.1h9.3v-4.8c0-5.3,0.6-9.3,1.7-11.9s3.2-4.8,6.3-6.4
		c3-1.7,6.9-2.5,11.5-2.5c4.8,0,9.4,0.7,14,2.1L304.7,55.4z"/>
</g>
<g id="Слой_2_1_">
	<rect x="481.9" y="0.4" fill="none" width="170.1" height="170.1"/>
	<path fill="#454444" d="M498.5,16.1v139.8h139.8V16.1H498.5z M587.6,55.4c-2.7-0.6-5.2-1-7.7-1c-2.4,0-4.2,0.6-5.2,1.7
		s-1.6,3.3-1.6,6.5v4.5h12.5v13.2h-12.5v50.2h-16.8V80.3H547V67.1h9.3v-4.8c0-5.3,0.6-9.3,1.7-11.9c1.1-2.6,3.2-4.8,6.3-6.4
		c3-1.7,6.9-2.5,11.5-2.5c4.8,0,9.4,0.7,14,2.1L587.6,55.4z"/>
</g>
</svg>
