<?xml version="1.0" encoding="utf-8"?>
<!-- Generator: Adobe Illustrator 18.1.1, SVG Export Plug-In . SVG Version: 6.00 Build 0)  -->
<svg version="1.1" id="Слой_1" xmlns="http://www.w3.org/2000/svg" xmlns:xlink="http://www.w3.org/1999/xlink" x="0px" y="0px"
	 viewBox="198.4 0 453.5 170.1" enable-background="new 198.4 0 453.5 170.1" xml:space="preserve">
<g id="Слой_2">
	<rect x="198.4" y="0.4" fill="none" width="170.1" height="170.1"/>
	<g>
		<path fill="#3693A6" d="M296.9,82.8c-4.2-1.2-8.5-2.1-12.7-3.2c-2.9-0.8-5.9-1.2-8.6-2.6c-2.7-1.4-4.2-3.6-4.1-6.6
			c0.1-3.1,1.9-5.2,4.7-6.3c3.5-1.5,7.2-1.6,11-0.9c5.4,0.9,8.9,3.7,9.7,9.4c0.1,0.7,0.5,0.6,1,0.6c1.5,0,3,0,4.4,0
			c1.2,0,2.5,0,3.7,0c1.8,0,1.9-0.1,1.7-1.9c0-0.1,0-0.2,0-0.3c-0.9-6.2-4.2-10.6-9.7-13.3c-7.3-3.6-15-4-22.9-2.1
			c-4.3,1.1-8,3.1-10.9,6.5c-4.3,5.1-4.6,13.3-0.5,18.4c2.6,3.2,6.2,4.9,10,6c3.4,0.9,6.8,1.7,10.2,2.6c3.2,0.8,6.5,1.5,9.7,2.7
			c2.6,0.9,4.4,2.6,5,5.4c0.8,4.1-1.1,7.9-5.1,9.5c-6.1,2.4-12.2,2.2-18.1-0.6c-3.9-1.8-5.8-5.2-6.1-9.5c0-0.8-0.3-1.1-1.1-1.1
			c-2.8,0-5.6,0-8.4,0c-1.4,0-1.5,0.1-1.4,1.5c0.8,8.5,5.2,14.2,13.1,17.3c5.1,2,10.4,2.4,15.8,2.1c4.8-0.2,9.4-1.3,13.6-3.7
			c7.7-4.3,10.2-12.7,7.8-19.6C306.6,87.5,302.4,84.3,296.9,82.8z"/>
		<path fill="#3693A6" d="M215.1,15.8v139.8h139.8V15.8H215.1z M326.2,123.9c-5.5,6.7-12.7,9.7-21.4,8.9c-3.7-0.3-7.1-1.6-10.3-3.5
			c-0.5-0.3-0.9-0.4-1.5-0.3c-9.2,1.6-18,0.6-26.4-3.5c-13.7-6.7-21.9-17.7-24.6-32.7c-0.9-5-0.7-10.1,0.3-15.1
			c0.1-0.7,0.1-1.3-0.3-1.9c-9.3-14.9-0.5-34.3,16.8-37c6-0.9,11.5,0.3,16.6,3.6c0.6,0.4,1.2,0.6,1.9,0.5c15.5-2.5,28.8,1.7,39.7,13
			c6.7,6.9,10.6,15.3,11.7,24.9c0.2,1.7,0.3,3.4,0.4,5c-0.1,3.2-0.4,6.3-1.1,9.4c-0.2,0.7-0.1,1.2,0.3,1.8
			C333.4,105.6,332.6,116.1,326.2,123.9z"/>
	</g>
	<rect x="481.9" y="0.4" fill="none" width="170.1" height="170.1"/>
	<g>
		<path fill="#454444" d="M580.4,82.8c-4.2-1.2-8.5-2.1-12.7-3.2c-2.9-0.8-5.9-1.2-8.6-2.6c-2.7-1.4-4.2-3.6-4.1-6.6
			c0.1-3.1,1.9-5.2,4.7-6.3c3.5-1.5,7.2-1.6,11-0.9c5.4,0.9,8.9,3.7,9.7,9.4c0.1,0.7,0.5,0.6,1,0.6c1.5,0,3,0,4.4,0
			c1.2,0,2.5,0,3.7,0c1.8,0,1.9-0.1,1.7-1.9c0-0.1,0-0.2,0-0.3c-0.9-6.2-4.2-10.6-9.7-13.3c-7.3-3.6-15-4-22.9-2.1
			c-4.3,1.1-8,3.1-10.9,6.5c-4.3,5.1-4.6,13.3-0.5,18.4c2.6,3.2,6.2,4.9,10,6c3.4,0.9,6.8,1.7,10.2,2.6c3.2,0.8,6.5,1.5,9.7,2.7
			c2.6,0.9,4.4,2.6,5,5.4c0.8,4.1-1.1,7.9-5.1,9.5c-6.1,2.4-12.2,2.2-18.1-0.6c-3.9-1.8-5.8-5.2-6.1-9.5c0-0.8-0.3-1.1-1.1-1.1
			c-2.8,0-5.6,0-8.4,0c-1.4,0-1.5,0.1-1.4,1.5c0.8,8.5,5.2,14.2,13.1,17.3c5.1,2,10.4,2.4,15.8,2.1c4.8-0.2,9.4-1.3,13.6-3.7
			c7.7-4.3,10.2-12.7,7.8-19.6C590.1,87.5,585.9,84.3,580.4,82.8z"/>
		<path fill="#454444" d="M498.6,15.8v139.8h139.8V15.8H498.6z M609.6,123.9c-5.5,6.7-12.7,9.7-21.4,8.9c-3.7-0.3-7.1-1.6-10.3-3.5
			c-0.5-0.3-0.9-0.4-1.5-0.3c-9.2,1.6-18,0.6-26.4-3.5c-13.7-6.7-21.9-17.7-24.6-32.7c-0.9-5-0.7-10.1,0.3-15.1
			c0.1-0.7,0.1-1.3-0.3-1.9c-9.3-14.9-0.5-34.3,16.8-37c6-0.9,11.5,0.3,16.6,3.6c0.6,0.4,1.2,0.6,1.9,0.5c15.5-2.5,28.8,1.7,39.7,13
			c6.7,6.9,10.6,15.3,11.7,24.9c0.2,1.7,0.3,3.4,0.4,5c-0.1,3.2-0.4,6.3-1.1,9.4c-0.2,0.7-0.1,1.2,0.3,1.8
			C616.8,105.6,616,116.1,609.6,123.9z"/>
	</g>
</g>
</svg>
