<?xml version="1.0" encoding="utf-8"?>
<!-- Generator: Adobe Illustrator 18.1.1, SVG Export Plug-In . SVG Version: 6.00 Build 0)  -->
<svg version="1.1" id="Слой_1" xmlns="http://www.w3.org/2000/svg" xmlns:xlink="http://www.w3.org/1999/xlink" x="0px" y="0px"
	 viewBox="198.4 0 453.5 170.1" enable-background="new 198.4 0 453.5 170.1" xml:space="preserve">
<g id="Слой_2">
	<g>
		<path fill="#3693A6" d="M288.9,76c3-0.4,5.4-1.4,7.1-3.2c1.7-1.8,2.6-4.1,2.6-7c0-2.8-0.7-5-2.2-6.7c-1.5-1.7-3.7-2.8-6.6-3.1
			c-1.7-0.2-6.7-0.3-15-0.3h-10.1v20.7h11.5C283,76.3,287.2,76.2,288.9,76z"/>
		<path fill="#3693A6" d="M294.4,92.4c-2.4-0.9-7.6-1.3-15.5-1.3h-14.2V115h16.2c6.3,0,10.3-0.2,12-0.5c2.6-0.5,4.7-1.7,6.4-3.6
			c1.6-1.9,2.5-4.4,2.5-7.6c0-2.7-0.6-5-1.9-6.8C298.6,94.6,296.7,93.3,294.4,92.4z"/>
		<path fill="#3693A6" d="M213.6,15.5v139.8h139.8V15.5H213.6z M317.1,116.1c-1.8,3.8-4.3,6.9-7.5,9.2c-3.2,2.3-7.1,3.7-11.8,4.2
			c-2.9,0.3-10,0.5-21.1,0.6h-29.5V40.7h34.7c6.9,0,12,0.3,15.4,0.9c3.4,0.6,6.4,1.8,9.1,3.7c2.7,1.9,4.9,4.4,6.7,7.5
			c1.8,3.1,2.7,6.6,2.7,10.5c0,4.2-1.1,8-3.3,11.5c-2.2,3.5-5.2,6.1-8.9,7.9c5.3,1.6,9.4,4.3,12.2,8.1c2.8,3.8,4.3,8.3,4.3,13.5
			C319.8,108.3,318.9,112.2,317.1,116.1z"/>
	</g>
	<rect x="198.4" y="0.4" fill="none" width="170.1" height="170.1"/>
</g>
<g id="Слой_2_1_">
	<g>
		<path fill="#454444" d="M572.3,76c3-0.4,5.4-1.4,7.1-3.2c1.7-1.8,2.6-4.1,2.6-7c0-2.8-0.7-5-2.2-6.7c-1.5-1.7-3.7-2.8-6.6-3.1
			c-1.7-0.2-6.7-0.3-15-0.3h-10.1v20.7h11.5C566.4,76.3,570.7,76.2,572.3,76z"/>
		<path fill="#454444" d="M577.8,92.4c-2.4-0.9-7.6-1.3-15.5-1.3h-14.2V115h16.2c6.3,0,10.3-0.2,12-0.5c2.6-0.5,4.7-1.7,6.4-3.6
			c1.6-1.9,2.5-4.4,2.5-7.6c0-2.7-0.6-5-1.9-6.8C582,94.6,580.2,93.3,577.8,92.4z"/>
		<path fill="#454444" d="M497.1,15.5v139.8h139.8V15.5H497.1z M600.6,116.1c-1.8,3.8-4.3,6.9-7.5,9.2c-3.2,2.3-7.1,3.7-11.8,4.2
			c-2.9,0.3-10,0.5-21.1,0.6h-29.6V40.7h34.7c6.9,0,12,0.3,15.4,0.9c3.4,0.6,6.4,1.8,9.1,3.7c2.7,1.9,4.9,4.4,6.7,7.5
			c1.8,3.1,2.7,6.6,2.7,10.5c0,4.2-1.1,8-3.3,11.5s-5.2,6.1-8.9,7.9c5.3,1.6,9.4,4.3,12.2,8.1c2.8,3.8,4.3,8.3,4.3,13.5
			C603.3,108.3,602.4,112.2,600.6,116.1z"/>
	</g>
	<rect x="481.9" y="0.4" fill="none" width="170.1" height="170.1"/>
</g>
</svg>
