<?xml version="1.0" standalone="no"?>
<!DOCTYPE svg PUBLIC "-//W3C//DTD SVG 1.1//EN" "http://www.w3.org/Graphics/SVG/1.1/DTD/svg11.dtd" >
<svg>
<metadata>
Created by FontForge 20090914 at Thu Mar 28 00:20:02 2013
 By www-data
&#194;&#169;1993 AG Fonts, Tilde Ltd. Created by Andrejs Grinbergs.
</metadata>
<defs>
<font id="AGLettericaCondensed-Roman" horiz-adv-x="500" >
  <font-face 
    font-family="AGLettericaCondensed"
    font-weight="400"
    font-stretch="normal"
    units-per-em="1000"
    panose-1="0 0 0 0 0 0 0 0 0 0"
    ascent="800"
    descent="-200"
    x-height="555.999"
    cap-height="750"
    bbox="-31 -215 1071 959"
    underline-thickness="58"
    underline-position="-61"
    unicode-range="U+0020-U+2122"
  />
<missing-glyph horiz-adv-x="800" 
d="M50 0v800h700v-800h-700zM700 50v700h-600v-700h600z" />
    <glyph glyph-name=".notdef" horiz-adv-x="800" 
d="M50 0v800h700v-800h-700zM700 50v700h-600v-700h600z" />
    <glyph glyph-name="space" unicode=" " horiz-adv-x="250" 
 />
    <glyph glyph-name="exclam" unicode="!" horiz-adv-x="333" 
d="M144 183l-23 337v230h91v-230l-23 -337h-45zM212 0h-91v100h91v-100z" />
    <glyph glyph-name="quotedbl" unicode="&#x22;" horiz-adv-x="250" 
d="M44 513v226h52v-226h-52zM155 513v226h52v-226h-52z" />
    <glyph glyph-name="numbersign" unicode="#" 
d="M33 0l79 254h-107l17 59h108l38 124h-109l17 59h109l79 254h55l-78 -254h88l77 254h56l-78 -254h111l-17 -59h-112l-38 -124h112l-15 -59h-115l-78 -254h-55l78 254h-87l-80 -254h-55zM186 313h87l38 124h-88z" />
    <glyph glyph-name="dollar" unicode="$" 
d="M268 326l-0.000976562 -264c40.667 0 69.334 10.167 86.001 30.5s25 50.833 25 91.5s-9 71 -27 91c-14.667 16.667 -42.667 33.667 -84 51zM225.999 62l0.00195312 280c-60 27.333 -102.333 52.333 -127 75c-38 34.667 -57 78.667 -57 132c0 58 16.667 106 50 144
s78 57 134 57v65h44v-65c59.333 0 103.666 -18.333 132.999 -55c27.333 -34 41 -82.333 41 -145h-81c0 29.333 -2 51.333 -6 66c-6.66699 24 -19.334 40.667 -38.001 50c-16 6 -32.333 9 -49 9v-255c58.667 -26.667 98 -46.667 118 -60c51.333 -34 77 -86.333 77 -157
c0 -67.333 -16.5 -120.5 -49.5 -159.5s-82.167 -58.5 -147.5 -58.5v-101h-42v101c-72 0 -123 23.333 -153 70c-24.667 38 -37 97 -37 177h80c0 -57.333 4.33301 -96.333 13 -117c14.667 -35.333 47 -53 97 -53zM226.001 436l-0.000976562 239.001
c-27.333 0 -49.666 -8.33301 -66.999 -25c-20.667 -20 -31 -49.667 -31 -89c0 -32.667 9 -58.667 27 -78c13.333 -14.667 37 -30.334 71 -47.001z" />
    <glyph glyph-name="percent" unicode="%" horiz-adv-x="833" 
d="M595 750l-332 -765h-54l335 765h51zM756 186c0 -66.667 -13 -115 -39 -145c-23.333 -27.333 -58.333 -41 -105 -41c-36 0 -65 14 -87 42c-26 33.333 -39 82.333 -39 147c0 52 9.66699 92.333 29 121c23.333 34.667 60 52 110 52c47.333 0 82 -18.333 104 -55
c18 -30 27 -70.333 27 -121zM621 56c27.333 0 46.333 13 57 39c7.33301 18 11 42.667 11 74c0 40.667 -2.66699 69.667 -8 87c-10 33.333 -30.333 50 -61 50c-28.667 0 -48 -16.333 -58 -49c-6 -20 -9 -49.333 -9 -88c0 -30.667 3.66699 -55 11 -73
c11.333 -26.667 30.333 -40 57 -40zM194 736c47.333 0 82 -18.6689 104 -56.002c18 -30.667 27 -71.667 27 -123c0 -67.333 -11 -114.666 -33 -141.999s-57.667 -41 -107 -41c-44.667 4 -76.667 18.333 -96 43c-22.667 28.667 -34 76.334 -34 143.001
c0 52.667 9.66699 93.667 29 123c23.333 35.333 60 53 110 53zM190 429.998c27.333 0 46.333 13 57 39c7.33301 18 11 42.667 11 74c0 40.667 -2.66699 69.667 -8 87c-10 33.333 -30.333 50 -61 50c-28.667 0 -48 -16.333 -58 -49c-6 -20 -9 -49.333 -9 -88
c0 -30.667 3.66699 -55 11 -73c11.333 -26.667 30.333 -40 57 -40z" />
    <glyph glyph-name="ampersand" unicode="&#x26;" horiz-adv-x="667" 
d="M428 127l-163 243c-36 -26 -61.333 -50 -76 -72c-18.667 -27.333 -28 -60.333 -28 -99c0 -44 13 -78.667 39 -104s60.667 -38 104 -38c24 0 46.167 6.16699 66.5 18.5s39.5 29.5 57.5 51.5zM292 469c26.667 20 46 38.332 58 54.999c16.667 23.333 25 49 25 77
c0 22.667 -6.33301 42 -19 58s-30 24 -52 24c-20.667 0 -37.5 -7.83301 -50.5 -23.5s-19.5 -34.167 -19.5 -55.5s6.33301 -45 19 -71c8.66699 -17.333 21.667 -38.666 39 -63.999zM328 413.999l144 -210c8 22.667 14.833 46.5 20.5 71.5s8.5 47.833 8.5 68.5h74
c0 -74.667 -18 -143.667 -54 -207l99 -139h-101l-47 69c-46 -56.667 -105 -85 -177 -85c-68 0 -121.667 19.333 -161 58s-59 92 -59 160c0 52.667 14.333 97.667 43 135c22 28 59 58.667 111 92c-22.667 29.333 -39.334 55.333 -50.001 78c-14 29.333 -21 59.333 -21 90
c0 43.333 13 80 39 110s60.333 45 103 45c46 0 83.667 -13.333 113 -40s44 -63 44 -109c0 -36.667 -13.667 -72.667 -41 -108c-21.333 -28 -50.666 -54.333 -87.999 -79z" />
    <glyph glyph-name="quotesingle" unicode="'" horiz-adv-x="250" 
d="M99 513v226h52v-226h-52z" />
    <glyph glyph-name="parenleft" unicode="(" horiz-adv-x="333" 
d="M231 750h52.998c-42 -87.333 -68.333 -146.666 -79 -177.999c-30 -90 -45 -190 -45 -300c0 -93.333 9.83301 -178 29.5 -254s52.834 -153.667 99.501 -233h-58c-49.333 80 -86.333 155.667 -111 227c-29.333 84 -44 166.667 -44 248c0 93.333 13 178.666 39 255.999
c22.667 66.667 61.334 144.667 116.001 234z" />
    <glyph glyph-name="parenright" unicode=")" horiz-adv-x="333" 
d="M102 -215h-52.998c42 87.333 68.333 146.666 79 177.999c30 90 45 190 45 300c0 93.333 -9.83301 178 -29.5 254s-52.834 153.667 -99.501 233h58c49.333 -80 86.333 -155.667 111 -227c29.333 -84 44 -166.667 44 -248c0 -93.333 -13 -178.666 -39 -255.999
c-22.667 -66.667 -61.334 -144.667 -116.001 -234z" />
    <glyph glyph-name="asterisk" unicode="*" 
d="M113 669l113 -44v125h52v-122l111 41l16 -48l-114 -38l76 -96l-41 -32l-78 99l-72 -94l-43 27l75 93l-112 45z" />
    <glyph glyph-name="plus" unicode="+" 
d="M215 289v216h70v-216h172v-70h-172v-219h-70v219h-171v70h171z" />
    <glyph glyph-name="comma" unicode="," horiz-adv-x="250" 
d="M129 0l-49.001 0.00195312v100h91v-34v-21c0 -24 -1 -45 -3 -63c0 -22 -3.83301 -42.5 -11.5 -61.5s-20.167 -34.5 -37.5 -46.5c-4 -3.33301 -9.66699 -6.83301 -17 -10.5s-14.666 -6.83398 -21.999 -9.50098v45c9.33301 1.33301 17 5.66602 23 12.999
c10 10.667 16.833 23.5 20.5 38.5s5.5 31.5 5.5 49.5z" />
    <glyph glyph-name="hyphen" unicode="-" horiz-adv-x="333" 
d="M288 275h-243v83h243v-83z" />
    <glyph glyph-name="period" unicode="." horiz-adv-x="250" 
d="M171 0h-91v100h91v-100z" />
    <glyph glyph-name="slash" unicode="/" horiz-adv-x="278" 
d="M48 -27h-61l243 777h61z" />
    <glyph glyph-name="zero" unicode="0" 
d="M132 382c0 -15.333 -0.166992 -30.668 -0.5 -46.001s-0.5 -31 -0.5 -47c0 -73.333 6 -126 18 -158c18 -47.333 51.667 -71 101 -71c64 0 101.667 52 113 156c4 36.667 6 92 6 166v47c0 72.667 -5.66699 126.667 -17 162c-18 56 -52 84 -102 84
c-48 0 -81.333 -30.333 -100 -91c-12 -39.333 -18 -92.666 -18 -159.999v-42zM250 -15.002c-61.333 0 -108.668 23.3311 -142.001 69.998c-26.667 37.333 -44.667 89 -54 155c-5.33301 38 -8 91 -8 159s3 121.667 9 161c10 65.333 28.333 116 55 152
c33.333 45.333 80 68 140 68c64 0 112.667 -22.333 146 -67c26.667 -35.333 44 -85.666 52 -150.999c4.66699 -37.333 7 -91.666 7 -162.999c0 -76.667 -3 -135 -9 -175c-9.33301 -64 -27.666 -113 -54.999 -147c-32.667 -41.333 -79.667 -62 -141 -62z" />
    <glyph glyph-name="one" unicode="1" 
d="M234 0v546h-160v65c58 0 99.333 8.33301 124 25c30 20.667 48 58.667 54 114h65v-750h-83z" />
    <glyph glyph-name="two" unicode="2" 
d="M319 307l-134.998 -122.997c-18.667 -16.667 -32.334 -33.334 -41.001 -50.001s-13 -36.334 -13 -59.001h317v-75h-403c0 30.667 2.16699 58.5 6.5 83.5s12.166 51.167 23.499 78.5c4.66699 12 13 25 25 39c8.66699 10.667 20 22.667 34 36l143 138
c31.333 30 52.166 55.5 62.499 76.5s15.5 51.5 15.5 91.5c0 41.333 -7.66699 72.666 -23 93.999c-18 25.333 -47.333 38 -88 38c-45.333 0 -76.333 -20 -93 -60c-11.333 -27.333 -17 -67.333 -17 -120h-83v46c0 28.667 3.83301 55.5 11.5 80.5s19.834 48.167 36.501 69.5
c20 21.333 42.667 36.5 68 45.5s52.333 13.5 81 13.5c62 0 109.667 -19 143 -57s50 -88.667 50 -152c0 -52 -10.333 -96 -31 -132c-16 -28 -46 -62 -90 -102z" />
    <glyph glyph-name="three" unicode="3" 
d="M188 349l0.000976562 75.002h26c40.667 0 69.667 6 87 18c28 19.333 42 56 42 110c0 40 -7 69.667 -21 89c-16.667 22.667 -44.667 34 -84 34c-43.333 0 -73 -14.667 -89 -44c-12 -22 -18 -56.333 -18 -103h-79c0 67.333 14.333 120 43 158c32 42.667 80.333 64 145 64
c56 0 101.167 -16.833 135.5 -50.5s51.5 -78.834 51.5 -135.501c0 -43.333 -7.33301 -78 -22 -104c-16.667 -29.333 -44.334 -51 -83.001 -65c42 -10 73.333 -30.333 94 -61s31 -68.334 31 -113.001c0 -73.333 -16.333 -130 -49 -170c-36 -44 -90 -66 -162 -66
c-70.667 0 -122.334 22 -155.001 66c-28.667 38.667 -43 95 -43 169h82c-0.666992 -4 -1 -8.5 -1 -13.5v-11.5c0 -40 8.66699 -71.333 26 -94c20.667 -27.333 53.334 -41 98.001 -41c39.333 0 69.333 12.333 90 37s31 57 31 97c0 62.667 -12.833 104.167 -38.5 124.5
s-71.5 30.5 -137.5 30.5z" />
    <glyph glyph-name="four" unicode="4" 
d="M301 620l-207 -358h207v358zM28 264l280 486h76v-488h67v-75h-67v-187h-83v187h-273v77z" />
    <glyph glyph-name="five" unicode="5" 
d="M43 196h86.001c0 -44 7.66699 -76.667 23 -98c18 -25.333 47.333 -38 88 -38c41.333 0 72.333 18.333 93 55c18 32 27 74 27 126c0 52.667 -7.33301 92.667 -22 120c-20 37.333 -54.333 56 -103 56c-50 0 -85 -22.667 -105 -68h-74l44 386h319v-75h-252l-33 -222
c17.333 18 35.666 31.5 54.999 40.5s41.333 13.5 66 13.5c64.667 0 113.667 -24.333 147 -73c29.333 -42.667 44 -97.667 44 -165c0 -76.667 -14.333 -138 -43 -184c-35.333 -56.667 -89 -85 -161 -85c-65.333 0 -114.833 18.5 -148.5 55.5s-50.5 88.833 -50.5 155.5z" />
    <glyph glyph-name="six" unicode="6" 
d="M372 242c0 47.333 -7.99902 83.999 -23.999 109.999c-20 32.667 -52.333 49 -97 49s-76.334 -16.333 -95.001 -49c-14 -24 -21 -58 -21 -102c0 -67.333 11 -116.666 33 -147.999c20 -28 49.667 -42 89 -42c44 0 75.333 20.667 94 62c14 30.667 21 70.667 21 120z
M259.001 -15.001c-89.333 0 -150.333 38.668 -183 116.001c-22 51.333 -33 128.666 -33 231.999c0 76 3 135 9 177c10 71.333 29.667 126.666 59 165.999c36.667 49.333 88 74 154 74c54.667 0 97.5 -16.167 128.5 -48.5s46.5 -75.833 46.5 -130.5h-85
c0 34.667 -8 60.667 -24 78s-41.333 26 -76 26c-43.333 0 -75.833 -23.5 -97.5 -70.5s-32.5 -120.5 -32.5 -220.5c14.667 30.667 34.5 53.667 59.5 69s51.833 23 80.5 23c63.333 0 112.333 -23 147 -69c30.667 -41.333 46 -94.666 46 -159.999
c0 -79.333 -18.5 -142.833 -55.5 -190.5s-84.833 -71.5 -143.5 -71.5z" />
    <glyph glyph-name="seven" unicode="7" 
d="M44 660v75.001h412v-69c-71.333 -96.667 -127.833 -201.334 -169.5 -314.001s-67.5 -230 -77.5 -352h-93c14.667 118.667 45 234 91 346s106 216.667 180 314h-343z" />
    <glyph glyph-name="eight" unicode="8" 
d="M132 218c0 -47.333 8.33398 -84.002 25.001 -110.002c20.667 -32 53.667 -48 99 -48c34.667 0 62 13.833 82 41.5s30 66.834 30 117.501c0 42.667 -8.66699 76.334 -26 101.001c-20.667 29.333 -51.334 44 -92.001 44s-70.5 -13.833 -89.5 -41.5
s-28.5 -62.5 -28.5 -104.5zM155.001 561.998c0 -38.667 8 -68.832 24 -90.499s41 -32.5 75 -32.5s58.667 11.667 74 35c12.667 19.333 19 47.666 19 84.999c0 36 -6.33301 63.333 -19 82c-15.333 22.667 -40.333 34 -75 34c-35.333 0 -60.5 -9.66699 -75.5 -29
s-22.5 -47.333 -22.5 -84zM188.001 404c-42 8 -72.998 27.3301 -92.998 57.9971c-17.333 26.667 -26 63 -26 109c0 48.667 14 89 42 121c34 38.667 83.333 58 148 58c53.333 0 95.666 -15.667 126.999 -47s47 -77 47 -137c0 -41.333 -8.66699 -75.666 -26 -102.999
c-19.333 -30.667 -48.333 -49.667 -87 -57c44 -8.66699 78 -30.667 102 -66c21.333 -32 32 -70 32 -114c0 -71.333 -15 -127.666 -45 -168.999c-34.667 -48 -86.334 -72 -155.001 -72c-68 0 -119.667 20 -155 60s-53 96.667 -53 170c0 56 15.667 101.333 47 136
c26 28.667 57.667 46.334 95 53.001z" />
    <glyph glyph-name="nine" unicode="9" 
d="M368 490c0 49.333 -8 89.999 -24 121.999c-21.333 42 -54.333 63 -99 63c-42.667 0 -73.667 -19 -93 -57c-15.333 -29.333 -23 -67.666 -23 -114.999c0 -48 7.33301 -86 22 -114c19.333 -36.667 51 -55 95 -55c43.333 0 75.333 16 96 48c17.333 26.667 26 62.667 26 108z
M242 749.999c89.333 0 150.333 -38.668 183 -116.001c22 -51.333 33 -128.666 33 -231.999c0 -76 -3 -135 -9 -177c-10 -71.333 -29.667 -126.666 -59 -165.999c-36.667 -49.333 -88 -74 -154 -74c-54.667 0 -97.5 16.167 -128.5 48.5s-46.5 75.833 -46.5 130.5h85
c0 -34.667 8 -60.667 24 -78s41.333 -26 76 -26c43.333 0 75.833 23.5 97.5 70.5s32.5 120.5 32.5 220.5c-14.667 -30.667 -34.5 -53.667 -59.5 -69s-51.833 -23 -80.5 -23c-63.333 0 -112.333 23 -147 69c-30.667 41.333 -46 94.666 -46 159.999
c0 79.333 18.5 142.833 55.5 190.5s84.833 71.5 143.5 71.5z" />
    <glyph glyph-name="colon" unicode=":" horiz-adv-x="250" 
d="M171 0h-91v100h91v-100zM171 447h-91v100h91v-100z" />
    <glyph glyph-name="semicolon" unicode=";" horiz-adv-x="250" 
d="M80 0l-0.000976562 100.002h91v-34v-21c0 -24 -1 -45 -3 -63c0 -22 -3.83301 -42.5 -11.5 -61.5s-20.167 -34.5 -37.5 -46.5c-4 -3.33301 -9.66699 -6.83301 -17 -10.5s-14.666 -6.83398 -21.999 -9.50098v45c9.33301 1.33301 17 5.66602 23 12.999
c10 10.667 16.833 23.5 20.5 38.5s5.5 31.5 5.5 49.5h-49zM170.999 447.002h-91v100h91v-100z" />
    <glyph glyph-name="less" unicode="&#x3c;" 
d="M120 254l339 -191v-73l-417 232v64l417 232v-73z" />
    <glyph glyph-name="equal" unicode="=" 
d="M457 384v-70h-413v70h413zM457 194v-70h-413v70h413z" />
    <glyph glyph-name="greater" unicode="&#x3e;" 
d="M42 63l339 191l-339 191v73l417 -232v-64l-417 -232v73z" />
    <glyph glyph-name="question" unicode="?" 
d="M287 172l-88.998 -0.00195312c0 52.667 4.33301 90.334 13 113.001s30.667 53.667 66 93l39 45c15.333 19.333 26.333 34.666 33 45.999c14.667 25.333 22 54.333 22 87c0 34 -7.33301 62 -22 84c-18 26.667 -44.333 40 -79 40c-48 0 -81.667 -17.333 -101 -52
c-14.667 -26 -22 -64 -22 -114h-87c0 68 14.333 122.333 43 163c34 48.667 85.667 73 155 73c62 0 111.5 -16.833 148.5 -50.5s55.5 -79.5 55.5 -137.5c0 -55.333 -16.333 -104.666 -49 -147.999l-105 -123c-4 -7.33301 -7.33301 -13.166 -10 -17.499
s-4.83398 -10 -6.50098 -17s-2.83398 -14.833 -3.50098 -23.5s-1 -18 -1 -28v-33zM289.002 -0.00195312h-91v100h91v-100z" />
    <glyph glyph-name="at" unicode="@" horiz-adv-x="800" 
d="M431 536c-48.667 0 -90.999 -28.668 -126.999 -86.001c-31.333 -50 -47 -101.667 -47 -155c0 -26 7 -48.5 21 -67.5s33 -28.5 57 -28.5s47 10.333 69 31c18 16.667 33.667 38.167 47 64.5s25.166 54.833 35.499 85.5s15.5 58.334 15.5 83.001
c0 20 -6.5 37.167 -19.5 51.5s-30.167 21.5 -51.5 21.5zM544.001 528.999l13.9961 46.9971h69l-103 -305c-2 -6 -4.66699 -14.833 -8 -26.5s-5 -20.167 -5 -25.5c0 -19.333 10 -29 30 -29c20.667 0 43.334 9 68.001 27c21.333 15.333 39 33.333 53 54
c34 48.667 51 103.334 51 164.001c0 78.667 -30.333 143.334 -91 194.001c-57.333 48 -126 72 -206 72c-92 0 -169.833 -33.167 -233.5 -99.5s-95.5 -145.5 -95.5 -237.5c0 -90.667 32.667 -168.334 98 -233.001s143 -97 233 -97c52.667 0 102.834 12.333 150.501 37
s86.5 59 116.5 103h60c-31.333 -57.333 -77 -103.166 -137 -137.499s-123.333 -51.5 -190 -51.5c-107.333 0 -197.833 37.5 -271.5 112.5s-110.5 166.167 -110.5 273.5c0 105.333 37.5 194.833 112.5 268.5s165.167 110.5 270.5 110.5c90.667 0 169.667 -29 237 -87
c72 -62 108 -139.333 108 -232c0 -32 -5.33301 -63.833 -16 -95.5s-25.667 -61.167 -45 -88.5c-23.333 -32.667 -48.333 -58.334 -75 -77.001c-32 -22 -65.667 -33 -101 -33c-19.333 0 -37.166 4.33301 -53.499 13s-27.5 22 -33.5 40
c-14.667 -15.333 -33 -27.666 -55 -36.999s-43.667 -14 -65 -14c-42 0 -75.833 14.5 -101.5 43.5s-38.5 64.833 -38.5 107.5c0 72.667 23 140.334 69 203.001c50.667 68.667 111 103 181 103c24.667 0 47.334 -5.83301 68.001 -17.5s36 -28.167 46 -49.5z" />
    <glyph glyph-name="A" unicode="A" horiz-adv-x="556" 
d="M11 0l214 750h110l211 -750h-92l-59 216h-237l-55 -216h-92zM376 291l-97 399l-101 -399h198z" />
    <glyph glyph-name="B" unicode="B" horiz-adv-x="556" 
d="M163 75h130.999c44.667 0 76.334 11 95.001 33s28 58 28 108c0 64.667 -19.333 106 -58 124c-20 9.33301 -60.667 14 -122 14h-74v-279zM162.999 675v-246h74c57.333 0 96.333 6.66699 117 20c28 18 42 54 42 108c0 46.667 -10.833 78 -32.5 94s-64.167 24 -127.5 24h-73
zM277.999 0l-198.001 0.00195312v750h214c65.333 0 114 -17 146 -51c30 -31.333 45 -76.333 45 -135c0 -43.333 -7.66699 -77.333 -23 -102c-17.333 -28 -47 -49 -89 -63c46.667 -6.66699 80.667 -26.334 102 -59.001c18.667 -28.667 28 -68.334 28 -119.001
c0 -73.333 -19.167 -128.5 -57.5 -165.5s-94.166 -55.5 -167.499 -55.5z" />
    <glyph glyph-name="C" unicode="C" horiz-adv-x="556" 
d="M503 525l-82.999 -0.00195312c0 50 -9.33301 88.667 -28 116c-22.667 32.667 -58.334 49 -107.001 49c-62.667 0 -105 -38.333 -127 -115c-12.667 -43.333 -19 -106.333 -19 -189c0 -92 5.33301 -159.333 16 -202c21.333 -84.667 64.666 -127 129.999 -127
c44.667 0 77.334 16.667 98.001 50c15.333 24.667 26 62.334 32 113.001l5 51h83l-4 -46c0 -34 -3 -62.667 -9 -86s-17.667 -47.666 -35 -72.999c-20 -27.333 -43.333 -48.166 -70 -62.499s-57.667 -21.5 -93 -21.5c-71.333 0 -126 21.333 -164 64
c-31.333 35.333 -52.666 86.666 -63.999 153.999c-7.33301 44.667 -11 106 -11 184c0 70 4.66699 127.667 14 173c13.333 64 35.666 113 66.999 147c38 40.667 90.333 61 157 61c68.667 0 121.667 -23 159 -69c35.333 -43.333 53 -100.333 53 -171z" />
    <glyph glyph-name="D" unicode="D" horiz-adv-x="611" 
d="M303 0h-221v750h206c82 0 143.667 -23 185 -69c50 -55.333 75 -157.333 75 -306c0 -110 -15.333 -195.333 -46 -256c-40 -79.333 -106.333 -119 -199 -119zM165 675l-0.000976562 -600h133c60.667 0 103.167 24 127.5 72s36.5 129 36.5 243
c0 95.333 -10.333 164.333 -31 207c-25.333 52 -69.666 78 -132.999 78h-133z" />
    <glyph glyph-name="E" unicode="E" 
d="M451 0h-377v750h375v-75h-292v-248h274v-75h-274v-277h294v-75z" />
    <glyph glyph-name="F" unicode="F" horiz-adv-x="444" 
d="M157 0h-83v750h352v-75h-269v-246h250v-75h-250v-354z" />
    <glyph glyph-name="G" unicode="G" horiz-adv-x="611" 
d="M532 385v-391.002h-64v117c-11.333 -41.333 -32.666 -73.166 -63.999 -95.499s-68 -33.5 -110 -33.5c-68.667 0 -122.334 21.333 -161.001 64c-32 35.333 -54 86 -66 152c-8.66699 47.333 -13 108 -13 182c0 145.333 24.333 248.333 73 309c40.667 50.667 99 76 175 76
c70 0 124.667 -21 164 -63s59 -98.667 59 -170h-84c0 48.667 -10.333 86.334 -31 113.001c-23.333 30 -58 45 -104 45c-50.667 0 -89.334 -17.333 -116.001 -52c-21.333 -27.333 -35.666 -68 -42.999 -122c-4.66699 -33.333 -7 -79.666 -7 -138.999
c0 -96 5 -163.333 15 -202c20.667 -78.667 63 -118 127 -118c53.333 0 93.333 16 120 48c31.333 37.333 47 105.666 47 204.999h-167v75h250z" />
    <glyph glyph-name="H" unicode="H" horiz-adv-x="611" 
d="M162 0h-83v750h83v-313h287v313h83v-750h-83v362h-287v-362z" />
    <glyph glyph-name="I" unicode="I" horiz-adv-x="278" 
d="M181 0h-83v750h83v-750z" />
    <glyph glyph-name="J" unicode="J" horiz-adv-x="444" 
d="M22 235l83 -0.000976562v-44c0 -43.333 4 -73.666 12 -90.999c12 -26.667 37 -40 75 -40s64 13.333 78 40c10 18.667 15 49 15 91v559h83v-565c0 -74 -16.333 -127 -49 -159c-28 -27.333 -70.667 -41 -128 -41c-32 0 -59.333 5 -82 15c-26.667 12 -47 30.667 -61 56
c-10.667 20 -17.667 42 -21 66s-5 50 -5 78v35z" />
    <glyph glyph-name="K" unicode="K" horiz-adv-x="556" 
d="M163 0h-84v750h83v-385l273 385h104l-239 -314l246 -436h-102l-203 362l-78 -102v-260z" />
    <glyph glyph-name="L" unicode="L" 
d="M472 0h-389v750h83v-675h306v-75z" />
    <glyph glyph-name="M" unicode="M" horiz-adv-x="778" 
d="M407 166l149 584h146v-750h-83v618v95l-25 -101l-157 -612h-99l-157 621l-22 92v-97v-616h-83v750h147l147 -585c5.33301 -22 9.33301 -40.5 12 -55.5s4 -33.5 4 -55.5c3.33301 18.667 5.66602 32.667 6.99902 42c4.66699 26.667 9.33398 50 14.001 70z" />
    <glyph glyph-name="N" unicode="N" horiz-adv-x="611" 
d="M451 138v612h83v-750h-136l-210 600c-6.66699 18.667 -12 36.167 -16 52.5s-8 36.5 -12 60.5v-115v-598h-83v750h135l213 -614c2 -5.33301 6 -17.333 12 -36s10.667 -34 14 -46v84z" />
    <glyph glyph-name="O" unicode="O" horiz-adv-x="611" 
d="M59 391c0 144 23.666 244.333 70.999 301c40.667 48.667 100 73 178 73c76.667 0 134.667 -24 174 -72c47.333 -57.333 71 -158 71 -302c0 -82.667 -5 -148.667 -15 -198c-13.333 -66.667 -36.666 -117 -69.999 -151c-38.667 -40 -92.667 -60 -162 -60
c-68.667 0 -122.334 19.667 -161.001 59c-33.333 34 -56.666 84.333 -69.999 151c-10.667 52.667 -16 119 -16 199zM466.999 389c0 94 -10.666 164.998 -31.999 212.998c-26 58.667 -69.667 88 -131 88c-58.667 0 -101 -29.333 -127 -88
c-21.333 -48.667 -32 -119.667 -32 -213c0 -119.333 9.33301 -201.666 28 -246.999c23.333 -56.667 67.666 -85 132.999 -85c64.667 0 108.667 28 132 84c19.333 46.667 29 129.334 29 248.001z" />
    <glyph glyph-name="P" unicode="P" horiz-adv-x="556" 
d="M169 675l-0.000976562 -282h81c64.667 0 109.334 8 134.001 24c32.667 21.333 49 62 49 122c0 55.333 -17 93 -51 113c-26 15.333 -68.333 23 -127 23h-86zM168.999 0h-82.999v750h197c48 0 86.333 -4.66699 115 -14c23.333 -7.33301 43.333 -19 60 -35
c20.667 -19.333 36 -42.833 46 -70.5s15 -57.5 15 -89.5c0 -46.667 -7.33301 -86 -22 -118c-17.333 -38 -45.333 -65.667 -84 -83c-25.333 -10.667 -58.833 -17 -100.5 -19s-72.834 -3 -93.501 -3h-50v-318z" />
    <glyph glyph-name="Q" unicode="Q" horiz-adv-x="611" 
d="M496 90l86 -72.001l-42 -52l-84 70c-16 -16 -38 -29 -66 -39s-56 -15 -84 -15c-68.667 0 -122.334 19.667 -161.001 59c-33.333 34 -56.666 84.333 -69.999 151c-10.667 52.667 -16 119 -16 199c0 144 23.333 244.333 70 301c40 48.667 98.333 73 175 73
c70 0 124.667 -19.333 164 -58c32.667 -32 56 -79.333 70 -142c10.667 -48 16 -106 16 -174c0 -51.333 -3 -99.666 -9 -144.999c-10 -74.667 -26.333 -126.667 -49 -156zM394 84.999l-74.001 59.001l44 55l70 -56c8 14 15.667 43.5 23 88.5s11 87.167 11 126.5
c0 118 -9.66699 200.333 -29 247c-23.333 56.667 -67.666 85 -132.999 85c-64.667 0 -108.667 -28 -132 -84c-19.333 -46.667 -29 -129.334 -29 -248.001c0 -94.667 10.333 -165.667 31 -213c25.333 -58.667 68 -88 128 -88c18.667 0 34.5 1.83301 47.5 5.5
s27.167 11.167 42.5 22.5z" />
    <glyph glyph-name="R" unicode="R" horiz-adv-x="611" 
d="M169 675v-270h131c36 0 65 6.33301 87 19c38.667 22 58 61.667 58 119c0 56 -19.333 94 -58 114c-23.333 12 -57 18 -101 18h-117zM169 330l-0.000976562 -330h-83v750h193c85.333 0 147 -14 185 -42c44.667 -32.667 67 -90 67 -172c0 -44 -13 -80.667 -39 -110
s-61 -47 -105 -53c48 -5.33301 80.667 -17.5 98 -36.5s29 -54.167 35 -105.5c0 -24.667 1.33301 -49.5 4 -74.5s6.66699 -55.833 12 -92.5c2.66699 -12.667 5.33398 -22 8.00098 -28c5.33301 -12.667 12.333 -19 21 -19v-17h-97c-8.66699 22.667 -15.167 52.167 -19.5 88.5
s-6.5 70.5 -6.5 102.5c0 42 -9 74.667 -27 98c-21.333 27.333 -55 41 -101 41h-145z" />
    <glyph glyph-name="S" unicode="S" horiz-adv-x="556" 
d="M483 553l-83.001 0.00292969c0 42 -9.33301 74.667 -28 98c-20.667 26 -51 39 -91 39c-53.333 0 -90.666 -15 -111.999 -45c-14.667 -20.667 -22 -50.334 -22 -89.001c0 -50 23.667 -84 71 -102l119 -45c68 -25.333 113.667 -53 137 -83
c20.667 -26.667 31 -66.334 31 -119.001c0 -71.333 -20.667 -126.666 -62 -165.999s-98.333 -59 -171 -59c-45.333 0 -83.333 7.33301 -114 22c-40.667 19.333 -71 51.666 -91 96.999c-7.33301 16 -11.833 35.333 -13.5 58s-2.5 49 -2.5 79h83c0 -62.667 8 -106.667 24 -132
c20.667 -32.667 60 -49 118 -49c44 0 78.833 11 104.5 33s38.5 54.667 38.5 98c0 59.333 -16.667 98 -50 116c-2 1.33301 -26 10.666 -72 27.999c-32 12 -56.667 21 -74 27c-31.333 11.333 -55.666 21.666 -72.999 30.999c-33.333 17.333 -56.5 39.833 -69.5 67.5
s-19.5 61.834 -19.5 102.501c0 62 19.333 111.667 58 149s89 56 151 56c69.333 0 122.166 -17.833 158.499 -53.5s54.5 -88.5 54.5 -158.5z" />
    <glyph glyph-name="T" unicode="T" 
d="M15 675v75h471v-75h-194v-675h-83v675h-194z" />
    <glyph glyph-name="U" unicode="U" horiz-adv-x="611" 
d="M81 181l0.000976562 569h83v-539c0 -42.667 7 -75.667 21 -99c22 -36.667 62.333 -55 121 -55s99 18.333 121 55c14 23.333 21 56.333 21 99v539h83v-569c0 -66 -19.833 -115.667 -59.5 -149s-94.834 -50 -165.501 -50c-70 0 -124.333 16.333 -163 49
c-41.333 34.667 -62 84.667 -62 150z" />
    <glyph glyph-name="V" unicode="V" horiz-adv-x="556" 
d="M453 750h92l-216 -750h-103l-215 750h92l173 -690z" />
    <glyph glyph-name="W" unicode="W" horiz-adv-x="833" 
d="M389 509l-108.998 -508.999h-103l-160 750h92l98 -517c4 -24 8 -50.333 12 -79s7.33301 -60 10 -94l13 94c3.33301 24 7.66602 48.333 12.999 73l110 523h103l99 -517c8 -42.667 15.333 -100.334 22 -173.001l13 94c3.33301 24 7.66602 48.333 12.999 73l109 523h92
l-176 -750h-103l-100 509c-8 40.667 -13 66.667 -15 78c-4.66699 31.333 -7 65.666 -7 102.999l-12 -96c-4 -31.333 -8.66699 -59.666 -14 -84.999z" />
    <glyph glyph-name="X" unicode="X" horiz-adv-x="556" 
d="M17 0l213 385l-207 365h98l157 -293l157 293h98l-206 -365l212 -385h-102l-159 314l-162 -314h-99z" />
    <glyph glyph-name="Y" unicode="Y" horiz-adv-x="556" 
d="M103 750l175 -376l176 376h92l-227 -459v-291h-83v291l-225 459h92z" />
    <glyph glyph-name="Z" unicode="Z" 
d="M473 0h-445v72l354 603h-345v75h431v-72l-354 -603h359v-75z" />
    <glyph glyph-name="bracketleft" unicode="[" horiz-adv-x="333" 
d="M275 -209h-175v959h175v-60h-97v-837h97v-62z" />
    <glyph glyph-name="backslash" unicode="\" horiz-adv-x="250" 
d="M223 0l-254 750h58l254 -750h-58z" />
    <glyph glyph-name="bracketright" unicode="]" horiz-adv-x="333" 
d="M233 -209h-175v62h97v837h-97v60h175v-959z" />
    <glyph glyph-name="asciicircum" unicode="^" 
d="M225 750h49l157 -417h-54l-128 338l-126 -338h-53z" />
    <glyph glyph-name="underscore" unicode="_" 
d="M500 -119h-500v58h500v-58z" />
    <glyph glyph-name="grave" unicode="`" horiz-adv-x="333" 
d="M35 765h109l89 -141h-67z" />
    <glyph glyph-name="a" unicode="a" horiz-adv-x="444" 
d="M287 165v135.002c-16 -9.33301 -35.5 -19.333 -58.5 -30l-63 -29c-19 -8.66699 -32.5 -21.834 -40.5 -39.501s-12 -36.834 -12 -57.501c0 -30.667 5.5 -53.667 16.5 -69s31.5 -23 61.5 -23c22 0 41.667 7.33301 59 22c24.667 20.667 37 51 37 91zM417 58.002
l0.000976562 -58.0029l-18 -4c-36.667 0 -60.667 3.66699 -72 11c-14.667 10 -24 32.667 -28 68c-10.667 -25.333 -27.667 -46.666 -51 -63.999s-48 -26 -74 -26c-53.333 0 -90.5 13.667 -111.5 41s-31.5 68 -31.5 122c0 32.667 6.66699 60.334 20 83.001s33.333 40 60 52
c1.33301 0.666992 41.666 17 120.999 49c26.667 10.667 42 17.667 46 21c7.33301 6 11.666 12.833 12.999 20.5s2 22.167 2 43.5c0 31.333 -6.66699 53.666 -20 66.999s-36 20 -68 20c-33.333 0 -55.166 -7.33301 -65.499 -22s-15.5 -40 -15.5 -76h-71
c0 56.667 13.5 98.334 40.5 125.001s68.5 40 124.5 40c62 0 105 -18.333 129 -55c14.667 -22 22 -50 22 -84v-12v-319c0 -12 0.666992 -21.167 2 -27.5s5.33301 -11.166 12 -14.499c4 -1.33301 9.66699 -2 17 -2c8 0 13.667 0.333008 17 1z" />
    <glyph glyph-name="b" unicode="b" 
d="M149 264c0 -63.333 4.33398 -108.667 13.001 -136c16 -50.667 48.667 -76 98 -76c39.333 0 66.666 19.333 81.999 58s23 98 23 178c0 57.333 -5 102.333 -15 135c-16.667 54 -47 81 -91 81c-50.667 0 -83.667 -29.667 -99 -89c-7.33301 -28.667 -11 -79 -11 -151z
M147.001 -0.000976562l-72.0029 0.000976562v750h79v-251c16.667 25.333 34.334 43.666 53.001 54.999s40.334 17 65.001 17c64 0 110.667 -28.333 140 -85c23.333 -44.667 35 -102 35 -172c0 -98.667 -9.66699 -173.334 -29 -224.001c-26.667 -70 -74 -105 -142 -105
c-26.667 0 -49.667 5.33301 -69 16c-23.333 12.667 -42.666 34.334 -57.999 65.001z" />
    <glyph glyph-name="c" unicode="c" horiz-adv-x="444" 
d="M235 504c-49.333 0 -81.665 -31.665 -96.998 -94.998c-8 -32.667 -12 -84.334 -12 -155.001c0 -55.333 5 -98 15 -128c16.667 -49.333 47 -74 91 -74c38.667 0 65.667 15 81 45c11.333 22 17 54.333 17 97h75c0 -60 -12.333 -108.333 -37 -145
c-28.667 -42.667 -72 -64 -130 -64c-77.333 0 -131 29.667 -161 89c-22 43.333 -33 109 -33 197c0 114 18.667 194.333 56 241c31.333 39.333 76.666 59 135.999 59c53.333 0 94.666 -18.667 123.999 -56c27.333 -34.667 41 -79.334 41 -134.001h-74
c0 36.667 -5.66699 64.667 -17 84c-15.333 26 -40.333 39 -75 39z" />
    <glyph glyph-name="d" unicode="d" 
d="M345 218l-0.00195312 68.998c0 60.667 -4.66699 106.334 -14 137.001c-16 53.333 -47.333 80 -94 80c-35.333 0 -61.666 -15.667 -78.999 -47c-20 -36 -30 -94.667 -30 -176c0 -96 9 -158.167 27 -186.5s46.333 -42.5 85 -42.5c36.667 0 64.334 19.667 83.001 59
c14.667 30.667 22 66.334 22 107.001zM344.998 749.998l78.999 0.000976562v-750h-76v73c-18.667 -34 -37.5 -57.167 -56.5 -69.5s-45.833 -18.5 -80.5 -18.5c-66 0 -112.333 34.667 -139 104c-16 42 -24 96.333 -24 163v27c0 88 12.667 157 38 207
c28.667 56.667 71.667 85 129 85c26.667 0 49.834 -5.83301 69.501 -17.5s39.167 -29.834 58.5 -54.501z" />
    <glyph glyph-name="e" unicode="e" horiz-adv-x="444" 
d="M125 336h188.001c0 50 -3.66699 86 -11 108c-13.333 40 -40 60 -80 60c-40.667 0 -68.334 -19.667 -83.001 -59c-9.33301 -24.667 -14 -61 -14 -109zM317.001 185h74c0 -58.667 -13.333 -105.667 -40 -141c-29.333 -39.333 -72 -59 -128 -59
c-56.667 0 -99.667 21 -129 63c-34 48.667 -51 125.667 -51 231c0 77.333 11 140.666 33 189.999c30 68 78.333 102 145 102c78.667 0 130 -33.667 154 -101c13.333 -37.333 20 -103.666 20 -198.999h-270v-38c0 -54 4.66699 -93.667 14 -119c15.333 -41.333 44 -62 86 -62
c34 0 58.667 14.333 74 43c12 22.667 18 52.667 18 90z" />
    <glyph glyph-name="f" unicode="f" horiz-adv-x="278" 
d="M259 489h-87v-489h-79v489h-81v67h80v47c0 26.667 1 48 3 64s7.66699 30.333 17 43c19.333 28 54.666 42 105.999 42h19c10 -1.33301 17.333 -2 22 -2v-67c-5.33301 0 -11.166 0.333008 -17.499 1s-10.833 1 -13.5 1c-20.667 0 -35.167 -4.83301 -43.5 -14.5
s-12.5 -28.167 -12.5 -55.5v-59h87v-67z" />
    <glyph glyph-name="g" unicode="g" 
d="M236 504c-45.333 0 -76.666 -28.332 -93.999 -84.999c-10 -33.333 -15 -80.333 -15 -141c0 -73.333 7.5 -129.333 22.5 -168s41.167 -58 78.5 -58c52 0 86.667 28.333 104 85c10 32.667 15 83.667 15 153c0 63.333 -7.33301 112.666 -22 147.999
c-18.667 44 -48.334 66 -89.001 66zM347 556.001h79.002v-489c0 -38.667 -2.66699 -71.334 -8 -98.001s-16.5 -53.5 -33.5 -80.5s-38.667 -46.667 -65 -59s-55.833 -18.5 -88.5 -18.5c-46.667 0 -84 10.667 -112 32c-30.667 23.333 -48.667 58 -54 104h77
c3.33301 -24 12.5 -41.5 27.5 -52.5s34.833 -16.5 59.5 -16.5c48.667 0 81.667 18.333 99 55c11.333 24 17 58.667 17 104v28c-32.667 -53.333 -73.334 -80 -122.001 -80c-56 0 -98.667 21.333 -128 64c-33.333 48.667 -50 126.334 -50 233.001
c0 101.333 18.333 177.333 55 228c29.333 40.667 69.666 61 120.999 61c26 0 49.833 -6.5 71.5 -19.5s39.167 -32.5 52.5 -58.5z" />
    <glyph glyph-name="h" unicode="h" 
d="M152 372l0.000976562 -372.001h-79v750h79v-255c20 25.333 41 44.333 63 57s47.333 19 76 19c43.333 0 77 -11.667 101 -35s36 -59 36 -107v-429h-79v407c0 31.333 -5.66699 54.666 -17 69.999c-13.333 18 -35.333 27 -66 27c-30 0 -56 -10.333 -78 -31
c-14.667 -13.333 -24.334 -27.666 -29.001 -42.999s-7 -34.666 -7 -57.999z" />
    <glyph glyph-name="i" unicode="i" horiz-adv-x="222" 
d="M151 0h-79v556h79v-556zM151 650h-79v100h79v-100z" />
    <glyph glyph-name="j" unicode="j" horiz-adv-x="222" 
d="M13 -190l-0.000976562 72.999c14.667 0 26.334 0.666992 35.001 2s14.667 5.33301 18 12s5.66602 14.667 6.99902 24s2 18.333 2 27v23v585h79v-578c0 -65.333 -9.66699 -109.666 -29 -132.999s-56.666 -35 -111.999 -35zM153.999 649.999h-79v100h79v-100z" />
    <glyph glyph-name="k" unicode="k" horiz-adv-x="444" 
d="M148 0h-79v750h79v-453l192 259h94l-172 -216l177 -340h-92l-139 277l-60 -79v-198z" />
    <glyph glyph-name="l" unicode="l" horiz-adv-x="222" 
d="M151 0h-79v750h79v-750z" />
    <glyph glyph-name="m" unicode="m" horiz-adv-x="778" 
d="M155 372l0.000976562 -372h-79v556h76v-71c15.333 26 33.666 46.333 54.999 61c24 16.667 50.333 25 79 25c29.333 0 55.5 -7.83301 78.5 -23.5s40.833 -37.167 53.5 -64.5c20.667 30 41.334 51.667 62.001 65c24 15.333 53 23 87 23c38.667 0 72.667 -13 102 -39
c15.333 -14 25.333 -35.333 30 -64c2.66699 -16 4 -38 4 -66v-402h-79v407c0 33.333 -6 57.833 -18 73.5s-34.333 23.5 -67 23.5c-27.333 0 -52 -10.333 -74 -31c-14.667 -13.333 -24.334 -27.666 -29.001 -42.999s-7 -34.666 -7 -57.999v-372h-79v407
c0 31.333 -5.66699 54.666 -17 69.999c-13.333 18 -35.333 27 -66 27c-30 0 -56 -10.333 -78 -31c-14.667 -13.333 -24 -27.333 -28 -42s-6 -34.334 -6 -59.001z" />
    <glyph glyph-name="n" unicode="n" 
d="M150 556l0.000976562 -61.001c21.333 25.333 43 44.333 65 57s47.333 19 76 19c43.333 0 77 -11.667 101 -35s36 -59 36 -107v-429h-79v407c0 31.333 -5.66699 54.666 -17 69.999c-13.333 18 -35.333 27 -66 27c-30 0 -56 -10.333 -78 -31
c-14.667 -13.333 -24.334 -27.666 -29.001 -42.999s-7 -34.666 -7 -57.999v-372h-79v556h77z" />
    <glyph glyph-name="o" unicode="o" 
d="M449 297c0 -115.333 -17.667 -197.332 -53 -245.999c-32 -44 -80.667 -66 -146 -66c-64 0 -112 22 -144 66c-36.667 50.667 -55 132.667 -55 246c0 86.667 16.5 154 49.5 202s82.833 72 149.5 72s117 -24.667 151 -74c32 -46.667 48 -113.334 48 -200.001zM367 272.001
c0 84 -9.00098 143.667 -27.001 179s-48 53 -90 53c-41.333 0 -71.166 -17.833 -89.499 -53.5s-27.5 -95.167 -27.5 -178.5c0 -70.667 8 -123.667 24 -159c18.667 -40.667 49.667 -61 93 -61c44 0 75.333 20.333 94 61c15.333 34 23 87 23 159z" />
    <glyph glyph-name="p" unicode="p" 
d="M365 288c0 57.333 -5.33105 102.332 -15.998 134.999c-17.333 54 -48.333 81 -93 81c-53.333 0 -86 -39.333 -98 -118c-4.66699 -30 -7 -65.667 -7 -107c0 -65.333 4 -112.666 12 -141.999c15.333 -56.667 46.666 -85 93.999 -85c39.333 0 67.666 20.333 84.999 61
c15.333 36.667 23 95 23 175zM151.002 57.999l0.000976562 -246h-79v744h76v-62c13.333 25.333 30.166 44.5 50.499 57.5s42.5 19.5 66.5 19.5c64 0 112 -28.333 144 -85c25.333 -45.333 38 -102.333 38 -171c0 -97.333 -10.667 -172 -32 -224
c-28.667 -70.667 -77.334 -106 -146.001 -106c-27.333 0 -49.666 5.83301 -66.999 17.5s-34.333 30.167 -51 55.5z" />
    <glyph glyph-name="q" unicode="q" 
d="M137 254c0 -62 6.66699 -109.001 20 -141.001c17.333 -40.667 45.333 -61 84 -61c46.667 0 77.667 28.333 93 85c8.66699 31.333 13 79 13 143c0 66 -3.66699 112.667 -11 140c-15.333 56 -46 84 -92 84c-45.333 0 -76 -28 -92 -84c-10 -35.333 -15 -90.666 -15 -165.999
zM350 555.999l75.999 -0.00195312v-740h-79v245c-19.333 -26 -38.166 -45.167 -56.499 -57.5s-39.5 -18.5 -63.5 -18.5c-59.333 0 -102.833 22.833 -130.5 68.5s-41.5 117.834 -41.5 216.501c0 79.333 10.667 145 32 197c28.667 69.333 73 104 133 104
c27.333 0 51.5 -5.66699 72.5 -17s39.5 -29.666 55.5 -54.999z" />
    <glyph glyph-name="r" unicode="r" horiz-adv-x="333" 
d="M157 556l0.00195312 -91.001c16.667 34 36 58.833 58 74.5s50.333 23.5 85 23.5c9.33301 0 16.666 -0.333008 21.999 -1v-78c-12 2 -23 3 -33 3c-40.667 0 -72.334 -13.667 -95.001 -41s-34 -63.666 -34 -108.999v-337h-79v556h76z" />
    <glyph glyph-name="s" unicode="s" horiz-adv-x="444" 
d="M380 407l-77 0.00292969c0 34.667 -6.33301 59.5 -19 74.5s-35.667 22.5 -69 22.5c-58.667 0 -88 -28 -88 -84c0 -36.667 17.667 -63.334 53 -80.001l60 -24c63.333 -28.667 100 -46.667 110 -54c33.333 -25.333 50 -60.666 50 -105.999
c0 -52.667 -17 -94.334 -51 -125.001s-79.667 -46 -137 -46c-27.333 0 -53.833 4.66699 -79.5 14s-45.167 24 -58.5 44c-14.667 19.333 -23.5 37.166 -26.5 53.499s-4.5 38.166 -4.5 65.499h75c0 -36.667 6.83301 -64.167 20.5 -82.5s38.167 -27.5 73.5 -27.5
c34 0 60.167 7.5 78.5 22.5s27.5 38.833 27.5 71.5c0 38.667 -22.667 67 -68 85c-23.333 8 -46.333 16.333 -69 25c-48.667 18 -82 36 -100 54c-24 24 -36 58.667 -36 104c0 47.333 15 85.333 45 114s69.333 43 118 43c56 0 98.667 -13.333 128 -40s44 -68 44 -124z" />
    <glyph glyph-name="t" unicode="t" horiz-adv-x="278" 
d="M164 707l-0.000976562 -151.001h93v-67h-92v-379v-15c0 -7.33301 0.666992 -12.333 2 -15c4.66699 -8.66699 16.334 -13 35.001 -13h53v-67h-87c-28 0 -47.667 4.66699 -59 14c-15.333 12.667 -23 38.334 -23 77.001v398h-77v67h77v151h78z" />
    <glyph glyph-name="u" unicode="u" 
d="M345 0l-0.000976562 72.999c-14 -28 -33 -49.667 -57 -65s-49.667 -23 -77 -23c-89.333 0 -134 47.333 -134 142v429h79v-432c0 -25.333 5 -43.666 15 -54.999s28.667 -17 56 -17c40.667 0 72.334 16.333 95.001 49c8 12.667 13.833 27.667 17.5 45s5.5 35 5.5 53v357h79
v-556h-79z" />
    <glyph glyph-name="v" unicode="v" horiz-adv-x="444" 
d="M178 0l-165 556h82l126 -489l128 489h82l-167 -556h-86z" />
    <glyph glyph-name="w" unicode="w" horiz-adv-x="667" 
d="M374 556l94 -489l99 489h82l-139 -556h-82l-94 489l-90 -489h-82l-143 556h82l101 -489l90 489h82z" />
    <glyph glyph-name="x" unicode="x" horiz-adv-x="444" 
d="M179 286l-160 270h82l124 -200l123 200h82l-160 -270l166 -286h-82l-130 222l-133 -222h-82z" />
    <glyph glyph-name="y" unicode="y" horiz-adv-x="444" 
d="M182 -13l-177 568.999h82l125 -482l131 482h82l-165 -531c-10 -33.333 -17.667 -57.666 -23 -72.999c-11.333 -33.333 -20.666 -56.333 -27.999 -69c-14.667 -26 -32 -44.667 -52 -56s-45 -17 -75 -17c-18.667 0 -37.667 3 -57 9v70c18 -8 37.667 -12 59 -12
c36.667 0 62 16.667 76 50c9.33301 26.667 16.666 46.667 21.999 60z" />
    <glyph glyph-name="z" unicode="z" horiz-adv-x="389" 
d="M366 0h-342v62l258 429h-247v65h329v-65l-258 -426h260v-65z" />
    <glyph glyph-name="braceleft" unicode="{" horiz-adv-x="274" 
d="M177 190l-0.00292969 -172.995c0 -29.333 6.33301 -52.5 19 -69.5s36 -30.5 70 -40.5c-66.667 -0.666992 -111.5 9.16602 -134.5 29.499s-34.5 58.833 -34.5 115.5v165v12c0 22.667 -2.5 38.667 -7.5 48s-13.167 18 -24.5 26c-7.33301 5.33301 -16 10.166 -26 14.499
s-20.667 7.83301 -32 10.5c16 2.66699 28.833 6.16699 38.5 10.5s19.334 11.5 29.001 21.5s15.834 20.333 18.501 31s4 25 4 43v186c0 31.333 3.5 54.166 10.5 68.499s17.5 26.166 31.5 35.499c18 12 35.5 19.333 52.5 22s41.833 4 74.5 4
c-34.667 -10.667 -58.167 -24.334 -70.5 -41.001s-18.5 -40.334 -18.5 -71.001v-187c0 -35.333 -6 -61.333 -18 -78c-15.333 -21.333 -42.666 -35.666 -81.999 -42.999c40 -9.33301 67.333 -26.333 82 -51c12 -20 18 -49.667 18 -89z" />
    <glyph glyph-name="bar" unicode="|" horiz-adv-x="250" 
d="M93 0v750h64v-750h-64z" />
    <glyph glyph-name="braceright" unicode="}" horiz-adv-x="274" 
d="M97 465l0.00292969 172.996c0 29.333 -6.33301 52.5 -19 69.5s-36 30.5 -70 40.5c66.667 0.666992 111.5 -9.16602 134.5 -29.499s34.5 -58.833 34.5 -115.5v-165c0 -23.333 1.5 -40.833 4.5 -52.5s12.167 -22.834 27.5 -33.501c7.33301 -5.33301 16 -10.166 26 -14.499
s20.667 -7.83301 32 -10.5c-16 -2.66699 -28.833 -6.16699 -38.5 -10.5s-19.334 -11.5 -29.001 -21.5s-15.834 -20.333 -18.501 -31s-4 -25 -4 -43v-186c0 -31.333 -3.5 -54.166 -10.5 -68.499s-17.5 -26.166 -31.5 -35.499c-18 -12 -35.5 -19.333 -52.5 -22
s-41.833 -4 -74.5 -4c34.667 10.667 58.167 24.334 70.5 41.001s18.5 40.334 18.5 71.001v187c0 35.333 6 61.333 18 78c15.333 21.333 42.666 35.666 81.999 42.999c-40 9.33301 -67.333 26.333 -82 51c-12 20 -18 49.667 -18 89z" />
    <glyph glyph-name="asciitilde" unicode="~" 
d="M161 332c17.333 0 37.001 -5 59.001 -15c5.33301 -2 17.666 -8.66699 36.999 -20l47 -24c16 -7.33301 28.667 -11 38 -11c16 0 32 9.33301 48 28c12 14 23 32.333 33 55l34 -47c-14.667 -32.667 -30 -58 -46 -76c-21.333 -23.333 -44.666 -35 -69.999 -35
c-15.333 0 -39 7.66699 -71 23l-40 21c-12.667 6.66699 -23.667 12 -33 16c-14 6 -26 9 -36 9c-22.667 0 -42.667 -14.333 -60 -43c-4.66699 -8 -12.334 -23.667 -23.001 -47l-34 48c20.667 46 40.167 77.167 58.5 93.5s37.833 24.5 58.5 24.5z" />
    <glyph glyph-name="c128" horiz-adv-x="685" 
d="M557 191v103.999c0 32.667 -9.5 57.834 -28.5 75.501s-43.833 26.5 -74.5 26.5c-28.667 0 -57.167 -4.83301 -85.5 -14.5s-53.833 -22.5 -76.5 -38.5v-344h-83v675h-194v75h471v-75h-194v-258c31.333 17.333 59 30 83 38c31.333 10 65.333 15 102 15
c44 0 82 -14.667 114 -44s48 -68.333 48 -117v-124c0 -68.667 -17.667 -120 -53 -154c-32 -30.667 -76.333 -46 -133 -46h-29v75h30c38 0 65.667 14 83 42c13.333 22 20 51.667 20 89z" />
    <glyph glyph-name="c128" unicode="&#x402;" horiz-adv-x="685" 
d="M557 191v103.999c0 32.667 -9.5 57.834 -28.5 75.501s-43.833 26.5 -74.5 26.5c-28.667 0 -57.167 -4.83301 -85.5 -14.5s-53.833 -22.5 -76.5 -38.5v-344h-83v675h-194v75h471v-75h-194v-258c31.333 17.333 59 30 83 38c31.333 10 65.333 15 102 15
c44 0 82 -14.667 114 -44s48 -68.333 48 -117v-124c0 -68.667 -17.667 -120 -53 -154c-32 -30.667 -76.333 -46 -133 -46h-29v75h30c38 0 65.667 14 83 42c13.333 22 20 51.667 20 89z" />
    <glyph glyph-name="c129" horiz-adv-x="444" 
d="M184 818l89 141h109l-131 -141h-67zM157 0h-83v750h352v-75h-269v-675z" />
    <glyph glyph-name="c129" unicode="&#x403;" horiz-adv-x="444" 
d="M184 818l89 141h109l-131 -141h-67zM157 0h-83v750h352v-75h-269v-675z" />
    <glyph glyph-name="c141" horiz-adv-x="556" 
d="M163 0h-84v750h83v-385l273 385h104l-239 -314l246 -436h-102l-203 362l-78 -102v-260zM211 818l89 141h109l-131 -141h-67z" />
    <glyph glyph-name="c141" unicode="&#x40c;" horiz-adv-x="556" 
d="M163 0h-84v750h83v-385l273 385h104l-239 -314l246 -436h-102l-203 362l-78 -102v-260zM211 818l89 141h109l-131 -141h-67z" />
    <glyph glyph-name="c142" horiz-adv-x="685" 
d="M292 417c31.333 17.333 59 29.999 83 37.999c31.333 10 65.333 15 102 15c44 0 82 -14.667 114 -44s48 -68.333 48 -117v-309h-82v295c0 32.667 -9.5 57.834 -28.5 75.501s-43.833 26.5 -74.5 26.5c-28.667 0 -57.167 -4.83301 -85.5 -14.5s-53.833 -22.5 -76.5 -38.5
v-344h-83v675h-194v75h471v-75h-194v-258z" />
    <glyph glyph-name="c142" unicode="&#x40b;" horiz-adv-x="685" 
d="M292 417c31.333 17.333 59 29.999 83 37.999c31.333 10 65.333 15 102 15c44 0 82 -14.667 114 -44s48 -68.333 48 -117v-309h-82v295c0 32.667 -9.5 57.834 -28.5 75.501s-43.833 26.5 -74.5 26.5c-28.667 0 -57.167 -4.83301 -85.5 -14.5s-53.833 -22.5 -76.5 -38.5
v-344h-83v675h-194v75h471v-75h-194v-258z" />
    <glyph glyph-name="c143" horiz-adv-x="611" 
d="M265 0h-186v750h83v-675h287v675h83v-750h-187v-108h-80v108z" />
    <glyph glyph-name="c143" unicode="&#x40f;" horiz-adv-x="611" 
d="M265 0h-186v750h83v-675h287v675h83v-750h-187v-108h-80v108z" />
    <glyph glyph-name="c144" 
d="M428 -22c0 -65.333 -9.66699 -109.668 -29 -133.001s-56.666 -35 -111.999 -35v73c14.667 0 26.334 0.666992 35.001 2s14.667 5.33301 18 12s5.66602 14.667 6.99902 24s2 18.333 2 27v23v376c0 31.333 -5.66699 54.666 -17 69.999c-13.333 18 -35.333 27 -66 27
c-30 0 -56 -10.333 -78 -31c-14.667 -13.333 -24.334 -27.666 -29.001 -42.999s-7 -34.666 -7 -57.999v-312h-79v556h-64v67h64v127h79v-127h146v-67h-146v-121c20 25.333 41 44.333 63 57s47.333 19 76 19c43.333 0 77 -11.667 101 -35s36 -59 36 -107v-391z" />
    <glyph glyph-name="c144" unicode="&#x452;" 
d="M428 -22c0 -65.333 -9.66699 -109.668 -29 -133.001s-56.666 -35 -111.999 -35v73c14.667 0 26.334 0.666992 35.001 2s14.667 5.33301 18 12s5.66602 14.667 6.99902 24s2 18.333 2 27v23v376c0 31.333 -5.66699 54.666 -17 69.999c-13.333 18 -35.333 27 -66 27
c-30 0 -56 -10.333 -78 -31c-14.667 -13.333 -24.334 -27.666 -29.001 -42.999s-7 -34.666 -7 -57.999v-312h-79v556h-64v67h64v127h79v-127h146v-67h-146v-121c20 25.333 41 44.333 63 57s47.333 19 76 19c43.333 0 77 -11.667 101 -35s36 -59 36 -107v-391z" />
    <glyph glyph-name="c157" horiz-adv-x="444" 
d="M157 624l89 141h109l-131 -141h-67zM148 0h-79v556h79v-259l192 259h94l-172 -216l177 -340h-92l-139 277l-60 -79v-198z" />
    <glyph glyph-name="c157" unicode="&#x45c;" horiz-adv-x="444" 
d="M157 624l89 141h109l-131 -141h-67zM148 0h-79v556h79v-259l192 259h94l-172 -216l177 -340h-92l-139 277l-60 -79v-198z" />
    <glyph glyph-name="c158" 
d="M73 623l0.000976562 126.999h79v-127h146v-67h-146v-121c20 25.333 41 44.333 63 57s47.333 19 76 19c43.333 0 77 -11.667 101 -35s36 -59 36 -107v-369h-79v347c0 31.333 -5.66699 54.666 -17 69.999c-13.333 18 -35.333 27 -66 27c-30 0 -56 -10.333 -78 -31
c-14.667 -13.333 -24.334 -27.666 -29.001 -42.999s-7 -34.666 -7 -57.999v-312h-79v556h-64v67h64z" />
    <glyph glyph-name="c158" unicode="&#x45b;" 
d="M73 623l0.000976562 126.999h79v-127h146v-67h-146v-121c20 25.333 41 44.333 63 57s47.333 19 76 19c43.333 0 77 -11.667 101 -35s36 -59 36 -107v-369h-79v347c0 31.333 -5.66699 54.666 -17 69.999c-13.333 18 -35.333 27 -66 27c-30 0 -56 -10.333 -78 -31
c-14.667 -13.333 -24.334 -27.666 -29.001 -42.999s-7 -34.666 -7 -57.999v-312h-79v556h-64v67h64z" />
    <glyph glyph-name="nonbreakingspace" unicode="&#xa0;" 
 />
    <glyph glyph-name="exclamdown" unicode="&#xa1;" horiz-adv-x="556" 
d="M134 959h49c6 -26.667 18.167 -46.167 36.5 -58.5s41.5 -18.5 69.5 -18.5c29.333 0 52.5 5.83301 69.5 17.5s28.833 31.5 35.5 59.5h49c0 -45.333 -14.5 -79.333 -43.5 -102s-67.167 -34 -114.5 -34c-44 0 -79.333 10.667 -106 32c-30 24 -45 58.667 -45 104zM298 268
l154.998 481.999h92l-214 -615c-16 -49.333 -33 -85.333 -51 -108c-24 -30 -55 -45 -93 -45l-51 3v76l38 -3c14.667 0 27.834 4.33301 39.501 13s21.834 24.334 30.501 47.001l19 48l-252 584h95z" />
    <glyph glyph-name="exclamdown" unicode="&#x40e;" horiz-adv-x="556" 
d="M134 959h49c6 -26.667 18.167 -46.167 36.5 -58.5s41.5 -18.5 69.5 -18.5c29.333 0 52.5 5.83301 69.5 17.5s28.833 31.5 35.5 59.5h49c0 -45.333 -14.5 -79.333 -43.5 -102s-67.167 -34 -114.5 -34c-44 0 -79.333 10.667 -106 32c-30 24 -45 58.667 -45 104zM298 268
l154.998 481.999h92l-214 -615c-16 -49.333 -33 -85.333 -51 -108c-24 -30 -55 -45 -93 -45l-51 3v76l38 -3c14.667 0 27.834 4.33301 39.501 13s21.834 24.334 30.501 47.001l19 48l-252 584h95z" />
    <glyph glyph-name="cent" unicode="&#xa2;" horiz-adv-x="444" 
d="M182 -13l-177 568.999h82l125 -482l131 482h82l-165 -531c-10 -33.333 -17.667 -57.666 -23 -72.999c-11.333 -33.333 -20.666 -56.333 -27.999 -69c-14.667 -26 -32 -44.667 -52 -56s-45 -17 -75 -17c-18.667 0 -37.667 3 -57 9v70c18 -8 37.667 -12 59 -12
c36.667 0 62 16.667 76 50c9.33301 26.667 16.666 46.667 21.999 60zM67 764.999h49c6 -26.667 18.167 -46.167 36.5 -58.5s41.5 -18.5 69.5 -18.5c29.333 0 52.5 5.83301 69.5 17.5s28.833 31.5 35.5 59.5h49c0 -45.333 -14.5 -79.333 -43.5 -102s-67.167 -34 -114.5 -34
c-44 0 -79.333 10.667 -106 32c-30 24 -45 58.667 -45 104z" />
    <glyph glyph-name="cent" unicode="&#x45e;" horiz-adv-x="444" 
d="M182 -13l-177 568.999h82l125 -482l131 482h82l-165 -531c-10 -33.333 -17.667 -57.666 -23 -72.999c-11.333 -33.333 -20.666 -56.333 -27.999 -69c-14.667 -26 -32 -44.667 -52 -56s-45 -17 -75 -17c-18.667 0 -37.667 3 -57 9v70c18 -8 37.667 -12 59 -12
c36.667 0 62 16.667 76 50c9.33301 26.667 16.666 46.667 21.999 60zM67 764.999h49c6 -26.667 18.167 -46.167 36.5 -58.5s41.5 -18.5 69.5 -18.5c29.333 0 52.5 5.83301 69.5 17.5s28.833 31.5 35.5 59.5h49c0 -45.333 -14.5 -79.333 -43.5 -102s-67.167 -34 -114.5 -34
c-44 0 -79.333 10.667 -106 32c-30 24 -45 58.667 -45 104z" />
    <glyph glyph-name="sterling" unicode="&#xa3;" horiz-adv-x="444" 
d="M22 235l83 -0.000976562v-44c0 -43.333 4 -73.666 12 -90.999c12 -26.667 37 -40 75 -40s64 13.333 78 40c10 18.667 15 49 15 91v559h83v-565c0 -74 -16.333 -127 -49 -159c-28 -27.333 -70.667 -41 -128 -41c-32 0 -59.333 5 -82 15c-26.667 12 -47 30.667 -61 56
c-10.667 20 -17.667 42 -21 66s-5 50 -5 78v35z" />
    <glyph glyph-name="sterling" unicode="&#x408;" horiz-adv-x="444" 
d="M22 235l83 -0.000976562v-44c0 -43.333 4 -73.666 12 -90.999c12 -26.667 37 -40 75 -40s64 13.333 78 40c10 18.667 15 49 15 91v559h83v-565c0 -74 -16.333 -127 -49 -159c-28 -27.333 -70.667 -41 -128 -41c-32 0 -59.333 5 -82 15c-26.667 12 -47 30.667 -61 56
c-10.667 20 -17.667 42 -21 66s-5 50 -5 78v35z" />
    <glyph glyph-name="currency" unicode="&#xa4;" 
d="M28 110l39.001 42c-14.667 23.333 -25.5 47 -32.5 71s-10.5 49.667 -10.5 77c0 31.333 3.16699 58 9.5 80s17.5 45.667 33.5 71l-39 43l47 53l39 -43c39.333 32.667 85.666 49 138.999 49c23.333 0 45.833 -4.16699 67.5 -12.5s42.834 -20.5 63.501 -36.5l40 43l47 -53
l-38 -43c28 -47.333 42 -99.333 42 -156c0 -26.667 -3.5 -51.167 -10.5 -73.5s-17.5 -45.5 -31.5 -69.5l38 -42l-47 -53l-40 43c-40.667 -33.333 -87 -50 -139 -50c-24.667 0 -47.334 4.16699 -68.001 12.5s-41.667 20.833 -63 37.5l-39 -43zM253.001 481
c-46.667 0 -84.502 -16.833 -113.502 -50.5s-43.5 -77.167 -43.5 -130.5c0 -48.667 14.5 -90.5 43.5 -125.5s64.833 -52.5 107.5 -52.5c44.667 0 81.834 17.167 111.501 51.5s44.5 77.5 44.5 129.5c0 49.333 -14.167 91.333 -42.5 126s-64.166 52 -107.499 52z" />
    <glyph glyph-name="yen" unicode="&#xa5;" horiz-adv-x="444" 
d="M157 0h-83v750h352v-75h-269v-675zM380 858h46v-183h-80v183h34z" />
    <glyph glyph-name="yen" unicode="&#x490;" horiz-adv-x="444" 
d="M157 0h-83v750h352v-75h-269v-675zM380 858h46v-183h-80v183h34z" />
    <glyph glyph-name="brokenbar" unicode="&#xa6;" horiz-adv-x="250" 
d="M93 0v300h64v-300h-64zM93 750h64v-300h-64v300z" />
    <glyph glyph-name="section" unicode="&#xa7;" 
d="M195 423c-26.667 -18.667 -44.668 -32.999 -54.001 -42.999c-17.333 -18.667 -26 -39.334 -26 -62.001c0 -20 2.66699 -34.333 8 -43c8.66699 -14 30.334 -34 65.001 -60l-2 -2c6 -3.33301 12.333 -6.66602 19 -9.99902c46.667 -30.667 82.334 -55.334 107.001 -74.001
c31.333 24 51.5 44 60.5 60s13.5 33.667 13.5 53c0 18.667 -6.33301 35.667 -19 51c-14.667 17.333 -43.334 41.333 -86.001 72zM147.999 458.001c-46.667 30 -69.999 73.332 -69.999 129.999c0 50 16.5 89.5 49.5 118.5s75.5 43.5 127.5 43.5
c53.333 0 94.833 -15.833 124.5 -47.5s44.5 -74.5 44.5 -128.5h-82c0 34 -7.66699 60.333 -23 79s-40 28 -74 28c-25.333 0 -46.333 -7.66699 -63 -23s-25 -35.666 -25 -60.999c0 -23.333 4.66699 -40.333 14 -51c14 -16 53 -45.667 117 -89
c77.333 -52.667 118 -80.667 122 -84c37.333 -33.333 56 -72.333 56 -117c0 -35.333 -10.333 -67.333 -31 -96c-16 -22 -41.333 -45.333 -76 -70c24 -18 42 -36.833 54 -56.5s18 -43.834 18 -72.501c0 -54.667 -16.833 -96.5 -50.5 -125.5s-80.834 -43.5 -141.501 -43.5
c-55.333 0 -98.5 17.167 -129.5 51.5s-46.5 79.5 -46.5 135.5h81c0 -37.333 8.66699 -66.666 26 -87.999s44.333 -32 81 -32c29.333 0 53.333 7.66699 72 23s28 37.333 28 66c0 27.333 -10.167 51 -30.5 71s-68.833 55 -145.5 105c-54 34.667 -90.833 64.5 -110.5 89.5
s-29.5 54.5 -29.5 88.5c0 36 10.667 67.667 32 95c18.667 24 45.667 44.333 81 61z" />
    <glyph glyph-name="dieresis" unicode="&#xa8;" 
d="M451 0h-377v750h375v-75h-292v-248h274v-75h-274v-277h294v-75zM136 944h79v-100h-79v100zM365 844h-79v100h79v-100z" />
    <glyph glyph-name="dieresis" unicode="&#x401;" 
d="M451 0h-377v750h375v-75h-292v-248h274v-75h-274v-277h294v-75zM136 944h79v-100h-79v100zM365 844h-79v100h79v-100z" />
    <glyph glyph-name="copyright" unicode="&#xa9;" horiz-adv-x="800" 
d="M401 -18c-108.667 0 -201.333 37.999 -278 113.999s-115 169 -115 279c0 107.333 38.5 199.166 115.5 275.499s169.5 114.5 277.5 114.5s200.167 -38.167 276.5 -114.5s114.5 -168.166 114.5 -275.499c0 -109.333 -37.833 -202.166 -113.5 -278.499
s-168.167 -114.5 -277.5 -114.5zM401.001 39.999c92.667 0 171.167 32.5 235.5 97.5s96.5 144.167 96.5 237.5c0 92.667 -32.167 171.167 -96.5 235.5s-142.833 96.5 -235.5 96.5c-92 0 -170.667 -32.333 -236 -97s-98 -143 -98 -235c0 -93.333 32.5 -172.5 97.5 -237.5
s143.833 -97.5 236.5 -97.5zM542.001 302.999h57.999c-4.66699 -45.333 -24.5 -82.166 -59.5 -110.499s-75.833 -42.5 -122.5 -42.5c-65.333 0 -118 21.5 -158 64.5s-60 97.5 -60 163.5c0 65.333 19.5 119.166 58.5 161.499s91.167 63.5 156.5 63.5
c48 0 88.833 -13.167 122.5 -39.5s54.5 -62.833 62.5 -109.5h-58c-5.33301 30.667 -19.666 55.167 -42.999 73.5s-51 27.5 -83 27.5c-50 0 -88.667 -16.5 -116 -49.5s-41 -75.167 -41 -126.5c0 -50 13.667 -92 41 -126c30 -36.667 69.333 -55 118 -55
c32 0 59.833 9.5 83.5 28.5s37.167 44.5 40.5 76.5z" />
    <glyph glyph-name="ordfeminine" unicode="&#xaa;" horiz-adv-x="573" 
d="M518 221c-4 -47.333 -8.83398 -80.002 -14.501 -98.002s-15.5 -37 -29.5 -57c-20 -28 -43.833 -49 -71.5 -63s-61.834 -21 -102.501 -21c-72.667 0 -128.667 21.333 -168 64c-33.333 36 -56 87.333 -68 154c-8 44 -12 105.333 -12 184
c0 70.667 4.66699 128.334 14 173.001c13.333 64.667 36.333 113.667 69 147c39.333 40.667 94 61 164 61c68.667 0 122.334 -19.333 161.001 -58s58 -89 58 -151h-84c-4 42 -15.667 73.667 -35 95c-23.333 26 -58.666 39 -105.999 39c-60 0 -102.667 -30 -128 -90
c-18 -42.667 -27 -99.667 -27 -171h224v-75h-225c0 -83.333 7.33301 -146.666 22 -189.999c24 -71.333 68.667 -107 134 -107c49.333 0 85 17 107 51c16.667 25.333 28 63.333 34 114v5h84v-6z" />
    <glyph glyph-name="ordfeminine" unicode="&#x404;" horiz-adv-x="573" 
d="M518 221c-4 -47.333 -8.83398 -80.002 -14.501 -98.002s-15.5 -37 -29.5 -57c-20 -28 -43.833 -49 -71.5 -63s-61.834 -21 -102.501 -21c-72.667 0 -128.667 21.333 -168 64c-33.333 36 -56 87.333 -68 154c-8 44 -12 105.333 -12 184
c0 70.667 4.66699 128.334 14 173.001c13.333 64.667 36.333 113.667 69 147c39.333 40.667 94 61 164 61c68.667 0 122.334 -19.333 161.001 -58s58 -89 58 -151h-84c-4 42 -15.667 73.667 -35 95c-23.333 26 -58.666 39 -105.999 39c-60 0 -102.667 -30 -128 -90
c-18 -42.667 -27 -99.667 -27 -171h224v-75h-225c0 -83.333 7.33301 -146.666 22 -189.999c24 -71.333 68.667 -107 134 -107c49.333 0 85 17 107 51c16.667 25.333 28 63.333 34 114v5h84v-6z" />
    <glyph glyph-name="guillemotleft" unicode="&#xab;" 
d="M85 342l151 153v-83l-100 -102l100 -102v-83l-151 156v61zM264 342l151 153v-83l-100 -102l100 -102v-83l-151 156v61z" />
    <glyph glyph-name="logicalnot" unicode="&#xac;" 
d="M387 117v197h-343v70h413v-267h-70z" />
    <glyph glyph-name="minus" unicode="&#xad;" horiz-adv-x="333" 
d="M323 657h-313v58h313v-58z" />
    <glyph glyph-name="registered" unicode="&#xae;" horiz-adv-x="800" 
d="M401 765c107.333 0 199.333 -38.001 276 -114.001s115 -168 115 -276c0 -109.333 -37.833 -202.166 -113.5 -278.499s-168.167 -114.5 -277.5 -114.5c-108.667 0 -201.334 38 -278.001 114s-115 169 -115 279c0 108 38.333 200 115 276s169.334 114 278.001 114z
M401 706.999c-92 0 -170.667 -32.332 -236 -96.999s-98 -143.334 -98 -236.001c0 -93.333 32.333 -172.333 97 -237s143.667 -97 237 -97c92 0 170.333 32.333 235 97s97 143.667 97 237c0 92 -32.167 170.5 -96.5 235.5s-142.833 97.5 -235.5 97.5zM465 357
l131.001 -201.999h-65l-124 202h-97v-202h-56v440h193c24 0 44 -1.33301 60 -4s31.333 -9.33398 46 -20.001c15.333 -8.66699 27.5 -21.667 36.5 -39s13.5 -35.666 13.5 -54.999c0 -40.667 -12.833 -70.834 -38.5 -90.501s-58.834 -29.5 -99.501 -29.5zM310.001 399.001
h81.001h28c40 0 68.667 3.66699 86 11c28 12 42 35 42 69c0 30 -12 50.667 -36 62c-16.667 8 -42.334 12 -77.001 12h-124v-154z" />
    <glyph glyph-name="macron" unicode="&#xaf;" horiz-adv-x="278" 
d="M181 0h-83v750h83v-750zM25 944h79v-100h-79v100zM254 844h-79v100h79v-100z" />
    <glyph glyph-name="macron" unicode="&#x407;" horiz-adv-x="278" 
d="M181 0h-83v750h83v-750zM25 944h79v-100h-79v100zM254 844h-79v100h79v-100z" />
    <glyph glyph-name="degree" unicode="&#xb0;" horiz-adv-x="400" 
d="M350 600c0 -41.333 -14.667 -76.666 -44 -105.999s-64.666 -44 -105.999 -44s-76.666 14.667 -105.999 44s-44 64.666 -44 105.999s14.667 76.666 44 105.999s64.666 44 105.999 44s76.666 -14.667 105.999 -44s44 -64.666 44 -105.999zM288 600
c0 24 -8.66797 44.667 -26.001 62s-38.333 26 -63 26c-23.333 0 -43.666 -8.66699 -60.999 -26s-26 -38 -26 -62c0 -24.667 8.5 -45.5 25.5 -62.5s37.833 -25.5 62.5 -25.5s45.5 8.5 62.5 25.5s25.5 37.833 25.5 62.5z" />
    <glyph glyph-name="plusminus" unicode="&#xb1;" 
d="M215 349v156h70v-156h172v-70h-172v-159h-70v159h-171v70h171zM44 0v70h413v-70h-413z" />
    <glyph glyph-name="twosuperior" unicode="&#xb2;" horiz-adv-x="278" 
d="M181 0h-83v750h83v-750z" />
    <glyph glyph-name="twosuperior" unicode="&#x406;" horiz-adv-x="278" 
d="M181 0h-83v750h83v-750z" />
    <glyph glyph-name="threesuperior" unicode="&#xb3;" horiz-adv-x="222" 
d="M151 0h-79v556h79v-556zM151 650h-79v100h79v-100z" />
    <glyph glyph-name="threesuperior" unicode="&#x456;" horiz-adv-x="222" 
d="M151 0h-79v556h79v-556zM151 650h-79v100h79v-100z" />
    <glyph glyph-name="acute" unicode="&#xb4;" horiz-adv-x="388" 
d="M363 489h-212v-489h-78v556h290v-67zM287 662h41h35v-173h-76v173z" />
    <glyph glyph-name="acute" unicode="&#x491;" horiz-adv-x="388" 
d="M363 489h-212v-489h-78v556h290v-67zM287 662h41h35v-173h-76v173z" />
    <glyph glyph-name="mu" unicode="&#xb5;" 
d="M343 0l-0.000976562 73c-14 -28 -33 -49.667 -57 -65s-49.667 -23 -77 -23c-8 0 -17 2.16699 -27 6.5s-19.333 8.16602 -28 11.499v-192h-79v316v429h79v-432c0 -25.333 5 -43.666 15 -54.999s28.667 -17 56 -17c40.667 0 72.334 16.333 95.001 49
c8 12.667 13.833 27.667 17.5 45s5.5 35 5.5 53v357h79v-556h-79z" />
    <glyph glyph-name="paragraph" unicode="&#xb6;" horiz-adv-x="440" 
d="M157 -116v482c-42 0 -78.667 18.667 -110 56s-47 82 -47 134c-0 59.333 17.333 108 52 146c18 20 37 33 57 39s44.667 9 74 9h208v-866h-79v799h-76v-799h-79z" />
    <glyph glyph-name="periodcentered" unicode="&#xb7;" horiz-adv-x="250" 
d="M171 204h-91v100h91v-100z" />
    <glyph glyph-name="periodcentered" unicode="&#x2219;" horiz-adv-x="250" 
d="M171 204h-91v100h91v-100z" />
    <glyph glyph-name="cedilla" unicode="&#xb8;" horiz-adv-x="444" 
d="M125 336h188.001c0 50 -3.66699 86 -11 108c-13.333 40 -40 60 -80 60c-40.667 0 -68.334 -19.667 -83.001 -59c-9.33301 -24.667 -14 -61 -14 -109zM317.001 185h74c0 -58.667 -13.333 -105.667 -40 -141c-29.333 -39.333 -72 -59 -128 -59
c-56.667 0 -99.667 21 -129 63c-34 48.667 -51 125.667 -51 231c0 77.333 11 140.666 33 189.999c30 68 78.333 102 145 102c78.667 0 130 -33.667 154 -101c13.333 -37.333 20 -103.666 20 -198.999h-270v-38c0 -54 4.66699 -93.667 14 -119c15.333 -41.333 44 -62 86 -62
c34 0 58.667 14.333 74 43c12 22.667 18 52.667 18 90zM108.001 750h79v-100h-79v100zM337.001 650h-79v100h79v-100z" />
    <glyph glyph-name="cedilla" unicode="&#x451;" horiz-adv-x="444" 
d="M125 336h188.001c0 50 -3.66699 86 -11 108c-13.333 40 -40 60 -80 60c-40.667 0 -68.334 -19.667 -83.001 -59c-9.33301 -24.667 -14 -61 -14 -109zM317.001 185h74c0 -58.667 -13.333 -105.667 -40 -141c-29.333 -39.333 -72 -59 -128 -59
c-56.667 0 -99.667 21 -129 63c-34 48.667 -51 125.667 -51 231c0 77.333 11 140.666 33 189.999c30 68 78.333 102 145 102c78.667 0 130 -33.667 154 -101c13.333 -37.333 20 -103.666 20 -198.999h-270v-38c0 -54 4.66699 -93.667 14 -119c15.333 -41.333 44 -62 86 -62
c34 0 58.667 14.333 74 43c12 22.667 18 52.667 18 90zM108.001 750h79v-100h-79v100zM337.001 650h-79v100h79v-100z" />
    <glyph glyph-name="onesuperior" unicode="&#xb9;" horiz-adv-x="910" 
d="M451 138v612h83v-750h-136l-210 600c-6.66699 18.667 -12 36.167 -16 52.5s-8 36.5 -12 60.5v-115v-598h-83v750h135l213 -614c2 -5.33301 6 -17.333 12 -36s10.667 -34 14 -46v84zM890 600c0 -24 -0.833008 -43.5 -2.5 -58.5s-5.5 -31.167 -11.5 -48.5
c-18.667 -53.333 -55.334 -80 -110.001 -80c-61.333 0 -101.333 26.667 -120 80c-5.33301 16 -9.16602 32.667 -11.499 50s-3.5 36.333 -3.5 57c0 14.667 1.16699 29.5 3.5 44.5s5.83301 29.5 10.5 43.5c8 23.333 22.5 42 43.5 56s45.167 21 72.5 21
s51.5 -6.83301 72.5 -20.5s35.667 -33.5 44 -59.5s12.5 -54.333 12.5 -85zM685 585c0 -43.333 5.49805 -76.166 16.498 -98.499s30.833 -33.5 59.5 -33.5s48.334 11.167 59.001 33.5s16 55.166 16 98.499c0 50.667 -5.66699 86.667 -17 108s-30.666 32 -57.999 32
c-26.667 0 -46 -10.833 -58 -32.5s-18 -57.5 -18 -107.5zM889.998 305h-259v40h259v-40z" />
    <glyph glyph-name="onesuperior" unicode="&#x2116;" horiz-adv-x="910" 
d="M451 138v612h83v-750h-136l-210 600c-6.66699 18.667 -12 36.167 -16 52.5s-8 36.5 -12 60.5v-115v-598h-83v750h135l213 -614c2 -5.33301 6 -17.333 12 -36s10.667 -34 14 -46v84zM890 600c0 -24 -0.833008 -43.5 -2.5 -58.5s-5.5 -31.167 -11.5 -48.5
c-18.667 -53.333 -55.334 -80 -110.001 -80c-61.333 0 -101.333 26.667 -120 80c-5.33301 16 -9.16602 32.667 -11.499 50s-3.5 36.333 -3.5 57c0 14.667 1.16699 29.5 3.5 44.5s5.83301 29.5 10.5 43.5c8 23.333 22.5 42 43.5 56s45.167 21 72.5 21
s51.5 -6.83301 72.5 -20.5s35.667 -33.5 44 -59.5s12.5 -54.333 12.5 -85zM685 585c0 -43.333 5.49805 -76.166 16.498 -98.499s30.833 -33.5 59.5 -33.5s48.334 11.167 59.001 33.5s16 55.166 16 98.499c0 50.667 -5.66699 86.667 -17 108s-30.666 32 -57.999 32
c-26.667 0 -46 -10.833 -58 -32.5s-18 -57.5 -18 -107.5zM889.998 305h-259v40h259v-40z" />
    <glyph glyph-name="ordmasculine" unicode="&#xba;" horiz-adv-x="444" 
d="M403 167c0 -52.667 -12.999 -95 -38.999 -127c-29.333 -36.667 -71.333 -55 -126 -55c-77.333 0 -131 29.667 -161 89c-22 43.333 -33 109 -33 197c0 114 18.667 194.333 56 241c31.333 39.333 76.666 59 135.999 59c48.667 0 87 -14.833 115 -44.5
s44.333 -68.5 49 -116.5h-74c-3.33301 28.667 -11.333 50.667 -24 66c-15.333 18.667 -37.666 28 -66.999 28c-40 0 -69 -20 -87 -60c-14 -31.333 -21 -72.333 -21 -123h159v-65h-160c0 -56.667 5 -100 15 -130c16.667 -49.333 47 -74 91 -74c34 0 58.667 11.667 74 35
c11.333 18 18.666 44.667 21.999 80h75z" />
    <glyph glyph-name="ordmasculine" unicode="&#x454;" horiz-adv-x="444" 
d="M403 167c0 -52.667 -12.999 -95 -38.999 -127c-29.333 -36.667 -71.333 -55 -126 -55c-77.333 0 -131 29.667 -161 89c-22 43.333 -33 109 -33 197c0 114 18.667 194.333 56 241c31.333 39.333 76.666 59 135.999 59c48.667 0 87 -14.833 115 -44.5
s44.333 -68.5 49 -116.5h-74c-3.33301 28.667 -11.333 50.667 -24 66c-15.333 18.667 -37.666 28 -66.999 28c-40 0 -69 -20 -87 -60c-14 -31.333 -21 -72.333 -21 -123h159v-65h-160c0 -56.667 5 -100 15 -130c16.667 -49.333 47 -74 91 -74c34 0 58.667 11.667 74 35
c11.333 18 18.666 44.667 21.999 80h75z" />
    <glyph glyph-name="guillemotright" unicode="&#xbb;" 
d="M415 278l-151 -153v83l100 102l-100 102v83l151 -156v-61zM236 278l-151 -153v83l100 102l-100 102v83l151 -156v-61z" />
    <glyph glyph-name="onequarter" unicode="&#xbc;" horiz-adv-x="222" 
d="M13 -190l-0.000976562 72.999c14.667 0 26.334 0.666992 35.001 2s14.667 5.33301 18 12s5.66602 14.667 6.99902 24s2 18.333 2 27v23v585h79v-578c0 -65.333 -9.66699 -109.666 -29 -132.999s-56.666 -35 -111.999 -35zM153.999 649.999h-79v100h79v-100z" />
    <glyph glyph-name="onequarter" unicode="&#x458;" horiz-adv-x="222" 
d="M13 -190l-0.000976562 72.999c14.667 0 26.334 0.666992 35.001 2s14.667 5.33301 18 12s5.66602 14.667 6.99902 24s2 18.333 2 27v23v585h79v-578c0 -65.333 -9.66699 -109.666 -29 -132.999s-56.666 -35 -111.999 -35zM153.999 649.999h-79v100h79v-100z" />
    <glyph glyph-name="onehalf" unicode="&#xbd;" horiz-adv-x="556" 
d="M483 553l-83.001 0.00292969c0 42 -9.33301 74.667 -28 98c-20.667 26 -51 39 -91 39c-53.333 0 -90.666 -15 -111.999 -45c-14.667 -20.667 -22 -50.334 -22 -89.001c0 -50 23.667 -84 71 -102l119 -45c68 -25.333 113.667 -53 137 -83
c20.667 -26.667 31 -66.334 31 -119.001c0 -71.333 -20.667 -126.666 -62 -165.999s-98.333 -59 -171 -59c-45.333 0 -83.333 7.33301 -114 22c-40.667 19.333 -71 51.666 -91 96.999c-7.33301 16 -11.833 35.333 -13.5 58s-2.5 49 -2.5 79h83c0 -62.667 8 -106.667 24 -132
c20.667 -32.667 60 -49 118 -49c44 0 78.833 11 104.5 33s38.5 54.667 38.5 98c0 59.333 -16.667 98 -50 116c-2 1.33301 -26 10.666 -72 27.999c-32 12 -56.667 21 -74 27c-31.333 11.333 -55.666 21.666 -72.999 30.999c-33.333 17.333 -56.5 39.833 -69.5 67.5
s-19.5 61.834 -19.5 102.501c0 62 19.333 111.667 58 149s89 56 151 56c69.333 0 122.166 -17.833 158.499 -53.5s54.5 -88.5 54.5 -158.5z" />
    <glyph glyph-name="onehalf" unicode="&#x405;" horiz-adv-x="556" 
d="M483 553l-83.001 0.00292969c0 42 -9.33301 74.667 -28 98c-20.667 26 -51 39 -91 39c-53.333 0 -90.666 -15 -111.999 -45c-14.667 -20.667 -22 -50.334 -22 -89.001c0 -50 23.667 -84 71 -102l119 -45c68 -25.333 113.667 -53 137 -83
c20.667 -26.667 31 -66.334 31 -119.001c0 -71.333 -20.667 -126.666 -62 -165.999s-98.333 -59 -171 -59c-45.333 0 -83.333 7.33301 -114 22c-40.667 19.333 -71 51.666 -91 96.999c-7.33301 16 -11.833 35.333 -13.5 58s-2.5 49 -2.5 79h83c0 -62.667 8 -106.667 24 -132
c20.667 -32.667 60 -49 118 -49c44 0 78.833 11 104.5 33s38.5 54.667 38.5 98c0 59.333 -16.667 98 -50 116c-2 1.33301 -26 10.666 -72 27.999c-32 12 -56.667 21 -74 27c-31.333 11.333 -55.666 21.666 -72.999 30.999c-33.333 17.333 -56.5 39.833 -69.5 67.5
s-19.5 61.834 -19.5 102.501c0 62 19.333 111.667 58 149s89 56 151 56c69.333 0 122.166 -17.833 158.499 -53.5s54.5 -88.5 54.5 -158.5z" />
    <glyph glyph-name="threequarters" unicode="&#xbe;" horiz-adv-x="444" 
d="M380 407l-77 0.00292969c0 34.667 -6.33301 59.5 -19 74.5s-35.667 22.5 -69 22.5c-58.667 0 -88 -28 -88 -84c0 -36.667 17.667 -63.334 53 -80.001l60 -24c63.333 -28.667 100 -46.667 110 -54c33.333 -25.333 50 -60.666 50 -105.999
c0 -52.667 -17 -94.334 -51 -125.001s-79.667 -46 -137 -46c-27.333 0 -53.833 4.66699 -79.5 14s-45.167 24 -58.5 44c-14.667 19.333 -23.5 37.166 -26.5 53.499s-4.5 38.166 -4.5 65.499h75c0 -36.667 6.83301 -64.167 20.5 -82.5s38.167 -27.5 73.5 -27.5
c34 0 60.167 7.5 78.5 22.5s27.5 38.833 27.5 71.5c0 38.667 -22.667 67 -68 85c-23.333 8 -46.333 16.333 -69 25c-48.667 18 -82 36 -100 54c-24 24 -36 58.667 -36 104c0 47.333 15 85.333 45 114s69.333 43 118 43c56 0 98.667 -13.333 128 -40s44 -68 44 -124z" />
    <glyph glyph-name="threequarters" unicode="&#x455;" horiz-adv-x="444" 
d="M380 407l-77 0.00292969c0 34.667 -6.33301 59.5 -19 74.5s-35.667 22.5 -69 22.5c-58.667 0 -88 -28 -88 -84c0 -36.667 17.667 -63.334 53 -80.001l60 -24c63.333 -28.667 100 -46.667 110 -54c33.333 -25.333 50 -60.666 50 -105.999
c0 -52.667 -17 -94.334 -51 -125.001s-79.667 -46 -137 -46c-27.333 0 -53.833 4.66699 -79.5 14s-45.167 24 -58.5 44c-14.667 19.333 -23.5 37.166 -26.5 53.499s-4.5 38.166 -4.5 65.499h75c0 -36.667 6.83301 -64.167 20.5 -82.5s38.167 -27.5 73.5 -27.5
c34 0 60.167 7.5 78.5 22.5s27.5 38.833 27.5 71.5c0 38.667 -22.667 67 -68 85c-23.333 8 -46.333 16.333 -69 25c-48.667 18 -82 36 -100 54c-24 24 -36 58.667 -36 104c0 47.333 15 85.333 45 114s69.333 43 118 43c56 0 98.667 -13.333 128 -40s44 -68 44 -124z" />
    <glyph glyph-name="questiondown" unicode="&#xbf;" horiz-adv-x="222" 
d="M151 0h-79v556h79v-556zM-3 750h79v-100h-79v100zM226 650h-79v100h79v-100z" />
    <glyph glyph-name="questiondown" unicode="&#x457;" horiz-adv-x="222" 
d="M151 0h-79v556h79v-556zM-3 750h79v-100h-79v100zM226 650h-79v100h79v-100z" />
    <glyph glyph-name="Agrave" unicode="&#xc0;" horiz-adv-x="556" 
d="M11 0l214 750h110l211 -750h-92l-59 216h-237l-55 -216h-92zM376 291l-97 399l-101 -399h198z" />
    <glyph glyph-name="Agrave" unicode="&#x410;" horiz-adv-x="556" 
d="M11 0l214 750h110l211 -750h-92l-59 216h-237l-55 -216h-92zM376 291l-97 399l-101 -399h198z" />
    <glyph glyph-name="Aacute" unicode="&#xc1;" horiz-adv-x="556" 
d="M162 357l-0.000976562 -282h72c64.667 0 109.334 8 134.001 24c32.667 21.333 49 62 49 122c0 55.333 -17 93 -51 113c-26 15.333 -68.333 23 -127 23h-77zM453.999 750l0.000976562 -75h-292v-243h105c48 0 86.333 -4.66699 115 -14c23.333 -7.33301 43.333 -19 60 -35
c20.667 -19.333 36 -42.833 46 -70.5s15 -57.5 15 -89.5c0 -46.667 -7.33301 -86 -22 -118c-17.333 -38 -45.333 -65.667 -84 -83c-25.333 -10.667 -58.833 -17 -100.5 -19s-72.834 -3 -93.501 -3h-124v750h375z" />
    <glyph glyph-name="Aacute" unicode="&#x411;" horiz-adv-x="556" 
d="M162 357l-0.000976562 -282h72c64.667 0 109.334 8 134.001 24c32.667 21.333 49 62 49 122c0 55.333 -17 93 -51 113c-26 15.333 -68.333 23 -127 23h-77zM453.999 750l0.000976562 -75h-292v-243h105c48 0 86.333 -4.66699 115 -14c23.333 -7.33301 43.333 -19 60 -35
c20.667 -19.333 36 -42.833 46 -70.5s15 -57.5 15 -89.5c0 -46.667 -7.33301 -86 -22 -118c-17.333 -38 -45.333 -65.667 -84 -83c-25.333 -10.667 -58.833 -17 -100.5 -19s-72.834 -3 -93.501 -3h-124v750h375z" />
    <glyph glyph-name="Acircumflex" unicode="&#xc2;" horiz-adv-x="556" 
d="M162 75h130.999c44.667 0 76.334 11 95.001 33s28 58 28 108c0 64.667 -19.333 106 -58 124c-20 9.33301 -60.667 14 -122 14h-74v-279zM161.999 675v-246h74c57.333 0 96.333 6.66699 117 20c28 18 42 54 42 108c0 46.667 -10.833 78 -32.5 94s-64.167 24 -127.5 24h-73
zM276.999 0l-198.001 0.00195312v750h214c65.333 0 114 -17 146 -51c30 -31.333 45 -76.333 45 -135c0 -43.333 -7.66699 -77.333 -23 -102c-17.333 -28 -47 -49 -89 -63c46.667 -6.66699 80.667 -26.334 102 -59.001c18.667 -28.667 28 -68.334 28 -119.001
c0 -73.333 -19.167 -128.5 -57.5 -165.5s-94.166 -55.5 -167.499 -55.5z" />
    <glyph glyph-name="Acircumflex" unicode="&#x412;" horiz-adv-x="556" 
d="M162 75h130.999c44.667 0 76.334 11 95.001 33s28 58 28 108c0 64.667 -19.333 106 -58 124c-20 9.33301 -60.667 14 -122 14h-74v-279zM161.999 675v-246h74c57.333 0 96.333 6.66699 117 20c28 18 42 54 42 108c0 46.667 -10.833 78 -32.5 94s-64.167 24 -127.5 24h-73
zM276.999 0l-198.001 0.00195312v750h214c65.333 0 114 -17 146 -51c30 -31.333 45 -76.333 45 -135c0 -43.333 -7.66699 -77.333 -23 -102c-17.333 -28 -47 -49 -89 -63c46.667 -6.66699 80.667 -26.334 102 -59.001c18.667 -28.667 28 -68.334 28 -119.001
c0 -73.333 -19.167 -128.5 -57.5 -165.5s-94.166 -55.5 -167.499 -55.5z" />
    <glyph glyph-name="Atilde" unicode="&#xc3;" horiz-adv-x="444" 
d="M157 0h-83v750h352v-75h-269v-675z" />
    <glyph glyph-name="Atilde" unicode="&#x413;" horiz-adv-x="444" 
d="M157 0h-83v750h352v-75h-269v-675z" />
    <glyph glyph-name="Adieresis" unicode="&#xc4;" horiz-adv-x="573" 
d="M92 750l402 -0.000976562v-677h46v-181h-80v108h-371v-108h-81v181h29c22 10.667 36.667 32.334 44 65.001s11 81.667 11 147v465zM411 676.999h-239v-401c0 -44 -2.66699 -83.167 -8 -117.5s-15.333 -62.833 -30 -85.5h277v604z" />
    <glyph glyph-name="Adieresis" unicode="&#x414;" horiz-adv-x="573" 
d="M92 750l402 -0.000976562v-677h46v-181h-80v108h-371v-108h-81v181h29c22 10.667 36.667 32.334 44 65.001s11 81.667 11 147v465zM411 676.999h-239v-401c0 -44 -2.66699 -83.167 -8 -117.5s-15.333 -62.833 -30 -85.5h277v604z" />
    <glyph glyph-name="Aring" unicode="&#xc5;" 
d="M456 0h-377v750h375v-75h-292v-248h274v-75h-274v-277h294v-75z" />
    <glyph glyph-name="Aring" unicode="&#x415;" 
d="M456 0h-377v750h375v-75h-292v-248h274v-75h-274v-277h294v-75z" />
    <glyph glyph-name="AE" unicode="&#xc6;" horiz-adv-x="870" 
d="M476 750v-385l273 385h104l-239 -314l246 -436h-102l-203 362l-78 -102v-260h-84v260l-78 102l-203 -362h-102l246 436l-239 314h104l273 -385v385h82z" />
    <glyph glyph-name="AE" unicode="&#x416;" horiz-adv-x="870" 
d="M476 750v-385l273 385h104l-239 -314l246 -436h-102l-203 362l-78 -102v-260h-84v260l-78 102l-203 -362h-102l246 436l-239 314h104l273 -385v385h82z" />
    <glyph glyph-name="Ccedilla" unicode="&#xc7;" horiz-adv-x="556" 
d="M214 354l-0.00195312 75.0029h30c48 0 82.667 6.66699 104 20c32.667 20 49 58.333 49 115c0 39.333 -9.66699 69.666 -29 90.999c-21.333 23.333 -52.666 35 -93.999 35c-47.333 0 -81 -13.333 -101 -40c-16.667 -22 -25 -54 -25 -96h-85c0 64 16.667 114.333 50 151
c36.667 40 90.667 60 162 60c64 0 115.167 -17.333 153.5 -52s57.5 -81 57.5 -139c0 -44.667 -8.33301 -80.334 -25 -107.001c-18.667 -30 -49.667 -52 -93 -66c45.333 -12 80.333 -34.167 105 -66.5s37 -70.5 37 -114.5c0 -75.333 -18.667 -133 -56 -173
c-40.667 -43.333 -102 -65 -184 -65c-80 0 -138.333 22.667 -175 68c-32 39.333 -48 96.666 -48 171.999l87 -1c-0.666992 -4 -1 -8.16699 -1 -12.5v-10.5c0 -42 10 -74.667 30 -98c24.667 -28.667 63.334 -43 116.001 -43c46.667 0 82 12.5 106 37.5s36 58.167 36 99.5
c0 65.333 -16 109 -48 131c-28 19.333 -81 29 -159 29z" />
    <glyph glyph-name="Ccedilla" unicode="&#x417;" horiz-adv-x="556" 
d="M214 354l-0.00195312 75.0029h30c48 0 82.667 6.66699 104 20c32.667 20 49 58.333 49 115c0 39.333 -9.66699 69.666 -29 90.999c-21.333 23.333 -52.666 35 -93.999 35c-47.333 0 -81 -13.333 -101 -40c-16.667 -22 -25 -54 -25 -96h-85c0 64 16.667 114.333 50 151
c36.667 40 90.667 60 162 60c64 0 115.167 -17.333 153.5 -52s57.5 -81 57.5 -139c0 -44.667 -8.33301 -80.334 -25 -107.001c-18.667 -30 -49.667 -52 -93 -66c45.333 -12 80.333 -34.167 105 -66.5s37 -70.5 37 -114.5c0 -75.333 -18.667 -133 -56 -173
c-40.667 -43.333 -102 -65 -184 -65c-80 0 -138.333 22.667 -175 68c-32 39.333 -48 96.666 -48 171.999l87 -1c-0.666992 -4 -1 -8.16699 -1 -12.5v-10.5c0 -42 10 -74.667 30 -98c24.667 -28.667 63.334 -43 116.001 -43c46.667 0 82 12.5 106 37.5s36 58.167 36 99.5
c0 65.333 -16 109 -48 131c-28 19.333 -81 29 -159 29z" />
    <glyph glyph-name="Egrave" unicode="&#xc8;" horiz-adv-x="611" 
d="M160 138l-2 -84l14.5 44c5 15.333 9.5 28 13.5 38l213 614h135v-750h-83v598l2 115c-8.66699 -43.333 -18.667 -81 -30 -113l-210 -600h-136v750h83v-612z" />
    <glyph glyph-name="Egrave" unicode="&#x418;" horiz-adv-x="611" 
d="M160 138l-2 -84l14.5 44c5 15.333 9.5 28 13.5 38l213 614h135v-750h-83v598l2 115c-8.66699 -43.333 -18.667 -81 -30 -113l-210 -600h-136v750h83v-612z" />
    <glyph glyph-name="Eacute" unicode="&#xc9;" horiz-adv-x="611" 
d="M160 138l-2 -84l14.5 44c5 15.333 9.5 28 13.5 38l213 614h135v-750h-83v598l2 115c-8.66699 -43.333 -18.667 -81 -30 -113l-210 -600h-136v750h83v-612zM152 959h49c6 -26.667 18.167 -46.167 36.5 -58.5s41.5 -18.5 69.5 -18.5c29.333 0 52.5 5.83301 69.5 17.5
s28.833 31.5 35.5 59.5h49c0 -45.333 -14.5 -79.333 -43.5 -102s-67.167 -34 -114.5 -34c-44 0 -79.333 10.667 -106 32c-30 24 -45 58.667 -45 104z" />
    <glyph glyph-name="Eacute" unicode="&#x419;" horiz-adv-x="611" 
d="M160 138l-2 -84l14.5 44c5 15.333 9.5 28 13.5 38l213 614h135v-750h-83v598l2 115c-8.66699 -43.333 -18.667 -81 -30 -113l-210 -600h-136v750h83v-612zM152 959h49c6 -26.667 18.167 -46.167 36.5 -58.5s41.5 -18.5 69.5 -18.5c29.333 0 52.5 5.83301 69.5 17.5
s28.833 31.5 35.5 59.5h49c0 -45.333 -14.5 -79.333 -43.5 -102s-67.167 -34 -114.5 -34c-44 0 -79.333 10.667 -106 32c-30 24 -45 58.667 -45 104z" />
    <glyph glyph-name="Ecircumflex" unicode="&#xca;" horiz-adv-x="556" 
d="M163 0h-84v750h83v-385l273 385h104l-239 -314l246 -436h-102l-203 362l-78 -102v-260z" />
    <glyph glyph-name="Ecircumflex" unicode="&#x41a;" horiz-adv-x="556" 
d="M163 0h-84v750h83v-385l273 385h104l-239 -314l246 -436h-102l-203 362l-78 -102v-260z" />
    <glyph glyph-name="Edieresis" unicode="&#xcb;" horiz-adv-x="573" 
d="M411 677h-239v-404c0 -99.333 -6.66699 -166.666 -20 -201.999c-22.667 -59.333 -70.667 -89 -144 -89v82c38 0 62.333 18.333 73 55c7.33301 25.333 11 79.666 11 162.999v468h402v-750h-83v677z" />
    <glyph glyph-name="Edieresis" unicode="&#x41b;" horiz-adv-x="573" 
d="M411 677h-239v-404c0 -99.333 -6.66699 -166.666 -20 -201.999c-22.667 -59.333 -70.667 -89 -144 -89v82c38 0 62.333 18.333 73 55c7.33301 25.333 11 79.666 11 162.999v468h402v-750h-83v677z" />
    <glyph glyph-name="Igrave" unicode="&#xcc;" horiz-adv-x="778" 
d="M407 166l149 584h146v-750h-83v618v95l-25 -101l-157 -612h-99l-157 621l-22 92v-97v-616h-83v750h147l147 -585c5.33301 -22 9.33301 -40.5 12 -55.5s4 -33.5 4 -55.5c3.33301 18.667 5.66602 32.667 6.99902 42c4.66699 26.667 9.33398 50 14.001 70z" />
    <glyph glyph-name="Igrave" unicode="&#x41c;" horiz-adv-x="778" 
d="M407 166l149 584h146v-750h-83v618v95l-25 -101l-157 -612h-99l-157 621l-22 92v-97v-616h-83v750h147l147 -585c5.33301 -22 9.33301 -40.5 12 -55.5s4 -33.5 4 -55.5c3.33301 18.667 5.66602 32.667 6.99902 42c4.66699 26.667 9.33398 50 14.001 70z" />
    <glyph glyph-name="Iacute" unicode="&#xcd;" horiz-adv-x="611" 
d="M162 0h-83v750h83v-313h287v313h83v-750h-83v362h-287v-362z" />
    <glyph glyph-name="Iacute" unicode="&#x41d;" horiz-adv-x="611" 
d="M162 0h-83v750h83v-313h287v313h83v-750h-83v362h-287v-362z" />
    <glyph glyph-name="Icircumflex" unicode="&#xce;" horiz-adv-x="611" 
d="M59 391c0 144 23.666 244.333 70.999 301c40.667 48.667 100 73 178 73c76.667 0 134.667 -24 174 -72c47.333 -57.333 71 -158 71 -302c0 -82.667 -5 -148.667 -15 -198c-13.333 -66.667 -36.666 -117 -69.999 -151c-38.667 -40 -92.667 -60 -162 -60
c-68.667 0 -122.334 19.667 -161.001 59c-33.333 34 -56.666 84.333 -69.999 151c-10.667 52.667 -16 119 -16 199zM466.999 389c0 94 -10.666 164.998 -31.999 212.998c-26 58.667 -69.667 88 -131 88c-58.667 0 -101 -29.333 -127 -88
c-21.333 -48.667 -32 -119.667 -32 -213c0 -119.333 9.33301 -201.666 28 -246.999c23.333 -56.667 67.666 -85 132.999 -85c64.667 0 108.667 28 132 84c19.333 46.667 29 129.334 29 248.001z" />
    <glyph glyph-name="Icircumflex" unicode="&#x41e;" horiz-adv-x="611" 
d="M59 391c0 144 23.666 244.333 70.999 301c40.667 48.667 100 73 178 73c76.667 0 134.667 -24 174 -72c47.333 -57.333 71 -158 71 -302c0 -82.667 -5 -148.667 -15 -198c-13.333 -66.667 -36.666 -117 -69.999 -151c-38.667 -40 -92.667 -60 -162 -60
c-68.667 0 -122.334 19.667 -161.001 59c-33.333 34 -56.666 84.333 -69.999 151c-10.667 52.667 -16 119 -16 199zM466.999 389c0 94 -10.666 164.998 -31.999 212.998c-26 58.667 -69.667 88 -131 88c-58.667 0 -101 -29.333 -127 -88
c-21.333 -48.667 -32 -119.667 -32 -213c0 -119.333 9.33301 -201.666 28 -246.999c23.333 -56.667 67.666 -85 132.999 -85c64.667 0 108.667 28 132 84c19.333 46.667 29 129.334 29 248.001z" />
    <glyph glyph-name="Idieresis" unicode="&#xcf;" horiz-adv-x="611" 
d="M162 0h-83v750h453v-750h-83v675h-287v-675z" />
    <glyph glyph-name="Idieresis" unicode="&#x41f;" horiz-adv-x="611" 
d="M162 0h-83v750h453v-750h-83v675h-287v-675z" />
    <glyph glyph-name="Eth" unicode="&#xd0;" horiz-adv-x="556" 
d="M162 675l-0.000976562 -282h81c64.667 0 109.334 8 134.001 24c32.667 21.333 49 62 49 122c0 55.333 -17 93 -51 113c-26 15.333 -68.333 23 -127 23h-86zM161.999 0h-82.999v750h197c48 0 86.333 -4.66699 115 -14c23.333 -7.33301 43.333 -19 60 -35
c20.667 -19.333 36 -42.833 46 -70.5s15 -57.5 15 -89.5c0 -46.667 -7.33301 -86 -22 -118c-17.333 -38 -45.333 -65.667 -84 -83c-25.333 -10.667 -58.833 -17 -100.5 -19s-72.834 -3 -93.501 -3h-50v-318z" />
    <glyph glyph-name="Eth" unicode="&#x420;" horiz-adv-x="556" 
d="M162 675l-0.000976562 -282h81c64.667 0 109.334 8 134.001 24c32.667 21.333 49 62 49 122c0 55.333 -17 93 -51 113c-26 15.333 -68.333 23 -127 23h-86zM161.999 0h-82.999v750h197c48 0 86.333 -4.66699 115 -14c23.333 -7.33301 43.333 -19 60 -35
c20.667 -19.333 36 -42.833 46 -70.5s15 -57.5 15 -89.5c0 -46.667 -7.33301 -86 -22 -118c-17.333 -38 -45.333 -65.667 -84 -83c-25.333 -10.667 -58.833 -17 -100.5 -19s-72.834 -3 -93.501 -3h-50v-318z" />
    <glyph glyph-name="Ntilde" unicode="&#xd1;" horiz-adv-x="556" 
d="M503 525l-82.999 -0.00195312c0 50 -9.33301 88.667 -28 116c-22.667 32.667 -58.334 49 -107.001 49c-62.667 0 -105 -38.333 -127 -115c-12.667 -43.333 -19 -106.333 -19 -189c0 -92 5.33301 -159.333 16 -202c21.333 -84.667 64.666 -127 129.999 -127
c44.667 0 77.334 16.667 98.001 50c15.333 24.667 26 62.334 32 113.001l5 51h83l-4 -46c0 -34 -3 -62.667 -9 -86s-17.667 -47.666 -35 -72.999c-20 -27.333 -43.333 -48.166 -70 -62.499s-57.667 -21.5 -93 -21.5c-71.333 0 -126 21.333 -164 64
c-31.333 35.333 -52.666 86.666 -63.999 153.999c-7.33301 44.667 -11 106 -11 184c0 70 4.66699 127.667 14 173c13.333 64 35.666 113 66.999 147c38 40.667 90.333 61 157 61c68.667 0 121.667 -23 159 -69c35.333 -43.333 53 -100.333 53 -171z" />
    <glyph glyph-name="Ntilde" unicode="&#x421;" horiz-adv-x="556" 
d="M503 525l-82.999 -0.00195312c0 50 -9.33301 88.667 -28 116c-22.667 32.667 -58.334 49 -107.001 49c-62.667 0 -105 -38.333 -127 -115c-12.667 -43.333 -19 -106.333 -19 -189c0 -92 5.33301 -159.333 16 -202c21.333 -84.667 64.666 -127 129.999 -127
c44.667 0 77.334 16.667 98.001 50c15.333 24.667 26 62.334 32 113.001l5 51h83l-4 -46c0 -34 -3 -62.667 -9 -86s-17.667 -47.666 -35 -72.999c-20 -27.333 -43.333 -48.166 -70 -62.499s-57.667 -21.5 -93 -21.5c-71.333 0 -126 21.333 -164 64
c-31.333 35.333 -52.666 86.666 -63.999 153.999c-7.33301 44.667 -11 106 -11 184c0 70 4.66699 127.667 14 173c13.333 64 35.666 113 66.999 147c38 40.667 90.333 61 157 61c68.667 0 121.667 -23 159 -69c35.333 -43.333 53 -100.333 53 -171z" />
    <glyph glyph-name="Ograve" unicode="&#xd2;" 
d="M15 675v75h471v-75h-194v-675h-83v675h-194z" />
    <glyph glyph-name="Ograve" unicode="&#x422;" 
d="M15 675v75h471v-75h-194v-675h-83v675h-194z" />
    <glyph glyph-name="Oacute" unicode="&#xd3;" horiz-adv-x="556" 
d="M298 268l154.998 481.999h92l-214 -615c-16 -49.333 -33 -85.333 -51 -108c-24 -30 -55 -45 -93 -45l-51 3v76l38 -3c14.667 0 27.834 4.33301 39.501 13s21.834 24.334 30.501 47.001l19 48l-252 584h95z" />
    <glyph glyph-name="Oacute" unicode="&#x423;" horiz-adv-x="556" 
d="M298 268l154.998 481.999h92l-214 -615c-16 -49.333 -33 -85.333 -51 -108c-24 -30 -55 -45 -93 -45l-51 3v76l38 -3c14.667 0 27.834 4.33301 39.501 13s21.834 24.334 30.501 47.001l19 48l-252 584h95z" />
    <glyph glyph-name="Ocircumflex" unicode="&#xd4;" horiz-adv-x="778" 
d="M347 750h83v-118h38c86 0 152.833 -21.833 200.5 -65.5s71.5 -104.834 71.5 -183.501c0 -76.667 -24.5 -140.167 -73.5 -190.5s-108.5 -75.5 -178.5 -75.5h-58v-117h-83v117h-59c-69.333 0 -128.5 25.167 -177.5 75.5s-73.5 113.833 -73.5 190.5
c0 78.667 23.5 139.834 70.5 183.501s113.833 65.5 200.5 65.5h39v118zM347 188l0.000976562 375h-56c-50.667 0 -91.834 -17.167 -123.501 -51.5s-47.5 -78.833 -47.5 -133.5c0 -60 20 -107.333 60 -142c37.333 -32 85 -48 143 -48h24zM430.001 563l0.000976562 -375h23
c59.333 0 107.333 15.667 144 47c40 34 60 81.667 60 143c0 54.667 -15.833 99.167 -47.5 133.5s-72.834 51.5 -123.501 51.5h-56z" />
    <glyph glyph-name="Ocircumflex" unicode="&#x424;" horiz-adv-x="778" 
d="M347 750h83v-118h38c86 0 152.833 -21.833 200.5 -65.5s71.5 -104.834 71.5 -183.501c0 -76.667 -24.5 -140.167 -73.5 -190.5s-108.5 -75.5 -178.5 -75.5h-58v-117h-83v117h-59c-69.333 0 -128.5 25.167 -177.5 75.5s-73.5 113.833 -73.5 190.5
c0 78.667 23.5 139.834 70.5 183.501s113.833 65.5 200.5 65.5h39v118zM347 188l0.000976562 375h-56c-50.667 0 -91.834 -17.167 -123.501 -51.5s-47.5 -78.833 -47.5 -133.5c0 -60 20 -107.333 60 -142c37.333 -32 85 -48 143 -48h24zM430.001 563l0.000976562 -375h23
c59.333 0 107.333 15.667 144 47c40 34 60 81.667 60 143c0 54.667 -15.833 99.167 -47.5 133.5s-72.834 51.5 -123.501 51.5h-56z" />
    <glyph glyph-name="Otilde" unicode="&#xd5;" horiz-adv-x="556" 
d="M17 0l213 385l-207 365h98l157 -293l157 293h98l-206 -365l212 -385h-102l-159 314l-162 -314h-99z" />
    <glyph glyph-name="Otilde" unicode="&#x425;" horiz-adv-x="556" 
d="M17 0l213 385l-207 365h98l157 -293l157 293h98l-206 -365l212 -385h-102l-159 314l-162 -314h-99z" />
    <glyph glyph-name="Odieresis" unicode="&#xd6;" horiz-adv-x="611" 
d="M532 75h46v-183h-80v108h-419v750h83v-675h287v675h83v-675z" />
    <glyph glyph-name="Odieresis" unicode="&#x426;" horiz-adv-x="611" 
d="M532 75h46v-183h-80v108h-419v750h83v-675h287v675h83v-675z" />
    <glyph glyph-name="multiply" unicode="&#xd7;" horiz-adv-x="556" 
d="M394 436l0.000976562 314.001h83v-750h-83v363c-31.333 -17.333 -60.833 -30.5 -88.5 -39.5s-59.834 -13.5 -96.501 -13.5c-44 0 -82 14.667 -114 44s-48 68.333 -48 117v279h82v-265c0 -32.667 9.5 -57.834 28.5 -75.501s43.833 -26.5 74.5 -26.5
c28.667 0 57.167 4.83301 85.5 14.5s53.833 22.5 76.5 38.5z" />
    <glyph glyph-name="multiply" unicode="&#x427;" horiz-adv-x="556" 
d="M394 436l0.000976562 314.001h83v-750h-83v363c-31.333 -17.333 -60.833 -30.5 -88.5 -39.5s-59.834 -13.5 -96.501 -13.5c-44 0 -82 14.667 -114 44s-48 68.333 -48 117v279h82v-265c0 -32.667 9.5 -57.834 28.5 -75.501s43.833 -26.5 74.5 -26.5
c28.667 0 57.167 4.83301 85.5 14.5s53.833 22.5 76.5 38.5z" />
    <glyph glyph-name="Oslash" unicode="&#xd8;" horiz-adv-x="814" 
d="M448 75h203v675h83v-750h-655v750h83v-675h203v675h83v-675z" />
    <glyph glyph-name="Oslash" unicode="&#x428;" horiz-adv-x="814" 
d="M448 75h203v675h83v-750h-655v750h83v-675h203v675h83v-675z" />
    <glyph glyph-name="Ugrave" unicode="&#xd9;" horiz-adv-x="814" 
d="M734 75h46v-183h-80v108h-621v750h83v-675h203v675h83v-675h203v675h83v-675z" />
    <glyph glyph-name="Ugrave" unicode="&#x429;" horiz-adv-x="814" 
d="M734 75h46v-183h-80v108h-621v750h83v-675h203v675h83v-675h203v675h83v-675z" />
    <glyph glyph-name="Uacute" unicode="&#xda;" horiz-adv-x="611" 
d="M217 357l-0.000976562 -282h81c64.667 0 109.334 8 134.001 24c32.667 21.333 49 62 49 122c0 55.333 -17 93 -51 113c-26 15.333 -68.333 23 -127 23h-86zM133.999 675h-118.999v75h202v-318h114c48 0 86.333 -4.66699 115 -14c23.333 -7.33301 43.333 -19 60 -35
c20.667 -19.333 36 -42.833 46 -70.5s15 -57.5 15 -89.5c0 -46.667 -7.33301 -86 -22 -118c-17.333 -38 -45.333 -65.667 -84 -83c-25.333 -10.667 -58.833 -17 -100.5 -19s-72.834 -3 -93.501 -3h-133v675z" />
    <glyph glyph-name="Uacute" unicode="&#x42a;" horiz-adv-x="611" 
d="M217 357l-0.000976562 -282h81c64.667 0 109.334 8 134.001 24c32.667 21.333 49 62 49 122c0 55.333 -17 93 -51 113c-26 15.333 -68.333 23 -127 23h-86zM133.999 675h-118.999v75h202v-318h114c48 0 86.333 -4.66699 115 -14c23.333 -7.33301 43.333 -19 60 -35
c20.667 -19.333 36 -42.833 46 -70.5s15 -57.5 15 -89.5c0 -46.667 -7.33301 -86 -22 -118c-17.333 -38 -45.333 -65.667 -84 -83c-25.333 -10.667 -58.833 -17 -100.5 -19s-72.834 -3 -93.501 -3h-133v675z" />
    <glyph glyph-name="Ucircumflex" unicode="&#xdb;" horiz-adv-x="758" 
d="M679 0h-83v750h83v-750zM162 357l-0.000976562 -282h81c64.667 0 109.334 8 134.001 24c32.667 21.333 49 62 49 122c0 55.333 -17 93 -51 113c-26 15.333 -68.333 23 -127 23h-86zM78.999 750h83.001v-318h114c48 0 86.333 -4.66699 115 -14
c23.333 -7.33301 43.333 -19 60 -35c20.667 -19.333 36 -42.833 46 -70.5s15 -57.5 15 -89.5c0 -46.667 -7.33301 -86 -22 -118c-17.333 -38 -45.333 -65.667 -84 -83c-25.333 -10.667 -58.833 -17 -100.5 -19s-72.834 -3 -93.501 -3h-133v750z" />
    <glyph glyph-name="Ucircumflex" unicode="&#x42b;" horiz-adv-x="758" 
d="M679 0h-83v750h83v-750zM162 357l-0.000976562 -282h81c64.667 0 109.334 8 134.001 24c32.667 21.333 49 62 49 122c0 55.333 -17 93 -51 113c-26 15.333 -68.333 23 -127 23h-86zM78.999 750h83.001v-318h114c48 0 86.333 -4.66699 115 -14
c23.333 -7.33301 43.333 -19 60 -35c20.667 -19.333 36 -42.833 46 -70.5s15 -57.5 15 -89.5c0 -46.667 -7.33301 -86 -22 -118c-17.333 -38 -45.333 -65.667 -84 -83c-25.333 -10.667 -58.833 -17 -100.5 -19s-72.834 -3 -93.501 -3h-133v750z" />
    <glyph glyph-name="Udieresis" unicode="&#xdc;" horiz-adv-x="556" 
d="M162 357l-0.000976562 -282h81c64.667 0 109.334 8 134.001 24c32.667 21.333 49 62 49 122c0 55.333 -17 93 -51 113c-26 15.333 -68.333 23 -127 23h-86zM78.999 750h83.001v-318h114c48 0 86.333 -4.66699 115 -14c23.333 -7.33301 43.333 -19 60 -35
c20.667 -19.333 36 -42.833 46 -70.5s15 -57.5 15 -89.5c0 -46.667 -7.33301 -86 -22 -118c-17.333 -38 -45.333 -65.667 -84 -83c-25.333 -10.667 -58.833 -17 -100.5 -19s-72.834 -3 -93.501 -3h-133v750z" />
    <glyph glyph-name="Udieresis" unicode="&#x42c;" horiz-adv-x="556" 
d="M162 357l-0.000976562 -282h81c64.667 0 109.334 8 134.001 24c32.667 21.333 49 62 49 122c0 55.333 -17 93 -51 113c-26 15.333 -68.333 23 -127 23h-86zM78.999 750h83.001v-318h114c48 0 86.333 -4.66699 115 -14c23.333 -7.33301 43.333 -19 60 -35
c20.667 -19.333 36 -42.833 46 -70.5s15 -57.5 15 -89.5c0 -46.667 -7.33301 -86 -22 -118c-17.333 -38 -45.333 -65.667 -84 -83c-25.333 -10.667 -58.833 -17 -100.5 -19s-72.834 -3 -93.501 -3h-133v750z" />
    <glyph glyph-name="Yacute" unicode="&#xdd;" horiz-adv-x="573" 
d="M435 429c0 70.667 -9 127.329 -27 169.996c-26 60.667 -68.667 91 -128 91c-47.333 0 -82.666 -12.667 -105.999 -38c-19.333 -21.333 -31 -53.333 -35 -96h-84c0 62 18.667 111.667 56 149c40 40 94.333 60 163 60c69.333 0 123.666 -20.333 162.999 -61
c32.667 -33.333 55.667 -81.666 69 -144.999c10 -47.333 15 -105.666 15 -174.999c0 -77.333 -4 -138.333 -12 -183c-12 -68 -34.333 -119.667 -67 -155c-39.333 -42.667 -95.666 -64 -168.999 -64c-40.667 0 -74.667 6.83301 -102 20.5s-51.333 34.834 -72 63.501
c-15.333 22.667 -26.333 47.334 -33 74.001c-4 18 -7.66699 45 -11 81v6h84v-5c8 -66 24.667 -111 50 -135c21.333 -20 51.666 -30 90.999 -30c64 0 108.333 35.667 133 107c15.333 44.667 23 108 23 190h-225v75h224z" />
    <glyph glyph-name="Yacute" unicode="&#x42d;" horiz-adv-x="573" 
d="M435 429c0 70.667 -9 127.329 -27 169.996c-26 60.667 -68.667 91 -128 91c-47.333 0 -82.666 -12.667 -105.999 -38c-19.333 -21.333 -31 -53.333 -35 -96h-84c0 62 18.667 111.667 56 149c40 40 94.333 60 163 60c69.333 0 123.666 -20.333 162.999 -61
c32.667 -33.333 55.667 -81.666 69 -144.999c10 -47.333 15 -105.666 15 -174.999c0 -77.333 -4 -138.333 -12 -183c-12 -68 -34.333 -119.667 -67 -155c-39.333 -42.667 -95.666 -64 -168.999 -64c-40.667 0 -74.667 6.83301 -102 20.5s-51.333 34.834 -72 63.501
c-15.333 22.667 -26.333 47.334 -33 74.001c-4 18 -7.66699 45 -11 81v6h84v-5c8 -66 24.667 -111 50 -135c21.333 -20 51.666 -30 90.999 -30c64 0 108.333 35.667 133 107c15.333 44.667 23 108 23 190h-225v75h224z" />
    <glyph glyph-name="Thorn" unicode="&#xde;" horiz-adv-x="795" 
d="M650 389c0 97.333 -9.00195 168.331 -27.002 212.998c-24 58.667 -66.333 88 -127 88c-58.667 0 -99.667 -29.333 -123 -88c-18 -45.333 -27 -116.333 -27 -213c0 -121.333 8 -203.666 24 -246.999c20.667 -56.667 63.334 -85 128.001 -85s107.334 28 128.001 84
c16 42.667 24 125.334 24 248.001zM260.998 353.998h-99.001v-354h-83v750h83v-321h98c0 98 15 174.333 45 229c39.333 71.333 104.333 107 195 107c73.333 0 129 -24 167 -72c46 -58 69 -158.667 69 -302c0 -82.667 -4.66699 -148.667 -14 -198
c-12.667 -66.667 -35 -117 -67 -151c-37.333 -40 -89.666 -60 -156.999 -60c-90.667 0 -155 37.667 -193 113c-29.333 58.667 -44 145 -44 259z" />
    <glyph glyph-name="Thorn" unicode="&#x42e;" horiz-adv-x="795" 
d="M650 389c0 97.333 -9.00195 168.331 -27.002 212.998c-24 58.667 -66.333 88 -127 88c-58.667 0 -99.667 -29.333 -123 -88c-18 -45.333 -27 -116.333 -27 -213c0 -121.333 8 -203.666 24 -246.999c20.667 -56.667 63.334 -85 128.001 -85s107.334 28 128.001 84
c16 42.667 24 125.334 24 248.001zM260.998 353.998h-99.001v-354h-83v750h83v-321h98c0 98 15 174.333 45 229c39.333 71.333 104.333 107 195 107c73.333 0 129 -24 167 -72c46 -58 69 -158.667 69 -302c0 -82.667 -4.66699 -148.667 -14 -198
c-12.667 -66.667 -35 -117 -67 -151c-37.333 -40 -89.666 -60 -156.999 -60c-90.667 0 -155 37.667 -193 113c-29.333 58.667 -44 145 -44 259z" />
    <glyph glyph-name="germandbls" unicode="&#xdf;" horiz-adv-x="593" 
d="M431 330l-145 0.00195312c-46 0 -79.667 -13.667 -101 -41c-18 -22.667 -27 -55.334 -27 -98.001c0 -30 -2.16699 -63.667 -6.5 -101s-10.833 -67.333 -19.5 -90h-97v17c8.66699 0 15.667 6 21 18c2.66699 5.33301 5.33398 15 8.00098 29
c5.33301 39.333 9.33301 70.666 12 93.999s4 47.666 4 72.999c6 51.333 17.667 86.333 35 105s50 30.334 98 35.001c-44.667 7.33301 -79.834 25.5 -105.501 54.5s-38.5 65.833 -38.5 110.5c0 82 22.333 139.333 67 172c38 28 99.667 42 185 42h193v-750h-83v330z
M431 675.002h-117c-44.667 0 -78 -5.66699 -100 -17c-39.333 -20 -59 -58.333 -59 -115c0 -44 12 -78 36 -102s60.333 -36 109 -36h131v270z" />
    <glyph glyph-name="germandbls" unicode="&#x42f;" horiz-adv-x="593" 
d="M431 330l-145 0.00195312c-46 0 -79.667 -13.667 -101 -41c-18 -22.667 -27 -55.334 -27 -98.001c0 -30 -2.16699 -63.667 -6.5 -101s-10.833 -67.333 -19.5 -90h-97v17c8.66699 0 15.667 6 21 18c2.66699 5.33301 5.33398 15 8.00098 29
c5.33301 39.333 9.33301 70.666 12 93.999s4 47.666 4 72.999c6 51.333 17.667 86.333 35 105s50 30.334 98 35.001c-44.667 7.33301 -79.834 25.5 -105.501 54.5s-38.5 65.833 -38.5 110.5c0 82 22.333 139.333 67 172c38 28 99.667 42 185 42h193v-750h-83v330z
M431 675.002h-117c-44.667 0 -78 -5.66699 -100 -17c-39.333 -20 -59 -58.333 -59 -115c0 -44 12 -78 36 -102s60.333 -36 109 -36h131v270z" />
    <glyph glyph-name="agrave" unicode="&#xe0;" horiz-adv-x="444" 
d="M287 165v135.002c-16 -9.33301 -35.5 -19.333 -58.5 -30l-63 -29c-19 -8.66699 -32.5 -21.834 -40.5 -39.501s-12 -36.834 -12 -57.501c0 -30.667 5.5 -53.667 16.5 -69s31.5 -23 61.5 -23c22 0 41.667 7.33301 59 22c24.667 20.667 37 51 37 91zM417 58.002
l0.000976562 -58.0029l-18 -4c-36.667 0 -60.667 3.66699 -72 11c-14.667 10 -24 32.667 -28 68c-10.667 -25.333 -27.667 -46.666 -51 -63.999s-48 -26 -74 -26c-53.333 0 -90.5 13.667 -111.5 41s-31.5 68 -31.5 122c0 32.667 6.66699 60.334 20 83.001s33.333 40 60 52
c1.33301 0.666992 41.666 17 120.999 49c26.667 10.667 42 17.667 46 21c7.33301 6 11.666 12.833 12.999 20.5s2 22.167 2 43.5c0 31.333 -6.66699 53.666 -20 66.999s-36 20 -68 20c-33.333 0 -55.166 -7.33301 -65.499 -22s-15.5 -40 -15.5 -76h-71
c0 56.667 13.5 98.334 40.5 125.001s68.5 40 124.5 40c62 0 105 -18.333 129 -55c14.667 -22 22 -50 22 -84v-12v-319c0 -12 0.666992 -21.167 2 -27.5s5.33301 -11.166 12 -14.499c4 -1.33301 9.66699 -2 17 -2c8 0 13.667 0.333008 17 1z" />
    <glyph glyph-name="agrave" unicode="&#x430;" horiz-adv-x="444" 
d="M287 165v135.002c-16 -9.33301 -35.5 -19.333 -58.5 -30l-63 -29c-19 -8.66699 -32.5 -21.834 -40.5 -39.501s-12 -36.834 -12 -57.501c0 -30.667 5.5 -53.667 16.5 -69s31.5 -23 61.5 -23c22 0 41.667 7.33301 59 22c24.667 20.667 37 51 37 91zM417 58.002
l0.000976562 -58.0029l-18 -4c-36.667 0 -60.667 3.66699 -72 11c-14.667 10 -24 32.667 -28 68c-10.667 -25.333 -27.667 -46.666 -51 -63.999s-48 -26 -74 -26c-53.333 0 -90.5 13.667 -111.5 41s-31.5 68 -31.5 122c0 32.667 6.66699 60.334 20 83.001s33.333 40 60 52
c1.33301 0.666992 41.666 17 120.999 49c26.667 10.667 42 17.667 46 21c7.33301 6 11.666 12.833 12.999 20.5s2 22.167 2 43.5c0 31.333 -6.66699 53.666 -20 66.999s-36 20 -68 20c-33.333 0 -55.166 -7.33301 -65.499 -22s-15.5 -40 -15.5 -76h-71
c0 56.667 13.5 98.334 40.5 125.001s68.5 40 124.5 40c62 0 105 -18.333 129 -55c14.667 -22 22 -50 22 -84v-12v-319c0 -12 0.666992 -21.167 2 -27.5s5.33301 -11.166 12 -14.499c4 -1.33301 9.66699 -2 17 -2c8 0 13.667 0.333008 17 1z" />
    <glyph glyph-name="aacute" unicode="&#xe1;" 
d="M368 272c0 84 -9.00098 143.667 -27.001 179s-48 53 -90 53c-41.333 0 -71.166 -17.833 -89.499 -53.5s-27.5 -95.167 -27.5 -178.5c0 -70.667 8 -123.667 24 -159c18.667 -40.667 49.667 -61 93 -61c44 0 75.333 20.333 94 61c15.333 34 23 87 23 159zM366.999 779
l54.999 0.00195312c0 -37.333 -13 -65 -39 -83c-23.333 -16 -67.666 -31.333 -132.999 -46c-38.667 -8.66699 -68.667 -27.334 -90 -56.001c-14.667 -19.333 -26.334 -51 -35.001 -95c16 20 34.333 36 55 48c24.667 14.667 50 22 76 22c77.333 0 131.333 -33.333 162 -100
c20.667 -45.333 31 -109.666 31 -192.999c0 -84 -10.667 -148 -32 -192c-32 -66 -89.667 -99 -173 -99c-60 0 -105.667 21.667 -137 65c-36.667 51.333 -55 142.666 -55 273.999c0 104.667 10.667 187.667 32 249c28.667 82.667 77.334 132 146.001 148
c45.333 10.667 70.333 16.667 75 18c41.333 11.333 62 24.666 62 39.999z" />
    <glyph glyph-name="aacute" unicode="&#x431;" 
d="M368 272c0 84 -9.00098 143.667 -27.001 179s-48 53 -90 53c-41.333 0 -71.166 -17.833 -89.499 -53.5s-27.5 -95.167 -27.5 -178.5c0 -70.667 8 -123.667 24 -159c18.667 -40.667 49.667 -61 93 -61c44 0 75.333 20.333 94 61c15.333 34 23 87 23 159zM366.999 779
l54.999 0.00195312c0 -37.333 -13 -65 -39 -83c-23.333 -16 -67.666 -31.333 -132.999 -46c-38.667 -8.66699 -68.667 -27.334 -90 -56.001c-14.667 -19.333 -26.334 -51 -35.001 -95c16 20 34.333 36 55 48c24.667 14.667 50 22 76 22c77.333 0 131.333 -33.333 162 -100
c20.667 -45.333 31 -109.666 31 -192.999c0 -84 -10.667 -148 -32 -192c-32 -66 -89.667 -99 -173 -99c-60 0 -105.667 21.667 -137 65c-36.667 51.333 -55 142.666 -55 273.999c0 104.667 10.667 187.667 32 249c28.667 82.667 77.334 132 146.001 148
c45.333 10.667 70.333 16.667 75 18c41.333 11.333 62 24.666 62 39.999z" />
    <glyph glyph-name="acircumflex" unicode="&#xe2;" horiz-adv-x="462" 
d="M413 160c0 -62 -19.999 -105.334 -59.999 -130.001c-32.667 -20 -83.334 -30 -152.001 -30h-128v556h161c26 0 48.333 -2 67 -6s35.334 -12 50.001 -24c32 -25.333 48 -61.666 48 -108.999c0 -29.333 -6.33301 -55 -19 -77s-32.334 -38 -59.001 -48
c30 -9.33301 52.833 -25.5 68.5 -48.5s23.5 -50.833 23.5 -83.5zM319.001 410.999c0 32.667 -12 55 -36 67c-17.333 8.66699 -46 13 -86 13h-45v-170h48c41.333 0 70.333 5.33301 87 16c21.333 13.333 32 38 32 74zM334.001 164.999c0 36 -12.667 61 -38 75
c-20 11.333 -51.667 17 -95 17h-49v-192h57c42.667 0 74.167 7.33301 94.5 22s30.5 40.667 30.5 78z" />
    <glyph glyph-name="acircumflex" unicode="&#x432;" horiz-adv-x="462" 
d="M413 160c0 -62 -19.999 -105.334 -59.999 -130.001c-32.667 -20 -83.334 -30 -152.001 -30h-128v556h161c26 0 48.333 -2 67 -6s35.334 -12 50.001 -24c32 -25.333 48 -61.666 48 -108.999c0 -29.333 -6.33301 -55 -19 -77s-32.334 -38 -59.001 -48
c30 -9.33301 52.833 -25.5 68.5 -48.5s23.5 -50.833 23.5 -83.5zM319.001 410.999c0 32.667 -12 55 -36 67c-17.333 8.66699 -46 13 -86 13h-45v-170h48c41.333 0 70.333 5.33301 87 16c21.333 13.333 32 38 32 74zM334.001 164.999c0 36 -12.667 61 -38 75
c-20 11.333 -51.667 17 -95 17h-49v-192h57c42.667 0 74.167 7.33301 94.5 22s30.5 40.667 30.5 78z" />
    <glyph glyph-name="atilde" unicode="&#xe3;" horiz-adv-x="388" 
d="M363 489h-212v-489h-78v556h290v-67z" />
    <glyph glyph-name="atilde" unicode="&#x433;" horiz-adv-x="388" 
d="M363 489h-212v-489h-78v556h290v-67z" />
    <glyph glyph-name="adieresis" unicode="&#xe4;" horiz-adv-x="480" 
d="M443 -108h-76v108h-276v-108h-76v173l34 2c14.667 9.33301 24.5 25.5 29.5 48.5s7.5 56.833 7.5 101.5v339h322v-491h35v-173zM329 65v425.998h-167v-283c0 -33.333 -1.83301 -61.166 -5.5 -83.499s-11.5 -42.166 -23.5 -59.499h196z" />
    <glyph glyph-name="adieresis" unicode="&#x434;" horiz-adv-x="480" 
d="M443 -108h-76v108h-276v-108h-76v173l34 2c14.667 9.33301 24.5 25.5 29.5 48.5s7.5 56.833 7.5 101.5v339h322v-491h35v-173zM329 65v425.998h-167v-283c0 -33.333 -1.83301 -61.166 -5.5 -83.499s-11.5 -42.166 -23.5 -59.499h196z" />
    <glyph glyph-name="aring" unicode="&#xe5;" horiz-adv-x="444" 
d="M125 336h188.001c0 50 -3.66699 86 -11 108c-13.333 40 -40 60 -80 60c-40.667 0 -68.334 -19.667 -83.001 -59c-9.33301 -24.667 -14 -61 -14 -109zM317.001 185h74c0 -58.667 -13.333 -105.667 -40 -141c-29.333 -39.333 -72 -59 -128 -59
c-56.667 0 -99.667 21 -129 63c-34 48.667 -51 125.667 -51 231c0 77.333 11 140.666 33 189.999c30 68 78.333 102 145 102c78.667 0 130 -33.667 154 -101c13.333 -37.333 20 -103.666 20 -198.999h-270v-38c0 -54 4.66699 -93.667 14 -119c15.333 -41.333 44 -62 86 -62
c34 0 58.667 14.333 74 43c12 22.667 18 52.667 18 90z" />
    <glyph glyph-name="aring" unicode="&#x435;" horiz-adv-x="444" 
d="M125 336h188.001c0 50 -3.66699 86 -11 108c-13.333 40 -40 60 -80 60c-40.667 0 -68.334 -19.667 -83.001 -59c-9.33301 -24.667 -14 -61 -14 -109zM317.001 185h74c0 -58.667 -13.333 -105.667 -40 -141c-29.333 -39.333 -72 -59 -128 -59
c-56.667 0 -99.667 21 -129 63c-34 48.667 -51 125.667 -51 231c0 77.333 11 140.666 33 189.999c30 68 78.333 102 145 102c78.667 0 130 -33.667 154 -101c13.333 -37.333 20 -103.666 20 -198.999h-270v-38c0 -54 4.66699 -93.667 14 -119c15.333 -41.333 44 -62 86 -62
c34 0 58.667 14.333 74 43c12 22.667 18 52.667 18 90z" />
    <glyph glyph-name="ae" unicode="&#xe6;" horiz-adv-x="667" 
d="M662 0h-92l-137 277l-60 -79v-198h-79v198l-60 79l-137 -277h-92l177 340l-172 216h94l190 -259v259h79v-259l190 259h94l-172 -216z" />
    <glyph glyph-name="ae" unicode="&#x436;" horiz-adv-x="667" 
d="M662 0h-92l-137 277l-60 -79v-198h-79v198l-60 79l-137 -277h-92l177 340l-172 216h94l190 -259v259h79v-259l190 259h94l-172 -216z" />
    <glyph glyph-name="ccedilla" unicode="&#xe7;" horiz-adv-x="444" 
d="M401 150c0 -65.333 -23.999 -111.665 -71.999 -138.998c-30 -17.333 -66 -26 -108 -26c-53.333 0 -95.166 11.667 -125.499 35s-47.833 56.333 -52.5 99l-2 48h74c0 -36.667 7.83301 -65.334 23.5 -86.001s42.834 -31 81.501 -31c30 0 54 9.66699 72 29s27 43.333 27 72
c0 30 -7.33301 53.667 -22 71c-18 21.333 -46 32 -84 32l-48 2v64l32 1c34.667 0 61.5 7.83301 80.5 23.5s28.5 40.5 28.5 74.5c0 24 -7.33301 44.167 -22 60.5s-36.334 24.5 -65.001 24.5c-30.667 0 -53.167 -9.16699 -67.5 -27.5s-21.5 -40.5 -21.5 -66.5h-76l2 33
c5.33301 41.333 22.166 73 50.499 95s65.166 33 110.499 33c52.667 0 94 -13 124 -39s45 -63.667 45 -113c0 -31.333 -6.33301 -56.333 -19 -75c-14.667 -21.333 -39.667 -38.333 -75 -51c36 -11.333 63.167 -29.333 81.5 -54s27.5 -54.334 27.5 -89.001z" />
    <glyph glyph-name="ccedilla" unicode="&#x437;" horiz-adv-x="444" 
d="M401 150c0 -65.333 -23.999 -111.665 -71.999 -138.998c-30 -17.333 -66 -26 -108 -26c-53.333 0 -95.166 11.667 -125.499 35s-47.833 56.333 -52.5 99l-2 48h74c0 -36.667 7.83301 -65.334 23.5 -86.001s42.834 -31 81.501 -31c30 0 54 9.66699 72 29s27 43.333 27 72
c0 30 -7.33301 53.667 -22 71c-18 21.333 -46 32 -84 32l-48 2v64l32 1c34.667 0 61.5 7.83301 80.5 23.5s28.5 40.5 28.5 74.5c0 24 -7.33301 44.167 -22 60.5s-36.334 24.5 -65.001 24.5c-30.667 0 -53.167 -9.16699 -67.5 -27.5s-21.5 -40.5 -21.5 -66.5h-76l2 33
c5.33301 41.333 22.166 73 50.499 95s65.166 33 110.499 33c52.667 0 94 -13 124 -39s45 -63.667 45 -113c0 -31.333 -6.33301 -56.333 -19 -75c-14.667 -21.333 -39.667 -38.333 -75 -51c36 -11.333 63.167 -29.333 81.5 -54s27.5 -54.334 27.5 -89.001z" />
    <glyph glyph-name="egrave" unicode="&#xe8;" 
d="M429 0h-77l1 404l4 115l-11 -44c-8.66699 -34 -15 -56.667 -19 -68l-140 -407h-116v556h77l-2 -420l-2 -82c2.66699 12.667 5.5 24.5 8.5 35.5s7.83301 25.833 14.5 44.5l144 422h118v-556z" />
    <glyph glyph-name="egrave" unicode="&#x438;" 
d="M429 0h-77l1 404l4 115l-11 -44c-8.66699 -34 -15 -56.667 -19 -68l-140 -407h-116v556h77l-2 -420l-2 -82c2.66699 12.667 5.5 24.5 8.5 35.5s7.83301 25.833 14.5 44.5l144 422h118v-556z" />
    <glyph glyph-name="eacute" unicode="&#xe9;" 
d="M429 0h-77l1 404l4 115l-11 -44c-8.66699 -34 -15 -56.667 -19 -68l-140 -407h-116v556h77l-2 -420l-2 -82c2.66699 12.667 5.5 24.5 8.5 35.5s7.83301 25.833 14.5 44.5l144 422h118v-556zM97 765h49c6 -26.667 18.167 -46.167 36.5 -58.5s41.5 -18.5 69.5 -18.5
c29.333 0 52.5 5.83301 69.5 17.5s28.833 31.5 35.5 59.5h49c0 -45.333 -14.5 -79.333 -43.5 -102s-67.167 -34 -114.5 -34c-44 0 -79.333 10.667 -106 32c-30 24 -45 58.667 -45 104z" />
    <glyph glyph-name="eacute" unicode="&#x439;" 
d="M429 0h-77l1 404l4 115l-11 -44c-8.66699 -34 -15 -56.667 -19 -68l-140 -407h-116v556h77l-2 -420l-2 -82c2.66699 12.667 5.5 24.5 8.5 35.5s7.83301 25.833 14.5 44.5l144 422h118v-556zM97 765h49c6 -26.667 18.167 -46.167 36.5 -58.5s41.5 -18.5 69.5 -18.5
c29.333 0 52.5 5.83301 69.5 17.5s28.833 31.5 35.5 59.5h49c0 -45.333 -14.5 -79.333 -43.5 -102s-67.167 -34 -114.5 -34c-44 0 -79.333 10.667 -106 32c-30 24 -45 58.667 -45 104z" />
    <glyph glyph-name="ecircumflex" unicode="&#xea;" horiz-adv-x="444" 
d="M148 0h-79v556h79v-259l192 259h94l-172 -216l177 -340h-92l-139 277l-60 -79v-198z" />
    <glyph glyph-name="ecircumflex" unicode="&#x43a;" horiz-adv-x="444" 
d="M148 0h-79v556h79v-259l192 259h94l-172 -216l177 -340h-92l-139 277l-60 -79v-198z" />
    <glyph glyph-name="edieresis" unicode="&#xeb;" horiz-adv-x="481" 
d="M408 0h-79v491h-167v-288c0 -89.333 -12.667 -149 -38 -179c-22 -26 -56 -39 -102 -39v75c29.333 0 48 13.333 56 40c5.33301 18 8 58.333 8 121v335h322v-556z" />
    <glyph glyph-name="edieresis" unicode="&#x43b;" horiz-adv-x="481" 
d="M408 0h-79v491h-167v-288c0 -89.333 -12.667 -149 -38 -179c-22 -26 -56 -39 -102 -39v75c29.333 0 48 13.333 56 40c5.33301 18 8 58.333 8 121v335h322v-556z" />
    <glyph glyph-name="igrave" unicode="&#xec;" horiz-adv-x="667" 
d="M594 0h-77v423l2 96l-26 -91l-117 -428h-86l-117 427l-24 92v-96v-423h-76v556h134l106 -391c4 -14.667 9 -43 15 -85c0.666992 -6 2 -14.667 4 -26c2.66699 17.333 4.66699 31 6 41c4.66699 26.667 9.66699 50 15 70l110 391h131v-556z" />
    <glyph glyph-name="igrave" unicode="&#x43c;" horiz-adv-x="667" 
d="M594 0h-77v423l2 96l-26 -91l-117 -428h-86l-117 427l-24 92v-96v-423h-76v556h134l106 -391c4 -14.667 9 -43 15 -85c0.666992 -6 2 -14.667 4 -26c2.66699 17.333 4.66699 31 6 41c4.66699 26.667 9.66699 50 15 70l110 391h131v-556z" />
    <glyph glyph-name="iacute" unicode="&#xed;" 
d="M427 0h-79v262h-196v-262h-79v556h79v-229h196v229h79v-556z" />
    <glyph glyph-name="iacute" unicode="&#x43d;" 
d="M427 0h-79v262h-196v-262h-79v556h79v-229h196v229h79v-556z" />
    <glyph glyph-name="icircumflex" unicode="&#xee;" 
d="M449 297c0 -115.333 -17.667 -197.332 -53 -245.999c-32 -44 -80.667 -66 -146 -66c-64 0 -112 22 -144 66c-36.667 50.667 -55 132.667 -55 246c0 86.667 16.5 154 49.5 202s82.833 72 149.5 72s117 -24.667 151 -74c32 -46.667 48 -113.334 48 -200.001zM367 272.001
c0 84 -9.00098 143.667 -27.001 179s-48 53 -90 53c-41.333 0 -71.166 -17.833 -89.499 -53.5s-27.5 -95.167 -27.5 -178.5c0 -70.667 8 -123.667 24 -159c18.667 -40.667 49.667 -61 93 -61c44 0 75.333 20.333 94 61c15.333 34 23 87 23 159z" />
    <glyph glyph-name="icircumflex" unicode="&#x43e;" 
d="M449 297c0 -115.333 -17.667 -197.332 -53 -245.999c-32 -44 -80.667 -66 -146 -66c-64 0 -112 22 -144 66c-36.667 50.667 -55 132.667 -55 246c0 86.667 16.5 154 49.5 202s82.833 72 149.5 72s117 -24.667 151 -74c32 -46.667 48 -113.334 48 -200.001zM367 272.001
c0 84 -9.00098 143.667 -27.001 179s-48 53 -90 53c-41.333 0 -71.166 -17.833 -89.499 -53.5s-27.5 -95.167 -27.5 -178.5c0 -70.667 8 -123.667 24 -159c18.667 -40.667 49.667 -61 93 -61c44 0 75.333 20.333 94 61c15.333 34 23 87 23 159z" />
    <glyph glyph-name="idieresis" unicode="&#xef;" 
d="M427 0h-79v491h-196v-491h-79v556h354v-556z" />
    <glyph glyph-name="idieresis" unicode="&#x43f;" 
d="M427 0h-79v491h-196v-491h-79v556h354v-556z" />
    <glyph glyph-name="eth" unicode="&#xf0;" 
d="M365 288c0 57.333 -5.33105 102.332 -15.998 134.999c-17.333 54 -48.333 81 -93 81c-53.333 0 -86 -39.333 -98 -118c-4.66699 -30 -7 -65.667 -7 -107c0 -65.333 4 -112.666 12 -141.999c15.333 -56.667 46.666 -85 93.999 -85c39.333 0 67.666 20.333 84.999 61
c15.333 36.667 23 95 23 175zM151.002 57.999l0.000976562 -246h-79v744h76v-62c13.333 25.333 30.166 44.5 50.499 57.5s42.5 19.5 66.5 19.5c64 0 112 -28.333 144 -85c25.333 -45.333 38 -102.333 38 -171c0 -97.333 -10.667 -172 -32 -224
c-28.667 -70.667 -77.334 -106 -146.001 -106c-27.333 0 -49.666 5.83301 -66.999 17.5s-34.333 30.167 -51 55.5z" />
    <glyph glyph-name="eth" unicode="&#x440;" 
d="M365 288c0 57.333 -5.33105 102.332 -15.998 134.999c-17.333 54 -48.333 81 -93 81c-53.333 0 -86 -39.333 -98 -118c-4.66699 -30 -7 -65.667 -7 -107c0 -65.333 4 -112.666 12 -141.999c15.333 -56.667 46.666 -85 93.999 -85c39.333 0 67.666 20.333 84.999 61
c15.333 36.667 23 95 23 175zM151.002 57.999l0.000976562 -246h-79v744h76v-62c13.333 25.333 30.166 44.5 50.499 57.5s42.5 19.5 66.5 19.5c64 0 112 -28.333 144 -85c25.333 -45.333 38 -102.333 38 -171c0 -97.333 -10.667 -172 -32 -224
c-28.667 -70.667 -77.334 -106 -146.001 -106c-27.333 0 -49.666 5.83301 -66.999 17.5s-34.333 30.167 -51 55.5z" />
    <glyph glyph-name="ntilde" unicode="&#xf1;" horiz-adv-x="444" 
d="M235 504c-49.333 0 -81.665 -31.665 -96.998 -94.998c-8 -32.667 -12 -84.334 -12 -155.001c0 -55.333 5 -98 15 -128c16.667 -49.333 47 -74 91 -74c38.667 0 65.667 15 81 45c11.333 22 17 54.333 17 97h75c0 -60 -12.333 -108.333 -37 -145
c-28.667 -42.667 -72 -64 -130 -64c-77.333 0 -131 29.667 -161 89c-22 43.333 -33 109 -33 197c0 114 18.667 194.333 56 241c31.333 39.333 76.666 59 135.999 59c53.333 0 94.666 -18.667 123.999 -56c27.333 -34.667 41 -79.334 41 -134.001h-74
c0 36.667 -5.66699 64.667 -17 84c-15.333 26 -40.333 39 -75 39z" />
    <glyph glyph-name="ntilde" unicode="&#x441;" horiz-adv-x="444" 
d="M235 504c-49.333 0 -81.665 -31.665 -96.998 -94.998c-8 -32.667 -12 -84.334 -12 -155.001c0 -55.333 5 -98 15 -128c16.667 -49.333 47 -74 91 -74c38.667 0 65.667 15 81 45c11.333 22 17 54.333 17 97h75c0 -60 -12.333 -108.333 -37 -145
c-28.667 -42.667 -72 -64 -130 -64c-77.333 0 -131 29.667 -161 89c-22 43.333 -33 109 -33 197c0 114 18.667 194.333 56 241c31.333 39.333 76.666 59 135.999 59c53.333 0 94.666 -18.667 123.999 -56c27.333 -34.667 41 -79.334 41 -134.001h-74
c0 36.667 -5.66699 64.667 -17 84c-15.333 26 -40.333 39 -75 39z" />
    <glyph glyph-name="ograve" unicode="&#xf2;" horiz-adv-x="388" 
d="M370 491h-136v-491h-79v491h-136v65h351v-65z" />
    <glyph glyph-name="ograve" unicode="&#x442;" horiz-adv-x="388" 
d="M370 491h-136v-491h-79v491h-136v65h351v-65z" />
    <glyph glyph-name="oacute" unicode="&#xf3;" horiz-adv-x="444" 
d="M182 -13l-177 568.999h82l125 -482l131 482h82l-165 -531c-10 -33.333 -17.667 -57.666 -23 -72.999c-11.333 -33.333 -20.666 -56.333 -27.999 -69c-14.667 -26 -32 -44.667 -52 -56s-45 -17 -75 -17c-18.667 0 -37.667 3 -57 9v70c18 -8 37.667 -12 59 -12
c36.667 0 62 16.667 76 50c9.33301 26.667 16.666 46.667 21.999 60z" />
    <glyph glyph-name="oacute" unicode="&#x443;" horiz-adv-x="444" 
d="M182 -13l-177 568.999h82l125 -482l131 482h82l-165 -531c-10 -33.333 -17.667 -57.666 -23 -72.999c-11.333 -33.333 -20.666 -56.333 -27.999 -69c-14.667 -26 -32 -44.667 -52 -56s-45 -17 -75 -17c-18.667 0 -37.667 3 -57 9v70c18 -8 37.667 -12 59 -12
c36.667 0 62 16.667 76 50c9.33301 26.667 16.666 46.667 21.999 60z" />
    <glyph glyph-name="ocircumflex" unicode="&#xf4;" horiz-adv-x="777" 
d="M642 288c0 57.333 -5.33105 102.332 -15.998 134.999c-17.333 54 -48.333 81 -93 81c-53.333 0 -86 -39.333 -98 -118c-4.66699 -30 -7 -65.667 -7 -107c0 -65.333 4 -112.666 12 -141.999c15.333 -56.667 46.666 -85 93.999 -85c39.333 0 67.666 20.333 84.999 61
c15.333 36.667 23 95 23 175zM135.002 287.999c0 -78.667 8.16895 -137.667 24.502 -177s44.166 -59 83.499 -59c47.333 0 78.666 28 93.999 84c8 29.333 12 77 12 143c0 64.667 -4.33301 112 -13 142c-16 55.333 -46.667 83 -92 83c-44 0 -74.667 -26.667 -92 -80
c-11.333 -34.667 -17 -80 -17 -136zM349.004 -188.001l0.000976562 246c-16 -24 -33 -42.167 -51 -54.5s-40.333 -18.5 -67 -18.5c-68 0 -116.333 35 -145 105c-22 53.333 -33 128.333 -33 225c0 68.667 12.667 125.667 38 171c31.333 56.667 79.333 85 144 85
c23.333 0 45.333 -6.5 66 -19.5s37 -32.167 49 -57.5l2 256h73v-256c13.333 25.333 30.166 44.5 50.499 57.5s42.5 19.5 66.5 19.5c64 0 112 -28.333 144 -85c25.333 -45.333 38 -102.333 38 -171c0 -97.333 -10.667 -172 -32 -224
c-28.667 -70.667 -77.334 -106 -146.001 -106c-27.333 0 -49.666 5.83301 -66.999 17.5s-34.333 30.167 -51 55.5v-246h-79z" />
    <glyph glyph-name="ocircumflex" unicode="&#x444;" horiz-adv-x="777" 
d="M642 288c0 57.333 -5.33105 102.332 -15.998 134.999c-17.333 54 -48.333 81 -93 81c-53.333 0 -86 -39.333 -98 -118c-4.66699 -30 -7 -65.667 -7 -107c0 -65.333 4 -112.666 12 -141.999c15.333 -56.667 46.666 -85 93.999 -85c39.333 0 67.666 20.333 84.999 61
c15.333 36.667 23 95 23 175zM135.002 287.999c0 -78.667 8.16895 -137.667 24.502 -177s44.166 -59 83.499 -59c47.333 0 78.666 28 93.999 84c8 29.333 12 77 12 143c0 64.667 -4.33301 112 -13 142c-16 55.333 -46.667 83 -92 83c-44 0 -74.667 -26.667 -92 -80
c-11.333 -34.667 -17 -80 -17 -136zM349.004 -188.001l0.000976562 246c-16 -24 -33 -42.167 -51 -54.5s-40.333 -18.5 -67 -18.5c-68 0 -116.333 35 -145 105c-22 53.333 -33 128.333 -33 225c0 68.667 12.667 125.667 38 171c31.333 56.667 79.333 85 144 85
c23.333 0 45.333 -6.5 66 -19.5s37 -32.167 49 -57.5l2 256h73v-256c13.333 25.333 30.166 44.5 50.499 57.5s42.5 19.5 66.5 19.5c64 0 112 -28.333 144 -85c25.333 -45.333 38 -102.333 38 -171c0 -97.333 -10.667 -172 -32 -224
c-28.667 -70.667 -77.334 -106 -146.001 -106c-27.333 0 -49.666 5.83301 -66.999 17.5s-34.333 30.167 -51 55.5v-246h-79z" />
    <glyph glyph-name="otilde" unicode="&#xf5;" horiz-adv-x="444" 
d="M179 286l-160 270h82l124 -200l123 200h82l-160 -270l166 -286h-82l-130 222l-133 -222h-82z" />
    <glyph glyph-name="otilde" unicode="&#x445;" horiz-adv-x="444" 
d="M179 286l-160 270h82l124 -200l123 200h82l-160 -270l166 -286h-82l-130 222l-133 -222h-82z" />
    <glyph glyph-name="odieresis" unicode="&#xf6;" 
d="M386 0h-313v556h79v-491h196v491h79v-491h35v-173h-76v108z" />
    <glyph glyph-name="odieresis" unicode="&#x446;" 
d="M386 0h-313v556h79v-491h196v491h79v-491h35v-173h-76v108z" />
    <glyph glyph-name="divide" unicode="&#xf7;" horiz-adv-x="481" 
d="M407 0h-77.998v261c-21.333 -11.333 -43.333 -20.5 -66 -27.5s-47.334 -10.5 -74.001 -10.5c-40 0 -73 11.333 -99 34s-39 53 -39 91v208h79v-200c0 -20.667 8.66699 -37 26 -49s37.666 -18 60.999 -18c18.667 0 38 3.83301 58 11.5s38 16.5 54 26.5v229h79z" />
    <glyph glyph-name="divide" unicode="&#x447;" horiz-adv-x="481" 
d="M407 0h-77.998v261c-21.333 -11.333 -43.333 -20.5 -66 -27.5s-47.334 -10.5 -74.001 -10.5c-40 0 -73 11.333 -99 34s-39 53 -39 91v208h79v-200c0 -20.667 8.66699 -37 26 -49s37.666 -18 60.999 -18c18.667 0 38 3.83301 58 11.5s38 16.5 54 26.5v229h79z" />
    <glyph glyph-name="oslash" unicode="&#xf8;" horiz-adv-x="647" 
d="M574 0h-501v556h79v-491h132v491h79v-491h132v491h79v-556z" />
    <glyph glyph-name="oslash" unicode="&#x448;" horiz-adv-x="647" 
d="M574 0h-501v556h79v-491h132v491h79v-491h132v491h79v-556z" />
    <glyph glyph-name="ugrave" unicode="&#xf9;" horiz-adv-x="647" 
d="M533 0h-460v556h79v-491h132v491h79v-491h132v491h79v-491h35v-173h-76v108z" />
    <glyph glyph-name="ugrave" unicode="&#x449;" horiz-adv-x="647" 
d="M533 0h-460v556h79v-491h132v491h79v-491h132v491h79v-491h35v-173h-76v108z" />
    <glyph glyph-name="uacute" unicode="&#xfa;" horiz-adv-x="481" 
d="M249 257h-60.002v-192h36c48.667 0 82.334 5 101.001 15c26 14 39 42 39 84c0 36.667 -10.333 62 -31 76c-17.333 11.333 -45.666 17 -84.999 17zM109.998 491h-91v65h170v-234h54c69.333 0 119 -10.333 149 -31c34.667 -24 52 -65.667 52 -125
c0 -60.667 -17.333 -103.667 -52 -129c-16 -12.667 -36.5 -22 -61.5 -28s-47.5 -9 -67.5 -9h-153v491z" />
    <glyph glyph-name="uacute" unicode="&#x44a;" horiz-adv-x="481" 
d="M249 257h-60.002v-192h36c48.667 0 82.334 5 101.001 15c26 14 39 42 39 84c0 36.667 -10.333 62 -31 76c-17.333 11.333 -45.666 17 -84.999 17zM109.998 491h-91v65h170v-234h54c69.333 0 119 -10.333 149 -31c34.667 -24 52 -65.667 52 -125
c0 -60.667 -17.333 -103.667 -52 -129c-16 -12.667 -36.5 -22 -61.5 -28s-47.5 -9 -67.5 -9h-153v491z" />
    <glyph glyph-name="ucircumflex" unicode="&#xfb;" horiz-adv-x="630" 
d="M557 0h-79v556h79v-556zM407 166c0 -60.667 -17.333 -103.667 -52 -129c-16 -12.667 -36.5 -22 -61.5 -28s-47.5 -9 -67.5 -9h-153v556h79v-234h54c69.333 0 119 -10.333 149 -31c34.667 -24 52 -65.667 52 -125zM212 257h-60.002v-192h36c48.667 0 82.334 5 101.001 15
c26 14 39 42 39 84c0 36.667 -10.333 62 -31 76c-17.333 11.333 -45.666 17 -84.999 17z" />
    <glyph glyph-name="ucircumflex" unicode="&#x44b;" horiz-adv-x="630" 
d="M557 0h-79v556h79v-556zM407 166c0 -60.667 -17.333 -103.667 -52 -129c-16 -12.667 -36.5 -22 -61.5 -28s-47.5 -9 -67.5 -9h-153v556h79v-234h54c69.333 0 119 -10.333 149 -31c34.667 -24 52 -65.667 52 -125zM212 257h-60.002v-192h36c48.667 0 82.334 5 101.001 15
c26 14 39 42 39 84c0 36.667 -10.333 62 -31 76c-17.333 11.333 -45.666 17 -84.999 17z" />
    <glyph glyph-name="udieresis" unicode="&#xfc;" horiz-adv-x="444" 
d="M407 166c0 -60.667 -17.333 -103.667 -52 -129c-16 -12.667 -36.5 -22 -61.5 -28s-47.5 -9 -67.5 -9h-153v556h79v-234h54c69.333 0 119 -10.333 149 -31c34.667 -24 52 -65.667 52 -125zM212 257h-60.002v-192h36c48.667 0 82.334 5 101.001 15c26 14 39 42 39 84
c0 36.667 -10.333 62 -31 76c-17.333 11.333 -45.666 17 -84.999 17z" />
    <glyph glyph-name="udieresis" unicode="&#x44c;" horiz-adv-x="444" 
d="M407 166c0 -60.667 -17.333 -103.667 -52 -129c-16 -12.667 -36.5 -22 -61.5 -28s-47.5 -9 -67.5 -9h-153v556h79v-234h54c69.333 0 119 -10.333 149 -31c34.667 -24 52 -65.667 52 -125zM212 257h-60.002v-192h36c48.667 0 82.334 5 101.001 15c26 14 39 42 39 84
c0 36.667 -10.333 62 -31 76c-17.333 11.333 -45.666 17 -84.999 17z" />
    <glyph glyph-name="yacute" unicode="&#xfd;" horiz-adv-x="444" 
d="M317 321c0 50 -7.00195 90.667 -21.002 122c-18 40.667 -47 61 -87 61c-29.333 0 -51.666 -9.33301 -66.999 -28c-12.667 -15.333 -20.667 -37.333 -24 -66h-74c4.66699 47.333 20.334 85.333 47.001 114c29.333 31.333 68.333 47 117 47
c59.333 0 104.333 -19.333 135 -58c38 -47.333 57 -128 57 -242c0 -88 -11 -153.667 -33 -197c-30 -59.333 -83.667 -89 -161 -89c-54 0 -95.667 18 -125 54c-26.667 32.667 -40 75.334 -40 128.001h75c3.33301 -36.667 10.333 -63.334 21 -80.001
c15.333 -23.333 40.333 -35 75 -35c44.667 0 75 24.333 91 73c10 30 15 73 15 129l-160 2v65h159z" />
    <glyph glyph-name="yacute" unicode="&#x44d;" horiz-adv-x="444" 
d="M317 321c0 50 -7.00195 90.667 -21.002 122c-18 40.667 -47 61 -87 61c-29.333 0 -51.666 -9.33301 -66.999 -28c-12.667 -15.333 -20.667 -37.333 -24 -66h-74c4.66699 47.333 20.334 85.333 47.001 114c29.333 31.333 68.333 47 117 47
c59.333 0 104.333 -19.333 135 -58c38 -47.333 57 -128 57 -242c0 -88 -11 -153.667 -33 -197c-30 -59.333 -83.667 -89 -161 -89c-54 0 -95.667 18 -125 54c-26.667 32.667 -40 75.334 -40 128.001h75c3.33301 -36.667 10.333 -63.334 21 -80.001
c15.333 -23.333 40.333 -35 75 -35c44.667 0 75 24.333 91 73c10 30 15 73 15 129l-160 2v65h159z" />
    <glyph glyph-name="thorn" unicode="&#xfe;" horiz-adv-x="647" 
d="M514 272c0 84 -8.33301 143.667 -25 179s-44.667 53 -84 53c-37.333 0 -64.833 -18.167 -82.5 -54.5s-26.5 -95.5 -26.5 -177.5c0 -71.333 7.33301 -124.333 22 -159c17.333 -40.667 46.333 -61 87 -61s69.667 20.333 87 61c14.667 34.667 22 87.667 22 159zM217 262
h-64.999v-262h-79v556h79v-229h65c0 76.667 16.167 136.5 48.5 179.5s78.833 64.5 139.5 64.5c63.333 0 111 -24.167 143 -72.5s48 -115.5 48 -201.5c0 -114 -17.333 -196 -52 -246c-30.667 -44 -77 -66 -139 -66c-58.667 0 -103.334 19.667 -134.001 59
c-36 46 -54 118.667 -54 218z" />
    <glyph glyph-name="thorn" unicode="&#x44e;" horiz-adv-x="647" 
d="M514 272c0 84 -8.33301 143.667 -25 179s-44.667 53 -84 53c-37.333 0 -64.833 -18.167 -82.5 -54.5s-26.5 -95.5 -26.5 -177.5c0 -71.333 7.33301 -124.333 22 -159c17.333 -40.667 46.333 -61 87 -61s69.667 20.333 87 61c14.667 34.667 22 87.667 22 159zM217 262
h-64.999v-262h-79v556h79v-229h65c0 76.667 16.167 136.5 48.5 179.5s78.833 64.5 139.5 64.5c63.333 0 111 -24.167 143 -72.5s48 -115.5 48 -201.5c0 -114 -17.333 -196 -52 -246c-30.667 -44 -77 -66 -139 -66c-58.667 0 -103.334 19.667 -134.001 59
c-36 46 -54 118.667 -54 218z" />
    <glyph glyph-name="ydieresis" unicode="&#xff;" horiz-adv-x="466" 
d="M393 0l-78.999 0.00390625v247h-60c-36.667 0 -63 -7.33301 -79 -22s-24 -41 -24 -79c0 -16.667 -0.833008 -35.834 -2.5 -57.501s-3.83398 -40 -6.50098 -55s-6 -26.167 -10 -33.5h-85v7c4 2 7.66699 6.66699 11 14c6 14.667 10 34.5 12 59.5s3 50.5 3 76.5
c0 35.333 5.16699 62.666 15.5 81.999s29.833 32.666 58.5 39.999c-28 8 -48.5 24.167 -61.5 48.5s-19.5 52.166 -19.5 83.499c0 52.667 15.667 90.667 47 114c28 20.667 70.333 31 127 31h153v-556zM314.001 311.004v179.999h-67c-37.333 0 -63 -5.33301 -77 -16
c-17.333 -13.333 -26 -37.666 -26 -72.999c0 -28.667 7.66699 -51 23 -67s37.333 -24 66 -24h81z" />
    <glyph glyph-name="ydieresis" unicode="&#x44f;" horiz-adv-x="466" 
d="M393 0l-78.999 0.00390625v247h-60c-36.667 0 -63 -7.33301 -79 -22s-24 -41 -24 -79c0 -16.667 -0.833008 -35.834 -2.5 -57.501s-3.83398 -40 -6.50098 -55s-6 -26.167 -10 -33.5h-85v7c4 2 7.66699 6.66699 11 14c6 14.667 10 34.5 12 59.5s3 50.5 3 76.5
c0 35.333 5.16699 62.666 15.5 81.999s29.833 32.666 58.5 39.999c-28 8 -48.5 24.167 -61.5 48.5s-19.5 52.166 -19.5 83.499c0 52.667 15.667 90.667 47 114c28 20.667 70.333 31 127 31h153v-556zM314.001 311.004v179.999h-67c-37.333 0 -63 -5.33301 -77 -16
c-17.333 -13.333 -26 -37.666 -26 -72.999c0 -28.667 7.66699 -51 23 -67s37.333 -24 66 -24h81z" />
    <glyph glyph-name="OE" unicode="&#x152;" horiz-adv-x="925" 
d="M532 357l-0.000976562 -282h79c64.667 0 109.334 8 134.001 24c32.667 21.333 49 62 49 122c0 55.333 -17 93 -51 113c-26 15.333 -68.333 23 -127 23h-84zM448.999 0l0.000976562 357h-287v-357h-83v750h83v-318h287v318h83v-318h112c48 0 86.333 -4.66699 115 -14
c23.333 -7.33301 43.333 -19 60 -35c20.667 -19.333 36 -42.833 46 -70.5s15 -57.5 15 -89.5c0 -46.667 -7.33301 -86 -22 -118c-17.333 -38 -45.333 -65.667 -84 -83c-25.333 -10.667 -58.833 -17 -100.5 -19s-72.834 -3 -93.501 -3h-131z" />
    <glyph glyph-name="OE" unicode="&#x40a;" horiz-adv-x="925" 
d="M532 357l-0.000976562 -282h79c64.667 0 109.334 8 134.001 24c32.667 21.333 49 62 49 122c0 55.333 -17 93 -51 113c-26 15.333 -68.333 23 -127 23h-84zM448.999 0l0.000976562 357h-287v-357h-83v750h83v-318h287v318h83v-318h112c48 0 86.333 -4.66699 115 -14
c23.333 -7.33301 43.333 -19 60 -35c20.667 -19.333 36 -42.833 46 -70.5s15 -57.5 15 -89.5c0 -46.667 -7.33301 -86 -22 -118c-17.333 -38 -45.333 -65.667 -84 -83c-25.333 -10.667 -58.833 -17 -100.5 -19s-72.834 -3 -93.501 -3h-131z" />
    <glyph glyph-name="oe" unicode="&#x153;" horiz-adv-x="721" 
d="M487 257h-60.002v-192h36c48.667 0 82.334 5 101.001 15c26 14 39 42 39 84c0 36.667 -10.333 62 -31 76c-17.333 11.333 -45.666 17 -84.999 17zM347.998 262h-196v-262h-79v556h79v-229h196v229h79v-234h54c69.333 0 119 -10.333 149 -31
c34.667 -24 52 -65.667 52 -125c0 -60.667 -17.333 -103.667 -52 -129c-16 -12.667 -36.5 -22 -61.5 -28s-47.5 -9 -67.5 -9h-153v262z" />
    <glyph glyph-name="oe" unicode="&#x45a;" horiz-adv-x="721" 
d="M487 257h-60.002v-192h36c48.667 0 82.334 5 101.001 15c26 14 39 42 39 84c0 36.667 -10.333 62 -31 76c-17.333 11.333 -45.666 17 -84.999 17zM347.998 262h-196v-262h-79v556h79v-229h196v229h79v-234h54c69.333 0 119 -10.333 149 -31
c34.667 -24 52 -65.667 52 -125c0 -60.667 -17.333 -103.667 -52 -129c-16 -12.667 -36.5 -22 -61.5 -28s-47.5 -9 -67.5 -9h-153v262z" />
    <glyph glyph-name="Scaron" unicode="&#x160;" horiz-adv-x="889" 
d="M494 357l-0.000976562 -282h81c64.667 0 109.334 8 134.001 24c32.667 21.333 49 62 49 122c0 55.333 -17 93 -51 113c-26 15.333 -68.333 23 -127 23h-86zM410.999 677h-238.999v-404c0 -99.333 -6.66699 -166.666 -20 -201.999c-22.667 -59.333 -70.667 -89 -144 -89
v82c38 0 62.333 18.333 73 55c7.33301 25.333 11 79.666 11 162.999v468h402v-318h114c48 0 86.333 -4.66699 115 -14c23.333 -7.33301 43.333 -19 60 -35c20.667 -19.333 36 -42.833 46 -70.5s15 -57.5 15 -89.5c0 -46.667 -7.33301 -86 -22 -118
c-17.333 -38 -45.333 -65.667 -84 -83c-25.333 -10.667 -58.833 -17 -100.5 -19s-72.834 -3 -93.501 -3h-133v677z" />
    <glyph glyph-name="Scaron" unicode="&#x409;" horiz-adv-x="889" 
d="M494 357l-0.000976562 -282h81c64.667 0 109.334 8 134.001 24c32.667 21.333 49 62 49 122c0 55.333 -17 93 -51 113c-26 15.333 -68.333 23 -127 23h-86zM410.999 677h-238.999v-404c0 -99.333 -6.66699 -166.666 -20 -201.999c-22.667 -59.333 -70.667 -89 -144 -89
v82c38 0 62.333 18.333 73 55c7.33301 25.333 11 79.666 11 162.999v468h402v-318h114c48 0 86.333 -4.66699 115 -14c23.333 -7.33301 43.333 -19 60 -35c20.667 -19.333 36 -42.833 46 -70.5s15 -57.5 15 -89.5c0 -46.667 -7.33301 -86 -22 -118
c-17.333 -38 -45.333 -65.667 -84 -83c-25.333 -10.667 -58.833 -17 -100.5 -19s-72.834 -3 -93.501 -3h-133v677z" />
    <glyph glyph-name="scaron" unicode="&#x161;" horiz-adv-x="703" 
d="M468 257h-60.002v-192h36c48.667 0 82.334 5 101.001 15c26 14 39 42 39 84c0 36.667 -10.333 62 -31 76c-17.333 11.333 -45.666 17 -84.999 17zM328.998 0v491h-167v-288c0 -89.333 -12.667 -149 -38 -179c-22 -26 -56 -39 -102 -39v75c29.333 0 48 13.333 56 40
c5.33301 18 8 58.333 8 121v335h322v-234h54c69.333 0 119 -10.333 149 -31c34.667 -24 52 -65.667 52 -125c0 -60.667 -17.333 -103.667 -52 -129c-16 -12.667 -36.5 -22 -61.5 -28s-47.5 -9 -67.5 -9h-153z" />
    <glyph glyph-name="scaron" unicode="&#x459;" horiz-adv-x="703" 
d="M468 257h-60.002v-192h36c48.667 0 82.334 5 101.001 15c26 14 39 42 39 84c0 36.667 -10.333 62 -31 76c-17.333 11.333 -45.666 17 -84.999 17zM328.998 0v491h-167v-288c0 -89.333 -12.667 -149 -38 -179c-22 -26 -56 -39 -102 -39v75c29.333 0 48 13.333 56 40
c5.33301 18 8 58.333 8 121v335h322v-234h54c69.333 0 119 -10.333 149 -31c34.667 -24 52 -65.667 52 -125c0 -60.667 -17.333 -103.667 -52 -129c-16 -12.667 -36.5 -22 -61.5 -28s-47.5 -9 -67.5 -9h-153z" />
    <glyph glyph-name="Ydieresis" unicode="&#x178;" 
d="M212 0h-139v556h79v-491h196v491h79v-556h-139v-108h-76v108z" />
    <glyph glyph-name="Ydieresis" unicode="&#x45f;" 
d="M212 0h-139v556h79v-491h196v491h79v-556h-139v-108h-76v108z" />
    <glyph glyph-name="florin" unicode="&#x192;" horiz-adv-x="388" 
d="M184 624l89 141h109l-131 -141h-67zM363 489h-212v-489h-78v556h290v-67z" />
    <glyph glyph-name="florin" unicode="&#x453;" horiz-adv-x="388" 
d="M184 624l89 141h109l-131 -141h-67zM363 489h-212v-489h-78v556h290v-67z" />
    <glyph glyph-name="endash" unicode="&#x2013;" 
d="M0 275v70h500v-70h-500z" />
    <glyph glyph-name="emdash" unicode="&#x2014;" horiz-adv-x="1000" 
d="M0 275v70h1000v-70h-1000z" />
    <glyph glyph-name="quoteleft" unicode="&#x2018;" horiz-adv-x="222" 
d="M158 767v-45.002c-18.667 -4 -31.5 -16.167 -38.5 -36.5s-10.5 -42.166 -10.5 -65.499h49v-99h-94l1 99c0 36.667 6 66.334 18 89.001c15.333 28.667 40.333 48 75 58z" />
    <glyph glyph-name="quoteright" unicode="&#x2019;" horiz-adv-x="222" 
d="M64 504v45.001c18.667 4 32 17.667 40 41c6 17.333 9 37.666 9 60.999h-49v99h94v-98c0 -36.667 -6.33301 -66.667 -19 -90c-15.333 -28.667 -40.333 -48 -75 -58z" />
    <glyph glyph-name="quotesinglbase" unicode="&#x201a;" horiz-adv-x="222" 
d="M64 -146l-0.000976562 45.001c18.667 4 32 17.667 40 41c6 17.333 9 37.666 9 60.999h-49v99h94v-100c0 -36 -6 -65.333 -18 -88c-15.333 -28 -40.666 -47.333 -75.999 -58z" />
    <glyph glyph-name="quotedblleft" unicode="&#x201c;" horiz-adv-x="389" 
d="M156 767v-45c-18.667 -4 -31.5 -16.167 -38.5 -36.5s-10.5 -42.166 -10.5 -65.499h49v-99h-94l1 99c0 35.333 6 64.666 18 87.999c15.333 29.333 40.333 49 75 59zM327 767l0.000976562 -45.002c-18.667 -4 -31.5 -16.167 -38.5 -36.5s-10.5 -42.166 -10.5 -65.499h49
v-99h-94v99c0 36 6 65.333 18 88c15.333 28.667 40.666 48.334 75.999 59.001z" />
    <glyph glyph-name="quotedblright" unicode="&#x201d;" horiz-adv-x="389" 
d="M62 504l-0.000976562 45.002c18.667 4 32 17.667 40 41c6 17.333 9 37.666 9 60.999h-49v99h94v-99c0 -36 -6 -65.333 -18 -88c-15.333 -28.667 -40.666 -48.334 -75.999 -59.001zM232.999 504.002v45.001c18.667 4 32 17.667 40 41c6 17.333 9 37.666 9 60.999h-49v99
h94l-1 -99c0 -36 -6 -65.333 -18 -88c-15.333 -29.333 -40.333 -49 -75 -59z" />
    <glyph glyph-name="quotedblbase" unicode="&#x201e;" horiz-adv-x="389" 
d="M233 -146l-0.000976562 45.001c18.667 4 32 17.333 40 40c6 17.333 9 37.666 9 60.999h-49v100h94l-1 -100c0 -34.667 -5.66699 -63 -17 -85c-15.333 -30 -40.666 -50.333 -75.999 -61zM61.999 -145.999v45.001c18.667 4 32 17.333 40 40c6 17.333 9 37.666 9 60.999h-49
v100h94v-100c0 -34 -5.66699 -62.333 -17 -85c-15.333 -30 -41 -50.333 -77 -61z" />
    <glyph glyph-name="dagger" unicode="&#x2020;" 
d="M210 -176v633h-170v70h170v223h80v-223h171v-70h-171v-633h-80z" />
    <glyph glyph-name="daggerdbl" unicode="&#x2021;" 
d="M211 51h-172v70h171v328h-169v70h170v231h80v-231h171v-70h-171v-328h171v-70h-171v-227h-80v227z" />
    <glyph glyph-name="bullet" unicode="&#x2022;" horiz-adv-x="333" 
d="M318 375c0 -42 -14.667 -78 -44 -108s-65.333 -45 -108 -45c-42 0 -77.667 15 -107 45s-44 66 -44 108s14.833 78.167 44.5 108.5s65.167 45.5 106.5 45.5c42 0 77.833 -15.167 107.5 -45.5s44.5 -66.5 44.5 -108.5z" />
    <glyph glyph-name="ellipsis" unicode="&#x2026;" horiz-adv-x="1000" 
d="M212 0h-91v100h91v-100zM545 0h-91v100h91v-100zM878 100v-100h-91v100h91z" />
    <glyph glyph-name="perthousand" unicode="&#x2030;" horiz-adv-x="1111" 
d="M718 186c0 -69.333 -10.333 -117.667 -31 -145s-55.667 -41 -105 -41c-43.333 0 -76 14 -98 42c-24 30.667 -36 79.667 -36 147c0 52 9.66699 92.333 29 121c23.333 34.667 60 52 110 52c47.333 0 82 -18.333 104 -55c18 -30 27 -70.333 27 -121zM582 305.999
c-28.667 0 -48 -16.333 -58 -49c-6 -20 -9 -49.333 -9 -88c0 -30.667 3.66699 -55 11 -73c11.333 -26.667 30.333 -40 57 -40c27.333 0 46.333 13 57 39c7.33301 18 11 42.667 11 74c0 40.667 -2.66699 69.667 -8 87c-10 33.333 -30.333 50 -61 50zM579 749.999l-341 -766
h-53l339 766h55zM317 559.999c0 -68 -10.667 -115.332 -32 -141.999s-57 -40 -107 -40c-44 0 -76.333 13.333 -97 40c-22.667 29.333 -34 77.666 -34 144.999c0 52 9.66699 92.333 29 121c23.333 34.667 60 52 110 52c47.333 0 82 -18.333 104 -55
c18 -30 27 -70.333 27 -121zM181 680c-22.667 0 -39.5 -10.167 -50.5 -30.5s-16.5 -56.5 -16.5 -108.5c0 -30 3.66699 -53.333 11 -70c10.667 -24.667 29.667 -37 57 -37c21.333 0 37.333 7 48 21c13.333 17.333 20 46 20 86c0 40.667 -2.66699 70 -8 88
c-10 34 -30.333 51 -61 51zM1071 186c0 -68.667 -10.168 -116.833 -30.501 -144.5s-55.166 -41.5 -104.499 -41.5c-44 0 -77 14 -99 42c-24 30.667 -36 79.667 -36 147c0 52 9.66699 92.333 29 121c23.333 34.667 60 52 110 52c47.333 0 82 -18.333 104 -55
c18 -30 27 -70.333 27 -121zM934.999 306.001c-28.667 0 -48 -16.333 -58 -49c-6 -20 -9 -49.333 -9 -88c0 -30.667 3.66699 -55 11 -73c11.333 -26.667 30.333 -40 57 -40c27.333 0 46.333 13 57 39c7.33301 18 11 42.667 11 74c0 40.667 -2.66699 69.667 -8 87
c-10 33.333 -30.333 50 -61 50z" />
    <glyph glyph-name="guilsinglleft" unicode="&#x2039;" horiz-adv-x="278" 
d="M64 342l151 153v-83l-100 -102l100 -102v-83l-151 156v61z" />
    <glyph glyph-name="guilsinglright" unicode="&#x203a;" horiz-adv-x="278" 
d="M214 278l-151 -153v83l100 102l-100 102v83l151 -156v-61z" />
    <glyph glyph-name="trademark" unicode="&#x2122;" horiz-adv-x="750" 
d="M719 750v-421h-55v361l-120 -361h-32l-115 361l-2 -361h-55v421h89l99 -297l103 297h88zM280 750v-60h-109v-361h-61v361h-110v60h280z" />
    <glyph glyph-name=".null" horiz-adv-x="0" 
 />
    <glyph glyph-name="nonmarkingreturn" horiz-adv-x="250" 
 />
    </font>
</defs>
</svg>
